<svg width="130" height="107" viewBox="0 0 130 107" fill="none" xmlns="http://www.w3.org/2000/svg">
<path d="M59.0375 26.4426L45.5914 19.4917C44.5366 18.9465 43.5394 16.1535 44.0845 15.0992L51.6204 3.14923C52.1656 2.09495 53.462 1.68223 54.5163 2.22738L67.9251 7.5497C68.9794 8.09485 69.4299 11.0203 68.8842 12.0746L61.9334 25.5202C61.3882 26.575 60.0918 26.9877 59.0375 26.4426Z" fill="#44ACA2"/>
<path d="M58.6401 24.4557L45.194 17.5049C44.1392 16.9597 43.7265 15.6628 44.2717 14.6085L51.2231 1.16241C51.7682 0.108128 53.0646 -0.304588 54.1189 0.240568L67.565 7.19144C68.6193 7.7366 69.0325 9.03352 68.4868 10.0878L61.536 23.5334C60.9908 24.5882 59.6944 25.0009 58.6401 24.4557Z" fill="#4CC3B7"/>
<path d="M55.8362 16.1827L50.5735 13.4688C50.0942 13.2216 49.9061 12.6332 50.1543 12.155L52.4729 7.68067C52.7207 7.20204 53.3106 7.01479 53.7899 7.26241L59.0526 9.97625C59.5315 10.2234 59.7196 10.8114 59.4718 11.2901L57.1532 15.7644C56.905 16.243 56.3151 16.4303 55.8362 16.1827Z" fill="white"/>
<path d="M62.5881 11.1489L57.5944 12.7947L59.1845 17.9647C59.3026 18.3473 59.8081 18.3918 59.9861 18.0351L63.1073 11.7849C63.2853 11.4282 62.9577 11.0271 62.5881 11.1489Z" fill="white"/>
<path d="M58.3233 35.369L63.6484 50.5371C64.0916 51.7998 63.4304 53.1768 62.1747 53.6172L48.7577 58.3273C47.5025 58.7681 46.1255 58.1069 45.6824 56.8443L38.7271 37.0309C38.2863 35.7753 38.9475 34.3987 40.2031 33.9579L48.9678 30.8811L58.3233 35.369Z" fill="white"/>
<path d="M58.3232 35.3693L51.3964 37.8008L48.9678 30.8814L58.3232 35.3693Z" fill="#E3DEF1"/>
<path d="M59.1834 45.1914L48.372 48.9868L47.871 47.5598L58.6824 43.7644L59.1834 45.1914Z" fill="#303647"/>
<path d="M60.0913 47.7773L49.2803 51.5728L48.7788 50.1457L59.5907 46.3503L60.0913 47.7773Z" fill="#303647"/>
<path d="M60.9995 50.3647L50.1881 54.1597L49.687 52.7327L60.4984 48.9373L60.9995 50.3647Z" fill="#303647"/>
<path d="M47.0029 48.6658C47.1411 49.0599 46.9337 49.4913 46.5396 49.63C46.1455 49.7682 45.7141 49.5609 45.5758 49.1668C45.4376 48.7727 45.6445 48.3412 46.0386 48.203C46.4327 48.0648 46.8646 48.2721 47.0029 48.6658Z" fill="#303647"/>
<path d="M47.9106 51.2527C48.0489 51.6468 47.8415 52.0782 47.4479 52.2169C47.0538 52.3552 46.6223 52.1478 46.4836 51.7537C46.3454 51.3596 46.5527 50.9281 46.9468 50.7899C47.341 50.6517 47.7724 50.859 47.9106 51.2527Z" fill="#303647"/>
<path d="M48.8189 53.8396C48.9571 54.2337 48.7498 54.6651 48.3557 54.8034C47.9616 54.9416 47.5301 54.7343 47.3919 54.3401C47.2532 53.946 47.461 53.5146 47.8547 53.3763C48.2488 53.2381 48.6802 53.4455 48.8189 53.8396Z" fill="#303647"/>
<path d="M48.4739 45.0663L44.6122 46.4219L43.2566 42.5606L47.1178 41.2046L48.4739 45.0663Z" fill="#FF9F1B"/>
<path d="M85.3051 107H33.4916L66.9315 98.127H115.438L85.3051 107Z" fill="#EFC5BD"/>
<path d="M57.5197 60.4052L54.8057 65.7072L35.4565 65.5886C32.8066 65.5722 30.7042 67.7995 30.8937 70.4219L32.9918 93.67C33.1621 96.0192 35.1246 97.8435 37.4986 97.8578L81.1617 98.1269C83.5587 98.1422 85.5559 96.3073 85.7251 93.9348L88.2848 62.9026C88.4705 60.3035 86.4045 58.0894 83.778 58.0729L61.6017 57.9368C59.8793 57.9262 58.299 58.8816 57.5197 60.4052Z" fill="#E08876"/>
<path d="M97.0194 58.8543L82.0922 67.0963C81.0428 67.6759 79.7227 67.2949 79.1431 66.2455L70.9011 51.3177C70.3221 50.2689 70.169 47.0985 71.2184 46.5195L86.6797 40.1272C87.729 39.5476 89.0486 39.9286 89.6287 40.978L98.0673 54.1626C98.6469 55.2115 98.0688 58.2752 97.0194 58.8543Z" fill="#E89018"/>
<path d="M97.0195 56.5032L82.0923 64.7452C81.0429 65.3248 79.7228 64.9438 79.1432 63.8944L70.9012 48.9667C70.3221 47.9178 70.7026 46.5972 71.752 46.0181L86.6797 37.7761C87.7291 37.1965 89.0487 37.5775 89.6288 38.6269L97.8703 53.5546C98.4499 54.6035 98.0689 55.9241 97.0195 56.5032Z" fill="#FF9F1B"/>
<path d="M82.138 47.2197C79.9302 48.4386 79.1259 51.2266 80.3453 53.4344C81.5638 55.6417 84.3514 56.4464 86.5596 55.2275C88.7673 54.0085 89.5717 51.2205 88.3531 49.0128C87.1337 46.8054 84.3462 46.0007 82.138 47.2197ZM87.0017 56.0281C84.3522 57.4909 81.007 56.5255 79.5442 53.8761C78.0814 51.227 79.0472 47.8819 81.6959 46.419C84.3453 44.9562 87.6905 45.9216 89.1534 48.5707C90.6162 51.2201 89.6508 54.5653 87.0017 56.0281Z" fill="white"/>
<path d="M81.6391 50.0459L83.9732 54.2227C84.074 54.4037 84.3371 54.4045 84.4394 54.2238L86.6667 50.2839C86.7625 50.1138 86.6449 49.9025 86.4475 49.8923L81.8861 49.6558C81.6773 49.6449 81.5375 49.8648 81.6391 50.0459Z" fill="white"/>
<path d="M33.4916 75.9917L33.5449 67.3319L67.4184 67.5452L67.3655 76.2051L33.4916 75.9917Z" fill="white"/>
<path d="M57.3313 65.3303L54.3712 71.1219L33.2626 70.9916C30.3715 70.974 28.0779 73.4063 28.2851 76.2715L30.5712 102.131C30.7564 104.697 32.8975 106.689 35.4871 106.706L83.1198 107C85.7351 107.016 87.9136 105.012 88.0983 102.42L90.8936 68.0583C91.0959 65.2197 88.842 62.8008 85.9771 62.7832L61.7841 62.6343C59.906 62.6226 58.1821 63.6661 57.3313 65.3303Z" fill="#F7A392"/>
<path d="M44.9745 94.4125H47.468C48.6191 94.4125 49.3304 93.8003 49.3304 92.9514C49.3304 92.2234 48.7795 91.7473 48.0992 91.7221V91.6717C48.7122 91.5533 49.1235 91.1125 49.1235 90.5432C49.1235 89.7572 48.482 89.2534 47.2714 89.2534H44.9745V94.4125ZM46.4127 93.294V92.2058H47.1059C47.543 92.2058 47.8095 92.4073 47.8095 92.77C47.8095 93.1151 47.5689 93.294 47.0852 93.294H46.4127ZM46.4127 91.3392V90.3517H47.0231C47.3801 90.3517 47.6439 90.5281 47.6439 90.8455C47.6439 91.1629 47.3801 91.3392 47.0024 91.3392H46.4127Z" fill="white"/>
<path d="M52.975 89.2534V92.4375C52.975 92.9187 52.6206 93.2638 52.1266 93.2638C51.6325 93.2638 51.2782 92.9187 51.2782 92.4375V89.2534H49.84V92.5584C49.84 93.7374 50.7557 94.4729 52.1266 94.4729C53.4872 94.4729 54.4132 93.7374 54.4132 92.5584V89.2534H52.975Z" fill="white"/>
<path d="M59.6802 89.2534H58.2421V91.9539H58.2007L56.3176 89.2534H55.0967V94.4125H56.5349V91.702H56.5659L58.48 94.4125H59.6802V89.2534Z" fill="white"/>
<path d="M62.3988 94.4125C64.0129 94.4125 65.0372 93.4451 65.0372 91.8329C65.0372 90.2207 64.0129 89.2534 62.3781 89.2534H60.3605V94.4125H62.3988ZM61.7987 93.2235V90.4424H62.3057C63.1334 90.4424 63.5887 90.7548 63.5887 91.8329C63.5887 92.9111 63.1334 93.2235 62.3471 93.2235H61.7987Z" fill="white"/>
<path d="M65.7026 94.4125H69.2825V93.2839H67.1408V89.2534H65.7026V94.4125Z" fill="white"/>
<path d="M69.8639 94.4125H73.6714V93.2839H71.3021V92.3972H73.4852V91.2687H71.3021V90.382H73.6818V89.2534H69.8639V94.4125Z" fill="white"/>
<path fill-rule="evenodd" clip-rule="evenodd" d="M61.4968 80.2621V80.823C62.1267 81.0196 62.5857 81.5898 62.5857 82.271V84.0766C62.5857 84.9198 61.8867 85.6035 61.0248 85.6035H57.9293C57.0671 85.6035 56.368 84.9198 56.368 84.0766V82.271C56.368 81.5898 56.8274 81.0196 57.457 80.823V80.2621C57.4607 79.1718 58.3638 78.2886 59.4713 78.2886C60.5937 78.2886 61.4968 79.1718 61.4968 80.2621ZM59.4787 78.9247C60.2331 78.9247 60.8463 79.5244 60.8463 80.2622V80.7442H58.1073V80.255C58.111 79.5208 58.7242 78.9247 59.4787 78.9247ZM59.8021 83.5755C59.8021 83.7536 59.6571 83.8953 59.475 83.8953C59.2966 83.8953 59.1517 83.7536 59.1517 83.5755V82.7686C59.1517 82.5942 59.2966 82.4524 59.475 82.4524C59.6571 82.4524 59.8021 82.5942 59.8021 82.7686V83.5755Z" fill="#C88173"/>
<path d="M129.275 23.9881L119.164 43.5764C118.323 45.2067 116.327 45.8436 114.706 45.0068L97.3793 36.0638C95.7579 35.227 95.1216 33.2319 95.963 31.601L109.169 6.01472C110.006 4.39338 112.001 3.75647 113.623 4.59333L124.941 10.4354L129.275 23.9881Z" fill="white"/>
<path d="M129.274 23.9883L120.329 19.3715L124.941 10.4356L129.274 23.9883Z" fill="#E3DEF1"/>
<path d="M114.549 23.0562L106.304 18.8009L108.878 13.8142L117.123 18.0695L114.549 23.0562Z" fill="#EF5E5E"/>
<path d="M121.793 31.25L104.488 22.3186L105.38 20.5899L122.685 29.522L121.793 31.25Z" fill="#E3DEF1"/>
<path d="M120.101 34.5278L102.796 25.5964L103.688 23.8677L120.993 32.7998L120.101 34.5278Z" fill="#E3DEF1"/>
<path d="M118.409 37.8062L101.104 28.8747L101.996 27.1461L119.301 36.0781L118.409 37.8062Z" fill="#E3DEF1"/>
<path d="M116.717 41.0845L99.412 32.1524L100.304 30.4244L117.609 39.3558L116.717 41.0845Z" fill="#E3DEF1"/>
<path d="M111.697 12.2517C111.47 12.6905 110.931 12.8624 110.492 12.6362C110.054 12.4094 109.881 11.8703 110.108 11.4314C110.335 10.9925 110.874 10.8201 111.313 11.0468C111.752 11.273 111.923 11.8128 111.697 12.2517Z" fill="#303647"/>
<path d="M114.638 13.769C114.411 14.2078 113.872 14.3803 113.433 14.1535C112.994 13.9274 112.822 13.3876 113.049 12.9487C113.275 12.5098 113.814 12.338 114.253 12.5648C114.692 12.7909 114.864 13.3301 114.638 13.769Z" fill="#303647"/>
<path d="M110.362 9.8252C110.179 9.8252 110.022 9.68784 110.002 9.50258C109.939 8.91934 109.846 8.3297 109.725 7.75029C109.684 7.55481 109.809 7.36316 110.005 7.32228C110.201 7.2782 110.392 7.40596 110.432 7.60208C110.56 8.20449 110.657 8.81777 110.722 9.42593C110.743 9.62397 110.599 9.8022 110.4 9.82328L110.362 9.8252Z" fill="white"/>
<path d="M19.4748 52.654L2.87539 47.9647C1.71151 47.5712 0.4034 45.1628 0.79686 43.9995L6.63275 26.7165C7.02568 25.5532 8.28752 24.9281 9.45139 25.3211L26.7338 31.1575C27.8972 31.5499 29.8229 34.0226 29.43 35.1865L22.2934 51.258C21.9 52.4219 20.6381 53.047 19.4748 52.654Z" fill="#E23D3D"/>
<path d="M20.6727 54.2512L3.39027 48.4153C2.22639 48.0219 1.60133 46.76 1.99479 45.5967L7.83068 28.3137C8.22361 27.1504 9.48545 26.5253 10.6493 26.9182L27.9318 32.7546C29.0951 33.147 29.7202 34.4089 29.3272 35.5727L23.4914 52.8552C23.0979 54.0191 21.8361 54.6441 20.6727 54.2512Z" fill="#EF5E5E"/>
<path d="M15.4471 41.2115C16.0547 41.1291 16.6301 41.196 17.0996 41.375L18.4824 37.3845L13.966 36.8836L12.2013 41.9752L12.1933 41.9726C11.9457 42.7305 11.027 43.3804 9.87059 43.5376C8.44146 43.7313 7.19069 43.0996 7.07666 42.1267C6.96219 41.1534 8.02794 40.2077 9.45708 40.0135C10.0649 39.9312 10.6404 39.9981 11.1099 40.177L12.315 36.7005L12.9898 34.3882L13.1125 34.3996L13.1165 34.3882L13.1664 34.4046L21.0443 35.1868L20.1339 37.5676L18.1912 43.1732L18.183 43.1705C17.9353 43.9286 17.0166 44.5783 15.8601 44.7355C14.4315 44.9292 13.1804 44.2975 13.0664 43.3247C12.9523 42.3513 14.018 41.4052 15.4471 41.2115Z" fill="white"/>
</svg>
