<svg width="154" height="90" viewBox="0 0 154 90" fill="none" xmlns="http://www.w3.org/2000/svg">
<rect width="154" height="61" rx="12.0194" fill="#F58F7E"/>
<path d="M47.6287 28.64C47.2497 25.9024 45.1438 24.3139 42.4121 24.3139C39.1931 24.3139 36.7683 26.6605 36.7683 30.6436C36.7683 34.6208 39.163 36.9734 42.4121 36.9734C45.3423 36.9734 47.2858 35.0781 47.6287 32.7255L45.3784 32.7134C45.0956 34.1575 43.9163 34.9698 42.4422 34.9698C40.4446 34.9698 39.0126 33.4716 39.0126 30.6436C39.0126 27.8639 40.4326 26.3175 42.4482 26.3175C43.9464 26.3175 45.1197 27.1659 45.3784 28.64H47.6287Z" fill="white"/>
<path d="M51.7548 24.4824H49.5767V36.8049H51.7548V24.4824Z" fill="white"/>
<path d="M53.9945 36.8049H56.1726V27.563H53.9945V36.8049ZM55.0896 26.2513C55.7815 26.2513 56.3471 25.7219 56.3471 25.072C56.3471 24.4162 55.7815 23.8867 55.0896 23.8867C54.3917 23.8867 53.8261 24.4162 53.8261 25.072C53.8261 25.7219 54.3917 26.2513 55.0896 26.2513Z" fill="white"/>
<path d="M62.4437 36.9854C64.7662 36.9854 66.2463 35.6075 66.4028 33.646H64.321C64.1344 34.6388 63.4184 35.2104 62.4617 35.2104C61.1019 35.2104 60.2235 34.0732 60.2235 32.184C60.2235 30.3187 61.12 29.1996 62.4617 29.1996C63.5087 29.1996 64.1525 29.8735 64.321 30.764H66.4028C66.2524 28.7604 64.688 27.4427 62.4317 27.4427C59.7241 27.4427 58.0153 29.3982 58.0153 32.2201C58.0153 35.0179 59.682 36.9854 62.4437 36.9854Z" fill="white"/>
<path d="M68.1913 36.8049H70.3694V33.7002L71.1636 32.8518L73.9915 36.8049H76.5968L72.8062 31.5522L76.3862 27.563H73.8411L70.5198 31.2754H70.3694V24.4824H68.1913V36.8049Z" fill="white"/>
<path d="M84.2187 31.3897C84.2187 30.054 85.049 29.2838 86.2163 29.2838C87.3595 29.2838 88.0333 30.0119 88.0333 31.2574V36.8049H90.2114V30.9204C90.2114 28.6882 88.9479 27.4427 87.0285 27.4427C85.6086 27.4427 84.706 28.0865 84.2788 29.1334H84.1705V24.4824H82.0406V36.8049H84.2187V31.3897Z" fill="white"/>
<path d="M96.5231 36.9854C98.6771 36.9854 100.157 35.9324 100.542 34.3259L98.5087 34.0973C98.2138 34.8795 97.4918 35.2886 96.5532 35.2886C95.1453 35.2886 94.2126 34.362 94.1946 32.7796H100.633V32.1117C100.633 28.8687 98.6832 27.4427 96.4088 27.4427C93.7614 27.4427 92.0345 29.3861 92.0345 32.2381C92.0345 35.1382 93.7373 36.9854 96.5231 36.9854ZM94.2006 31.3115C94.2668 30.1322 95.1392 29.1394 96.4389 29.1394C97.6904 29.1394 98.5327 30.054 98.5448 31.3115H94.2006Z" fill="white"/>
<path d="M102.475 36.8049H104.653V31.3717C104.653 30.1984 105.538 29.3681 106.735 29.3681C107.102 29.3681 107.56 29.4343 107.746 29.4944V27.4908C107.547 27.4547 107.205 27.4306 106.964 27.4306C105.905 27.4306 105.02 28.0323 104.683 29.1033H104.587V27.563H102.475V36.8049Z" fill="white"/>
<path d="M112.904 36.9854C115.058 36.9854 116.538 35.9324 116.923 34.3259L114.89 34.0973C114.595 34.8795 113.873 35.2886 112.934 35.2886C111.526 35.2886 110.594 34.362 110.575 32.7796H117.013V32.1117C117.013 28.8687 115.064 27.4427 112.79 27.4427C110.142 27.4427 108.415 29.3861 108.415 32.2381C108.415 35.1382 110.118 36.9854 112.904 36.9854ZM110.581 31.3115C110.648 30.1322 111.52 29.1394 112.82 29.1394C114.071 29.1394 114.914 30.054 114.926 31.3115H110.581Z" fill="white"/>
<path d="M97.776 60.2984C97.0777 58.9373 97.6054 57.5939 99.0019 56.9657C100.199 56.3375 101.695 56.9657 102.393 58.1174C106.267 65.0733 118.051 80.957 107 87.5C100.667 91.2981 94.74 88.3007 90.4781 84.5635C86.2162 80.8263 80.5216 75.0873 80.5216 75.0873C78.7579 72.9685 81.7684 71.0304 83.6009 71.2437C85.2476 71.4353 87.766 73.6394 87.766 73.6394L78.3704 58.2044C77.6722 56.8435 77.9426 54.9109 79.3391 54.2826C80.5361 53.7592 82.3547 53.9126 83.053 55.169L87.0028 61.9735C86.3045 60.6125 86.8033 58.8326 88.1998 58.2044C89.3969 57.6809 90.7934 58.2044 91.4917 59.4608L92.3894 61.1359C91.6912 59.7748 92.1899 57.9951 93.5864 57.3668C94.7834 56.8433 96.18 57.3668 96.8782 58.6232L97.776 60.2984Z" fill="white"/>
<path d="M97.776 60.2984C97.0777 58.9373 97.6054 57.5939 99.0019 56.9657C100.199 56.3375 101.695 56.9657 102.393 58.1174C106.267 65.0733 118.051 80.957 107 87.5C100.667 91.2981 94.74 88.3007 90.4781 84.5635C86.2162 80.8263 80.5216 75.0873 80.5216 75.0873C78.7579 72.9685 81.7684 71.0304 83.6009 71.2437C85.2476 71.4353 87.766 73.6394 87.766 73.6394L78.3704 58.2044C77.6722 56.8435 77.9426 54.9109 79.3391 54.2826C80.5361 53.7592 82.3547 53.9126 83.053 55.169L87.0028 61.9735M97.776 60.2984L96.8782 58.6232C96.18 57.3668 94.7834 56.8433 93.5864 57.3668C92.1899 57.9951 91.6912 59.7748 92.3894 61.1359M97.776 60.2984L99.4862 63.3859M92.3894 61.1359L91.4917 59.4608C90.7934 58.2044 89.3969 57.6809 88.1998 58.2044C86.8033 58.8326 86.3045 60.6125 87.0028 61.9735M92.3894 61.1359L94.5463 64.8233M87.0028 61.9735L89.5095 66.0691" stroke="#3E49E1" stroke-linecap="round" stroke-linejoin="round"/>
<path d="M87.4345 48.8041L84.68 50.9952C84.3588 51.2507 84.5848 51.7664 84.9903 51.7035L88.6213 51.1401C88.8941 51.0978 89.043 50.7983 88.9121 50.5552L88.0357 48.9275C87.9175 48.708 87.6296 48.6489 87.4345 48.8041Z" fill="white"/>
<path d="M80.8535 44.5441V48.2105C80.8535 48.6022 81.3582 48.7604 81.5819 48.4389L83.677 45.4272C83.8313 45.2054 83.7258 44.8976 83.4679 44.817L81.3728 44.1623C81.1153 44.0818 80.8535 44.2742 80.8535 44.5441Z" fill="white"/>
<path d="M73.6369 46.0537L75.9445 48.7978C76.2099 49.1135 76.7215 48.8696 76.6434 48.4646L75.9573 44.9097C75.9071 44.6496 75.6226 44.5093 75.3857 44.6277L73.7642 45.4385C73.5328 45.5542 73.4704 45.8557 73.6369 46.0537Z" fill="white"/>
<path d="M70.3372 49.7957L73.5993 52.0139C73.9337 52.2413 73.758 52.7647 73.3541 52.7442L69.5047 52.5484C69.247 52.5353 69.069 52.2852 69.1409 52.0374L69.7281 50.0149C69.8039 49.7539 70.1124 49.6428 70.3372 49.7957Z" fill="white"/>
<path d="M69.9101 57.4944L73.177 56.7222C73.5851 56.6257 73.8477 57.1423 73.5294 57.4151L71.0346 59.5535C70.8434 59.7174 70.55 59.6659 70.4261 59.4466L69.6539 58.0805C69.5228 57.8485 69.6508 57.5556 69.9101 57.4944Z" fill="white"/>
</svg>
