<svg width="172" height="109" viewBox="0 0 172 109" fill="none" xmlns="http://www.w3.org/2000/svg">
<path d="M95.6629 89.8197C95.9557 90.6654 96.0763 91.5309 96.0394 92.3722C96.0309 92.5622 96.0152 92.75 95.9895 92.9368C95.6745 95.4491 93.9795 97.6894 91.4305 98.5767C87.8497 99.8233 83.9405 97.9241 82.6973 94.3331C81.454 90.7419 83.3487 86.8223 86.9296 85.5758C90.511 84.3293 94.4197 86.2287 95.6629 89.8197Z" fill="url(#paint0_linear)"/>
<path d="M88.8779 90.0033L85.2445 91.2681C85.1345 91.3064 85.0753 91.4284 85.1136 91.539L85.7265 93.3095L85.9714 94.0169C86.2017 94.6821 86.9261 95.0355 87.5912 94.804L89.1119 94.2746L91.2245 93.5392C91.3346 93.5009 91.3938 93.3788 91.3555 93.2682L90.4977 90.7906C90.2667 90.1234 89.5408 89.7725 88.8779 90.0033Z" fill="white"/>
<path d="M92.0326 89.1027C92.0192 89.064 91.9982 89.0363 91.9747 89.0172L91.9377 88.9103L91.8721 88.9993C91.8429 89.0103 91.815 89.0331 91.7907 89.066L90.7463 90.4965C90.7224 90.5293 90.7052 90.5717 90.6922 90.6157L90.6427 90.684L90.6704 90.7639C90.67 90.8102 90.6736 90.855 90.6869 90.8935L91.0928 92.0657C91.106 92.1039 91.131 92.1416 91.1598 92.1777L91.1875 92.2575L91.2686 92.2804C91.3061 92.3071 91.3456 92.3292 91.3846 92.3404L93.0882 92.814C93.1278 92.825 93.1637 92.8255 93.1934 92.816L93.2999 92.8451L93.2632 92.7389C93.2704 92.7092 93.2688 92.6736 93.2556 92.6354L92.0326 89.1027Z" fill="white"/>
<path d="M156.727 11.0486V17.4121H163.073V11.0486H156.727Z" fill="white"/>
<path d="M153.157 11.4446V17.0127L155.14 17.4104L157.123 17.0127V11.4446L155.14 11.0469L153.157 11.4446Z" fill="#1E88E5"/>
<path d="M166.642 14.2317V19.7998C166.642 20.4588 166.11 20.9929 165.453 20.9929H157.123L156.727 19.0043L157.123 17.0157H162.676V14.2317L164.659 13.834L166.642 14.2317Z" fill="#4CAF50"/>
<path d="M166.642 8.6624V14.2305H162.676V11.4464H157.123L156.727 9.45783L157.123 7.46924H165.453C166.11 7.46924 166.642 8.00338 166.642 8.6624Z" fill="#FBC02D"/>
<path d="M157.123 17.0156V20.9928H154.347C153.69 20.9928 153.157 20.4587 153.157 19.7997V17.0156H157.123Z" fill="#1565C0"/>
<path d="M157.124 7.46924V11.4464H153.157L157.124 7.46924Z" fill="#E53935"/>
<path d="M167.039 14.2299L166.642 17.5906L162.676 14.2299L166.642 10.8691L167.039 14.2299Z" fill="#2E7D32"/>
<path d="M170.212 8.70602V19.7547C170.212 20.0887 169.823 20.2757 169.565 20.0649L166.642 17.5911V10.8696L169.565 8.3958C169.823 8.18501 170.212 8.37194 170.212 8.70602Z" fill="#4CAF50"/>
<path d="M80.0673 10.4849H95.51C99.9513 10.4849 103.552 14.0852 103.552 18.5265V19.6598C103.552 24.1011 107.152 27.7015 111.593 27.7015H156.871L158.289 27.7015C162.731 27.7015 166.331 31.3019 166.331 35.7432V62.07C166.331 66.5113 162.731 70.1117 158.289 70.1117H142.582M137.495 86.6636V99.96C137.495 104.401 133.895 108.002 129.454 108.002H49.4755C45.0342 108.002 41.4338 104.401 41.4338 99.96V83.4729" stroke="#E23D3D" stroke-width="0.502604" stroke-dasharray="3.02 4.02"/>
<path d="M171.945 97.4417C171.945 99.3848 170.369 100.96 168.426 100.96H105.164C103.221 100.96 101.646 99.3848 101.646 97.4417V56.2887C101.646 54.3456 103.221 52.7704 105.164 52.7704H168.426C170.369 52.7704 171.945 54.3456 171.945 56.2887V97.4417Z" fill="white"/>
<mask id="mask0" mask-type="alpha" maskUnits="userSpaceOnUse" x="101" y="52" width="71" height="49">
<path d="M171.945 100.96H101.646V52.7704H171.945V100.96Z" fill="#FFEBE6"/>
</mask>
<g mask="url(#mask0)">
<path d="M145.623 63.5993C148.034 64.871 149.556 67.8641 149.251 70.7345C149.229 70.9374 149.205 71.1653 149.324 71.3248C149.404 71.4328 149.532 71.4834 149.653 71.5281C150.952 72.0075 152.279 72.4177 153.515 73.0604C154.751 73.7035 155.911 74.6064 156.637 75.8607C157.101 76.6619 157.372 77.5808 157.502 78.5142C157.69 79.8665 157.531 81.3957 156.614 82.3423C156.084 82.8888 155.371 83.1705 154.675 83.4211C153.259 83.9316 151.781 84.3801 150.293 84.2365C148.905 84.1025 147.728 83.4184 146.414 83.077C145.108 82.7379 143.758 83.1194 142.429 83.2142C139.222 83.4426 135.989 83.2288 132.834 82.5743C131.792 82.3578 130.63 81.9909 130.151 80.9718C129.808 80.2412 129.919 79.2271 130.289 78.5192C130.534 78.0493 131.59 77.4222 131.534 76.9131C131.513 76.7285 131.378 76.5785 131.241 76.4532C130.864 76.1073 130.418 75.8379 130.069 75.4632C128.951 74.2614 129.352 71.7847 129.734 70.3704C130.555 67.3262 132.345 64.5483 134.845 62.8728C137.346 61.1974 140.561 60.7079 143.321 61.815" fill="#E23D3D"/>
<g opacity="0.350006">
<g opacity="0.350006">
<path opacity="0.350006" d="M106.62 66.0483C106.6 66.0483 106.581 66.0379 106.57 66.0196C106.555 65.9918 106.565 65.9572 106.592 65.9417L107.233 65.5793C107.261 65.5643 107.295 65.5739 107.311 65.6008C107.326 65.6281 107.316 65.6632 107.289 65.6782L106.648 66.041C106.639 66.0461 106.629 66.0483 106.62 66.0483Z" fill="#E4EEF7"/>
</g>
</g>
<path d="M136.879 78.9201C136.879 78.9201 128.926 78.5797 121.449 85.925C117.224 90.0773 114.311 95.2139 112.103 100.749C110.21 105.495 103.962 112.899 103.962 112.899C103.962 112.899 110.222 105.711 116.009 107.107C123.024 108.8 133.373 94.1864 133.373 94.1864" fill="#97B7FF"/>
<path d="M132.033 82.9203C130.927 85.7097 129.82 88.4995 128.714 91.2888C127.978 93.147 127.239 95.0084 126.681 96.9282C125.374 101.425 125.078 107.332 124.79 112.008C131.456 112.546 141.371 112.612 148.962 112.349C149.021 102.876 148.699 94.9305 147.101 86.8418C146.842 85.5273 146.546 84.1409 145.638 83.1582" fill="#3E49E1"/>
<path d="M131.404 80.1795L137.074 77.7944C137.074 77.7944 145.291 78.6472 146.924 80.5542C143.804 82.9233 142.601 85.9583 136.253 85.0869C129.905 84.2154 131.404 80.1795 131.404 80.1795Z" fill="#FF886F"/>
<path d="M140.641 72.4457L141.668 78.7788C141.668 78.7788 140.99 81.1816 137.79 81.1816C135.507 81.1816 135.735 78.8932 135.735 78.8932L136.648 72.4457" fill="#FF886F"/>
<path d="M135.191 63.4464C132.281 66.3643 130.228 73.9694 134.82 74.865C138.471 75.577 141.539 73.2575 142.467 70.3114C143.836 65.9637 138.1 60.529 135.191 63.4464Z" fill="#FF886F"/>
<path d="M133.778 67.3675C133.778 67.6004 133.966 67.7896 134.199 67.7896C134.431 67.7896 134.619 67.6004 134.619 67.3675C134.619 67.1346 134.431 66.9459 134.199 66.9459C133.966 66.9459 133.778 67.1346 133.778 67.3675Z" fill="#060A47"/>
<path d="M138.428 69.0623C138.428 69.2952 138.24 69.4844 138.008 69.4844C137.775 69.4844 137.587 69.2952 137.587 69.0623C137.587 68.8294 137.775 68.6403 138.008 68.6403C138.24 68.6403 138.428 68.8294 138.428 69.0623Z" fill="#060A47"/>
<path d="M137.471 67.4653C138.477 67.1914 139.265 67.674 139.711 68.5655C139.741 68.6248 139.823 68.581 139.812 68.5232C139.609 67.4534 138.39 66.9471 137.436 67.3381C137.36 67.3696 137.386 67.4881 137.471 67.4653Z" fill="#060A47"/>
<path d="M133.693 65.9697C134.099 65.76 134.573 65.6702 134.993 65.9054C135.345 66.1028 135.51 66.4656 135.658 66.8224C135.68 66.8749 135.75 66.8667 135.756 66.8092C135.881 65.704 134.358 65.2108 133.624 65.8804C133.574 65.9255 133.637 65.9984 133.693 65.9697Z" fill="#060A47"/>
<path d="M135.724 67.913C135.724 67.913 134.097 69.6522 134.269 70.0492C134.551 70.7051 135.528 70.7051 135.528 70.7051" stroke="#DD513E" stroke-width="0.502604" stroke-miterlimit="10" stroke-linejoin="round"/>
<path d="M137.074 72.1442L133.835 71.2941C133.835 71.2941 133.41 73.1984 134.47 73.4905C136.527 74.058 137.074 72.1442 137.074 72.1442Z" fill="white"/>
<path d="M146.635 64.5417C146.112 62.477 144.776 60.6794 142.708 60.1402C141.774 59.8968 140.776 59.8713 139.822 59.9875C138.998 60.0883 138.247 60.452 137.452 60.6685C136.656 60.8859 135.973 60.493 135.177 60.5509C133.645 60.6625 132.044 61.9693 132.772 63.6174C133.091 64.3402 133.737 64.8698 134.425 65.2554C136.251 66.2787 138.423 66.4414 140.514 66.4728C140.192 66.4683 139.975 68.3734 139.989 68.6186C140.027 69.3128 140.314 69.9541 140.534 70.6063C141.136 72.3902 141.927 74.1108 142.793 75.7857C142.86 75.9143 142.965 76.0633 143.108 76.0401C143.181 76.0278 143.238 75.9708 143.289 75.9165C144.049 75.1053 144.678 74.1823 145.173 73.1873C145.538 72.4531 146.139 71.681 146.367 70.892C146.495 70.4518 146.399 70.0575 146.382 69.614C146.361 69.0265 146.577 68.6387 146.738 68.079C147.068 66.929 146.925 65.6839 146.635 64.5417Z" fill="#E23D3D"/>
<path d="M136.253 75.2317C136.253 75.2317 138.388 75.3703 140.079 74.038" stroke="#DD513E" stroke-width="0.502604" stroke-miterlimit="10" stroke-linejoin="round"/>
<path d="M140.357 70.4743C140.883 70.014 141.46 70.3453 141.673 70.6133C142.186 71.261 141.982 72.2773 141.51 72.9674C140.98 73.7413 140.419 73.7668 140.047 73.6082C139.675 73.4496 139.526 72.801 139.754 72.1347" fill="#FF886F"/>
<path d="M140.877 73.0027C140.787 73.1029 140.776 73.1326 140.84 73.0916C140.866 73.0792 140.891 73.0669 140.917 73.0555C140.961 73.0332 141.004 73.0113 141.044 72.9826C141.12 72.9288 141.162 72.8773 141.175 72.7839C141.194 72.6367 141.002 72.6039 140.914 72.6759C141.001 72.6052 140.924 72.6399 140.851 72.6435C140.808 72.6458 140.765 72.6499 140.722 72.6549C140.63 72.6663 140.521 72.68 140.458 72.7584C140.201 73.0815 140.741 73.3819 140.877 73.0027Z" fill="#00316E"/>
<path d="M143.496 62.4262C142.271 62.1427 142.254 60.6879 142.408 59.6875C142.738 57.553 144.51 56.1916 146.643 56.3329C148.922 56.4838 151.363 58.0138 151.011 61.2398C150.701 64.0789 146.243 64.6869 144.187 63.0575C144.114 62.9996 144.043 62.939 143.974 62.877" fill="#E23D3D"/>
<path d="M142.363 60.0595C142.363 60.0595 145.961 61.1511 146.443 63.9067" stroke="#010101" stroke-width="0.670139" stroke-miterlimit="10"/>
<path d="M142.835 78.7806C142.835 78.7806 140.101 109.794 144.159 136.999L166.679 132.729C166.633 129.843 162.51 103.927 159.329 97.1521C153.976 85.7562 146.765 79.7354 146.765 79.7354" fill="#97B7FF"/>
<path d="M143.455 78.8525C143.455 78.8525 141.022 115.966 145.636 138.641" stroke="#29298B" stroke-width="0.502604" stroke-miterlimit="10"/>
<path d="M134.399 78.92C134.399 78.92 130.068 101.039 127.796 137.074C122.176 135.974 114.274 131.1 114.274 131.1C114.274 131.1 119.311 98.3617 127 84.6209C127.711 83.3516 127.862 81.7085 128.743 80.8594C128.743 80.8594 132.209 79.3899 134.399 78.92Z" fill="#97B7FF"/>
<path d="M119.199 106.917C119.199 106.917 122.694 91.1644 126.189 86.1622" stroke="#29298B" stroke-width="0.502604" stroke-miterlimit="10" stroke-linejoin="round"/>
<path d="M146.204 90.6699C146.204 90.6699 154.045 100.811 155.863 104.001C156.581 105.261 154.84 112.775 154.84 112.775L167.567 118.928C167.567 118.928 168.703 117.219 169.84 110.61C170.976 104.001 165.674 93.4411 159.499 87.4795C151.694 79.9441 144.121 79.131 144.121 79.131" fill="#97B7FF"/>
<path d="M155.775 107.889C155.775 107.889 156.644 105.253 155.863 104.001C155.082 102.749 148.098 92.2268 148.098 92.2268" stroke="#29298B" stroke-width="0.502604" stroke-miterlimit="10"/>
<path d="M107.302 58.0992H108.801V57.6126H107.904V55.875H107.302V58.0992Z" fill="#010101"/>
<path d="M109.647 55.875H109.044V58.0992H109.647V55.875Z" fill="#010101"/>
<path d="M110.539 55.875H109.858L110.591 58.0992H111.414L112.146 55.875H111.466L111.011 57.4432H110.993L110.539 55.875Z" fill="#010101"/>
<path d="M112.359 58.0992H113.954V57.6126H112.962V57.2304H113.876V56.7438H112.962V56.3615H113.958V55.875H112.359V58.0992Z" fill="#010101"/>
<ellipse cx="105.197" cy="56.8156" rx="0.703814" ry="0.705749" fill="#E23D3D"/>
</g>
<path d="M38.5199 33.7367C38.5199 35.6797 40.0951 37.2549 42.0381 37.2549H73.7623C75.7054 37.2549 77.2805 35.6797 77.2805 33.7367V7.3523C77.2805 5.40923 75.7054 3.83407 73.7623 3.83407H42.0381C40.0951 3.83407 38.5199 5.40923 38.5199 7.35229V33.7367Z" fill="white"/>
<mask id="mask1" mask-type="alpha" maskUnits="userSpaceOnUse" x="38" y="3" width="40" height="35">
<path d="M38.5199 33.2341C38.5199 35.4547 40.3201 37.2549 42.5407 37.2549H73.2597C75.4803 37.2549 77.2805 35.4547 77.2805 33.2341V7.8549C77.2805 5.63425 75.4803 3.83407 73.2597 3.83407H42.5407C40.3201 3.83407 38.5199 5.63426 38.5199 7.8549V33.2341Z" fill="#FFEBE6"/>
</mask>
<g mask="url(#mask1)">
<path d="M55.829 26.1544C55.829 26.1544 60.2036 24.278 64.1664 28.7579C68.2589 33.384 71.3298 39.6016 73.4297 39.5636C75.53 39.5258 81.6648 31.893 81.6648 31.893L86.7551 38.1009C86.7551 38.1009 78.6635 50.6156 73.3889 50.6892C65.9519 50.7934 57.8925 41.7949 57.8925 41.7949" fill="#FFAB37"/>
<path d="M58.9515 19.4432L56.6009 23.8764C56.6009 23.8764 56.5001 25.8279 58.871 26.6356C60.563 27.212 60.9684 25.4589 60.9684 25.4589L61.9104 20.4513" fill="#FFA18D"/>
<path d="M64.2414 13.6787C66.106 16.3111 67.1197 22.5194 63.4597 22.6083C60.5499 22.6796 58.4849 20.4878 58.153 18.0936C57.663 14.5595 62.3767 11.0467 64.2414 13.6787Z" fill="#FFA18D"/>
<path d="M61.5608 22.3106C61.5608 22.3106 60.4673 21.9392 59.3438 20.6995" stroke="#E07A6C" stroke-width="0.502604" stroke-miterlimit="10"/>
<path d="M63.7517 17.2718C63.7212 17.4516 63.8419 17.622 64.0214 17.6522C64.2007 17.6828 64.3706 17.5617 64.4006 17.3821C64.4311 17.2023 64.3104 17.032 64.1311 17.0014C63.9521 16.9709 63.7822 17.092 63.7517 17.2718Z" fill="#33002C"/>
<path d="M64.6476 16.3251C63.9619 15.8941 62.9437 16.1209 62.6507 16.9281C62.6336 16.9751 62.699 17.0049 62.7271 16.9662C63.1876 16.3377 63.8654 16.0714 64.6023 16.4166C64.6548 16.4413 64.6962 16.3556 64.6476 16.3251Z" fill="#33002C"/>
<path d="M65.2726 16.8969C65.2726 16.8969 66.7676 18.9649 66.5839 19.2488C66.2801 19.7175 65.5266 19.5896 65.5266 19.5896" fill="#FFA18D"/>
<path d="M63.4928 20.2734L65.4296 19.9275C65.4296 19.9275 65.4207 21.4373 64.7855 21.5614C63.5521 21.8026 63.4928 20.2734 63.4928 20.2734Z" fill="white"/>
<path d="M52.9517 24.9871L55.1055 22.0814L62.7389 25.4767L62.1358 27.2567C62.1358 27.2567 57.0778 27.11 52.9517 24.9871Z" fill="#FFAB37"/>
<path d="M62.1359 27.2564C66.9192 34.069 66.2361 57.5098 66.2361 57.5098C58.1439 62.0236 37.6155 63.1636 37.6155 63.1636C37.6155 63.1636 40.0337 46.7021 43.0254 37.8723C46.0169 29.0428 52.9518 24.9868 52.9518 24.9868" fill="#FFAB37"/>
<path d="M66.1523 48.3302C66.1523 48.3302 65.666 36.1726 64.0033 31.5229" stroke="#D86627" stroke-width="0.502604" stroke-miterlimit="10" stroke-linejoin="round"/>
<g opacity="0.449997">
<g opacity="0.449997">
<path opacity="0.449997" d="M40.1964 62.9384C40.1964 62.9384 43.4894 40.9458 47.9107 34.3968" stroke="#D86627" stroke-width="0.502604" stroke-miterlimit="10" stroke-linejoin="round"/>
</g>
</g>
<path d="M55.1058 22.0819L62.7391 25.4772" stroke="#D86627" stroke-width="0.502604" stroke-miterlimit="10" stroke-linejoin="round"/>
<path d="M54.6621 24.2702C54.6621 24.2702 58.0204 26.4408 62.1598 27.1865" stroke="#D86627" stroke-width="0.502604" stroke-miterlimit="10" stroke-linejoin="round"/>
<path d="M55.7504 22.3682L55.3654 23.2974" stroke="#D86627" stroke-width="0.502604" stroke-miterlimit="10" stroke-linejoin="round"/>
<path d="M56.8445 22.9063L56.4595 23.8354" stroke="#D86627" stroke-width="0.502604" stroke-miterlimit="10" stroke-linejoin="round"/>
<path d="M57.9382 23.4449L57.5532 24.374" stroke="#D86627" stroke-width="0.502604" stroke-miterlimit="10" stroke-linejoin="round"/>
<path d="M59.1246 23.919L58.7395 24.8481" stroke="#D86627" stroke-width="0.502604" stroke-miterlimit="10" stroke-linejoin="round"/>
<path d="M60.2491 24.3667L59.864 25.2959" stroke="#D86627" stroke-width="0.502604" stroke-miterlimit="10" stroke-linejoin="round"/>
<path d="M61.2868 24.8648L60.9017 25.7939" stroke="#D86627" stroke-width="0.502604" stroke-miterlimit="10" stroke-linejoin="round"/>
<path d="M62.4163 25.3355L62.0312 26.2646" stroke="#D86627" stroke-width="0.502604" stroke-miterlimit="10" stroke-linejoin="round"/>
<path d="M57.2254 11.4141C57.3313 11.3375 57.44 11.2642 57.5508 11.1942C58.6526 10.5024 59.6532 10.6712 60.9366 11.0798C61.2493 11.1791 62.5985 11.1706 63.254 11.7913C64.7799 11.4609 65.7687 12.6205 66.0689 13.435C66.4125 14.368 66.4703 15.5234 65.5689 16.5041C65.4318 16.0551 64.7461 14.3246 64.0919 13.7721C63.471 14.2665 62.5564 15.3227 62.2538 15.748C61.6479 16.5994 61.1259 17.5093 60.6947 18.4605C59.8451 20.3339 58.9083 23.1431 58.8224 25.2029C58.8153 25.3677 56.2286 24.2115 56.032 24.1355C55.1338 23.7884 54.3134 23.3748 53.5052 22.8287C51.5722 21.5226 50.5792 19.962 49.633 17.8452C50.3634 17.2186 54.7488 15.005 55.948 13.132C56.4911 12.2973 56.3828 12.0228 57.2254 11.4141Z" fill="white"/>
<path d="M53.5051 22.8301C53.5051 22.8301 56.509 18.94 57.3704 17.381" stroke="#FFEBE6" stroke-width="0.670139" stroke-miterlimit="10"/>
<path d="M56.753 24.4448C56.753 24.4448 58.3466 20.147 59.9393 16.7733" stroke="#FFEBE6" stroke-width="0.670139" stroke-miterlimit="10"/>
<path d="M50.5722 19.6948C50.5722 19.6948 54.0213 17.1671 54.8935 16.196" stroke="#FFEBE6" stroke-width="0.670139" stroke-miterlimit="10"/>
<path d="M51.5721 21.1094C51.5721 21.1094 55.6478 17.2692 56.6979 15.5368" stroke="#FFEBE6" stroke-width="0.670139" stroke-miterlimit="10"/>
<path d="M57.7545 24.8654C57.7545 24.8654 59.1822 18.8266 62.0091 15.1584" stroke="#FFEBE6" stroke-width="0.670139" stroke-miterlimit="10"/>
<path d="M62.729 11.2017C61.8273 9.81944 60.2357 8.94574 58.5859 8.73737C58.0711 8.67237 57.5398 8.6684 57.0431 8.81599C56.1502 9.08096 55.4575 9.82281 55.0907 10.6693C54.7241 11.5162 54.6494 12.4607 54.6874 13.3819" fill="#E23D3D"/>
<path d="M63.2083 11.4569C62.8882 10.7885 62.4803 10.0488 61.7777 9.91941C61.3799 9.84639 60.9694 9.99132 60.5798 10.1343C58.6488 10.8423 56.7181 11.5504 54.7872 12.2581C54.5616 12.3409 54.3271 12.4298 54.1578 12.6113C53.9171 12.8705 53.931 14.2762 53.9549 14.6304C54.0237 15.6434 61.5814 12.4889 62.9221 12.0766C63.063 12.0331 63.2249 11.97 63.2755 11.823C63.3179 11.7 63.2624 11.5699 63.2083 11.4569Z" fill="#E23D3D"/>
<path d="M61.4211 18.5531C61.1412 18.0178 60.5508 18.0208 60.2842 18.1247C59.6394 18.3759 59.4646 19.1744 59.6219 19.8499C59.7986 20.607 60.2553 20.8499 60.6169 20.8869C60.9783 20.9234 61.3215 20.5257 61.3579 19.9648" fill="#FFA18D"/>
<path d="M60.8065 20.5244C60.8047 20.4609 60.7935 20.4209 60.7617 20.366C60.7415 20.3316 60.6925 20.3078 60.6529 20.3135C60.5908 20.3228 60.5522 20.3391 60.5017 20.3773C60.3847 20.4655 60.3871 20.6501 60.5263 20.7171C60.6651 20.7843 60.8105 20.6712 60.8065 20.5244Z" fill="#33002C"/>
<path d="M53.5063 26.0672C53.5063 26.0672 49.4685 26.586 45.9006 30.8689C43.3576 33.9211 25.1927 57.1192 25.1927 57.1192L32.9536 60.4706L55.6832 36.8635" fill="#FFAB37"/>
<path d="M54.0707 38.5375L32.9536 60.4696L25.1927 57.1182" stroke="#D86627" stroke-width="0.502604" stroke-miterlimit="10" stroke-linejoin="round"/>
<path d="M55.6152 26.7845C55.6152 26.7845 50.556 24.9694 45.9007 30.8677" stroke="#D86627" stroke-width="0.502604" stroke-miterlimit="10" stroke-linejoin="round"/>
<path d="M54.7175 12.2349C54.7175 12.2349 58.9589 11.1862 61.5012 9.90258" stroke="white" stroke-width="0.335069" stroke-miterlimit="10" stroke-linejoin="round"/>
<path d="M54.5669 13.5435L54.5777 14.9006" stroke="white" stroke-width="0.335069" stroke-miterlimit="10" stroke-linejoin="round"/>
<path d="M55.5653 13.4406L55.7837 14.6319" stroke="white" stroke-width="0.335069" stroke-miterlimit="10" stroke-linejoin="round"/>
<path d="M56.6128 13.2238L57.0457 14.4174" stroke="white" stroke-width="0.335069" stroke-miterlimit="10" stroke-linejoin="round"/>
<path d="M57.5999 12.8741L58.0969 14.198" stroke="white" stroke-width="0.335069" stroke-miterlimit="10" stroke-linejoin="round"/>
<path d="M58.6416 12.5904L59.1386 13.9143" stroke="white" stroke-width="0.335069" stroke-miterlimit="10" stroke-linejoin="round"/>
<path d="M59.6567 12.358L60.1537 13.6818" stroke="white" stroke-width="0.335069" stroke-miterlimit="10" stroke-linejoin="round"/>
<path d="M60.6253 11.9982L61.1223 13.322" stroke="white" stroke-width="0.335069" stroke-miterlimit="10" stroke-linejoin="round"/>
<path d="M61.6666 11.5719L62.1636 12.8957" stroke="white" stroke-width="0.335069" stroke-miterlimit="10" stroke-linejoin="round"/>
<path d="M62.6561 11.2272L63.1531 12.551" stroke="white" stroke-width="0.335069" stroke-miterlimit="10" stroke-linejoin="round"/>
</g>
<path d="M50.5327 99.9328C50.5327 102.153 48.7325 103.954 46.5118 103.954H18.6545C16.4339 103.954 14.6337 102.153 14.6337 99.9328V77.021C14.6337 74.8004 16.4339 73.0002 18.6545 73.0002H46.5118C48.7325 73.0002 50.5327 74.8004 50.5327 77.021V99.9328Z" fill="white"/>
<mask id="mask2" mask-type="alpha" maskUnits="userSpaceOnUse" x="14" y="73" width="37" height="31">
<path d="M50.5626 99.9328C50.5626 102.153 48.7625 103.954 46.5418 103.954H18.6545C16.4339 103.954 14.6337 102.153 14.6337 99.9328V77.021C14.6337 74.8004 16.4339 73.0002 18.6545 73.0002H46.5418C48.7625 73.0002 50.5626 74.8004 50.5626 77.021V99.9328Z" fill="#FFEBE6"/>
</mask>
<g mask="url(#mask2)">
<path d="M48.0005 95.7546L53.8407 99.0705L64.6366 88.4927L67.7208 91.4494C67.7208 91.4494 60.2785 109.018 53.5806 108.007C48.8189 107.289 42.3571 102.742 42.3571 102.742" fill="#FF886F"/>
<path d="M33.9062 90.5092C33.9062 90.5092 37.3178 89.4028 43.2228 92.2949C47.1608 94.2237 52.9423 97.8119 52.9423 97.8119L48.6889 108.226L35.7989 101.297" fill="#97B7FF"/>
<path d="M35.8833 90.6843C35.8833 90.6843 41.6563 94.9888 43.1763 105.3C44.6962 115.611 45.5267 128.266 45.5267 128.266L21.6957 128.981C21.6957 128.981 19.5863 119.695 20.7162 109.851C21.6121 102.043 23.8238 94.1625 26.9274 90.8327C27.5398 90.3382 31.344 89.6841 31.344 89.6841L35.8833 90.6843Z" fill="#97B7FF"/>
<path d="M43.2581 105.306C43.2581 105.306 42.6234 100.236 40.855 96.2379" stroke="#29298B" stroke-width="0.502604" stroke-miterlimit="10"/>
<path d="M35.5142 90.5358C36.5446 90.955 37.0441 92.9803 34.5981 93.1337C32.1522 93.2867 30.3076 91.8001 29.4025 90.1099" stroke="#29298B" stroke-width="0.502604" stroke-miterlimit="10"/>
<path d="M36.592 87.3608L34.0458 81.8652L31.3188 85.8306L30.9546 86.7652L30.156 90.188C30.156 90.188 32.5885 93.2054 35.3725 92.0564C35.5311 91.9911 35.6423 91.8438 35.678 91.6752L36.592 87.3608Z" fill="#FF886F"/>
<path d="M35.8464 78.9612C37.0549 80.4666 39.5702 86.4748 38.4754 87.6955C37.3805 88.9161 34.9031 89.1451 33.6376 88.4685C32.5399 87.8815 29.7393 83.3555 30.4741 81.6191C31.2093 79.883 34.1519 76.8507 35.8464 78.9612Z" fill="#FF886F"/>
<path d="M28.51 82.1774C28.5178 81.4622 28.8756 80.7977 29.2303 80.1744C29.9053 78.9868 30.6933 77.7349 31.9612 77.2341C32.2536 77.1187 32.6313 77.0665 32.843 77.2987C33.2908 76.8731 33.8536 76.5699 34.4546 76.4308C34.8178 76.347 35.2075 76.324 35.5558 76.4571C35.9038 76.5902 36.199 76.9054 36.2277 77.2781C36.8493 77.178 37.479 77.0775 38.1055 77.1389C38.5399 77.1815 38.9756 77.3082 39.3434 77.5482C39.7073 77.7856 39.766 77.9759 39.7388 78.399C39.6896 79.1653 39.1561 79.8585 38.5115 80.238C37.6924 80.72 36.7098 80.8144 35.7622 80.8733C34.8143 80.9326 33.8377 80.9745 32.9747 81.3713C32.7612 81.4697 32.5478 81.5974 32.4285 81.8005C32.3226 81.9804 32.3035 82.1969 32.2869 82.4057C32.2264 83.1631 32.1658 83.9206 32.1053 84.6784C32.054 85.3208 31.9471 85.9754 31.6501 86.5543C31.4097 87.0228 30.6607 88.2179 30.3046 87.2734C29.9825 86.4187 28.522 82.9924 28.51 82.2349C28.51 82.2158 28.5096 82.1966 28.51 82.1774Z" fill="#010101"/>
<path d="M32.7942 84.6664C32.4941 84.4371 32.1238 84.1926 31.7935 84.3051C31.6226 84.363 31.5008 84.5113 31.4321 84.6781C31.0806 85.5346 31.5323 86.6808 32.4342 86.9825C32.8112 87.1085 33.2342 87.0549 33.3323 86.6037L32.9394 84.857C32.9323 84.7779 32.8601 84.7168 32.7942 84.6664Z" fill="#FF886F"/>
<path d="M36.1205 88.9273C36.1205 88.9273 34.133 89.2378 33.2073 88.025" stroke="#DD513E" stroke-width="0.502604" stroke-miterlimit="10" stroke-linejoin="round"/>
<path d="M37.046 82.2037C37.046 82.2037 39.1992 83.5043 39.1086 84.0495C39.0183 84.5943 38.1706 84.6699 38.1706 84.6699" fill="#FF886F"/>
<path d="M36.2943 82.3853C36.3796 82.4769 36.4352 82.6274 36.4805 82.7129C36.5605 82.8652 36.4292 83.0253 36.2664 83.0423C35.963 83.0746 35.7333 82.4247 36.0781 82.3171C36.1673 82.2891 36.2373 82.3242 36.2943 82.3853Z" fill="#010101"/>
<path d="M38.1982 85.2058L35.6411 85.57C35.6411 85.57 36.3204 87.3436 37.8071 86.9887C38.7104 86.7732 38.1982 85.2058 38.1982 85.2058Z" fill="white"/>
<path d="M36.3011 81.5293C35.8682 81.7284 35.4448 82.0379 35.134 82.3755C35.0799 82.3712 34.8749 82.214 34.8862 82.0624C34.8947 81.9432 35.4721 81.4012 36.0958 81.1399C36.0958 81.1399 36.362 81.4356 36.3011 81.5293Z" fill="#010101"/>
<path d="M32.0086 86.7564C32.0086 86.7564 32.7544 87.2261 33.2716 86.7716" stroke="#DD513E" stroke-width="0.502604" stroke-miterlimit="10" stroke-linejoin="round"/>
<path d="M28.405 104.318L22.7877 113.742L26.731 129.432L27.6885 130.573C27.0627 133.071 25.0751 134.545 25.0751 134.545L23.176 131.829C23.176 131.829 12.629 118.924 13.1331 113.2C13.5515 108.451 20.2611 97.2964 20.2611 97.2964" fill="#FF886F"/>
<path d="M28.8752 90.2096C27.0338 90.4464 23.4859 91.5918 19.9023 96.5004C14.649 103.696 13.5846 106.343 13.5846 106.343L25.2498 113.454L32.7679 100.716" fill="#97B7FF"/>
<path d="M13.5847 106.343L25.2499 113.454L32.768 100.716" stroke="#29298B" stroke-width="0.502604" stroke-miterlimit="10"/>
</g>
<path d="M35.9543 55.9333C35.9543 58.1539 34.1542 59.9541 31.9335 59.9541H4.0762C1.85555 59.9541 0.0553589 58.1539 0.0553589 55.9333V33.0215C0.0553589 30.8009 1.85555 29.0007 4.07619 29.0007H31.9335C34.1542 29.0007 35.9543 30.8009 35.9543 33.0215V55.9333Z" fill="white"/>
<mask id="mask3" mask-type="alpha" maskUnits="userSpaceOnUse" x="0" y="29" width="36" height="31">
<path d="M35.9843 55.9333C35.9843 58.1539 34.1841 59.9541 31.9635 59.9541H4.07619C1.85555 59.9541 0.0553589 58.1539 0.0553589 55.9333V33.0215C0.0553589 30.8009 1.85555 29.0007 4.07619 29.0007H31.9635C34.1841 29.0007 35.9843 30.8009 35.9843 33.0215V55.9333Z" fill="#FFEBE6"/>
</mask>
<g mask="url(#mask3)">
<path d="M34.9569 46.8067C35.476 50.4308 34.992 53.9352 33.7135 57.044C33.5423 57.4775 33.351 57.8938 33.1488 58.3042C32.9982 58.6369 32.828 58.9548 32.6483 59.2767C30.4727 63.1112 27.0118 66.0835 22.7764 67.4681C22.5046 67.5672 22.2331 67.6513 21.9553 67.7262C21.2651 67.9179 20.5585 68.0643 19.8381 68.1675C19.2775 68.2478 18.7228 68.2997 18.1612 68.3199C17.8798 68.3351 17.5946 68.3408 17.3178 68.3353C12.5258 68.3217 8.04427 66.289 4.7302 62.9122C4.47966 62.652 4.22354 62.3876 3.98528 62.1081C3.47888 61.5332 2.9992 60.917 2.56163 60.2796C0.919953 57.8751 -0.224943 55.0332 -0.672253 51.9106C-2.15965 41.5275 4.60737 31.9618 14.4496 30.5519C24.2893 29.1423 33.4695 36.4236 34.9569 46.8067Z" fill="white"/>
<path d="M34.1337 60.5C33.9624 60.9335 31.8358 61.0896 31.6337 61.5C31.4831 61.8327 31.8134 59.6782 31.6337 60C29.458 63.8345 27.0117 66.0835 22.7764 67.468C22.5046 67.5672 22.2331 67.6513 21.9553 67.7262C21.2651 67.9179 20.5584 68.0643 19.838 68.1675C19.2775 68.2478 18.7228 68.2996 18.1612 68.3199C17.8798 68.3351 17.5946 68.3408 17.3178 68.3353C12.5258 68.3217 8.04427 66.289 4.7302 62.9122C4.47965 62.652 4.22354 62.3876 3.98527 62.108C3.47888 61.5332 2.9992 60.9169 2.56163 60.2796C3.42627 58.9237 4.52916 57.9879 5.60698 57.4722C7.03952 56.7877 10.741 55.6176 13.8958 54.9047C14.1875 56.2756 15.5351 57.4676 16.8286 57.9146C18.2117 58.3915 20.1404 58.2456 20.2945 57.9375C20.403 57.7313 19.8199 55.8853 19.18 54.2205C22.2513 54.0641 26.0306 54.1023 28.3627 54.4256C30.6338 54.7426 32.4963 55.9738 33.7135 57.044" fill="black"/>
<path d="M13.8994 54.913C14.1856 56.2796 15.5327 57.4692 16.8318 57.9204C18.2128 58.4001 20.1413 58.2518 20.2929 57.944C20.3631 57.8035 20.1387 56.9725 19.8032 55.9441C19.6171 55.3987 19.4029 54.7971 19.1821 54.219C18.9958 53.7413 18.8084 53.2739 18.627 52.8658L18.4401 52.8047C16.7896 52.2131 14.954 49.4525 14.6273 47.6626C14.4456 48.4615 14.2472 49.6516 14.1036 50.839C13.9019 52.4085 13.779 53.9843 13.8586 54.6629L13.8994 54.913Z" fill="#FFA18D"/>
<path d="M13.0859 43.4873C13.9194 43.2625 14.4472 44.04 14.4472 44.04C14.4472 44.04 14.939 42.9358 14.8221 41.3492C14.7035 39.7678 15.2742 36.798 18.3637 37.0656C21.4507 37.3334 24.3893 39.0879 24.6787 39.882C25.4865 42.1048 26.0809 47.0957 24.552 50.1726C23.0781 53.1438 20.4241 53.4287 18.6268 52.8632L18.4375 52.8024C16.7895 52.2105 14.9545 49.4549 14.6296 47.6597L14.5728 47.1936C14.5728 47.1936 13.8784 48.1612 12.6001 47.2779C11.3198 46.3975 12.2549 43.7117 13.0859 43.4873Z" fill="#FFA18D"/>
<path d="M13.6365 43.4758C13.59 43.0108 12.9601 41.1012 12.7481 39.5684C12.536 38.0355 13.4844 35.4257 15.099 34.9083C16.7163 34.3931 18.2475 34.362 20.0982 33.9864C21.9509 33.6081 24.5022 33.8147 26.2384 35.4604C27.975 37.1086 26.4287 39.5206 24.6788 39.8816C22.9283 40.2378 21.4573 39.6381 20.1373 38.9364C18.8226 38.2365 17.4808 38.3459 17.4168 39.1254C17.3483 39.908 17.2622 40.7609 16.6166 40.8434C15.9665 40.929 15.4051 39.7774 15.2067 40.0216C15.0063 40.2686 15.1424 41.9553 14.9511 43.0015C14.7625 44.0497 14.5746 44.192 14.4474 44.0396L13.6365 43.4758Z" fill="#010101"/>
<path d="M22.8661 48.3718L22.9512 48.3345L23.0322 48.1297C22.5525 45.6742 22.1288 42.9447 22.246 42.6243C22.2843 42.5235 22.4571 42.3632 22.8311 42.2067C23.496 41.9258 24.3407 41.8324 24.7155 41.997L24.9864 41.8905L24.8822 41.6194C24.3335 41.3793 23.3338 41.5476 22.6714 41.8282C22.3638 41.9576 21.9758 42.1737 21.8614 42.4787C21.6674 42.9982 22.2851 46.4176 22.5442 47.7881L21.4455 47.2128L21.1691 47.2976L21.2546 47.5789L22.733 48.3532L22.8661 48.3718Z" fill="#010101"/>
<path d="M19.6193 42.5562L19.7646 42.4501L19.6796 42.1712C18.8498 41.7206 17.4606 41.9898 16.9285 42.3922L16.8872 42.6816L17.1764 42.7205C17.557 42.4352 18.7944 42.1575 19.483 42.5331L19.6193 42.5562Z" fill="#010101"/>
<path d="M13.9151 45.9638L14.0846 45.7815C14.0885 45.7558 14.1375 45.1868 13.8566 44.5395L13.5854 44.4328L13.4783 44.7016C13.7146 45.2473 13.6741 45.7349 13.6723 45.7402L13.8599 45.9642L13.9151 45.9638Z" fill="#010101"/>
<path d="M21.8497 50.35C22.1627 50.2926 22.3773 50.2142 22.4036 50.2054L22.5264 49.942L22.2605 49.8195C22.2436 49.8244 20.6782 50.3874 19.7906 49.4983L19.4997 49.4999L19.4985 49.7886C20.2132 50.5042 21.2291 50.4665 21.8497 50.35Z" fill="#010101"/>
<path d="M19.1832 44.1013C19.164 44.4227 19.3099 44.6879 19.5097 44.6994C19.7072 44.7113 19.8823 44.4629 19.9015 44.1414C19.9186 43.8228 19.7724 43.5552 19.575 43.5433C19.3751 43.5318 19.2003 43.7827 19.1832 44.1013Z" fill="#010101"/>
<path d="M23.6571 43.8574C23.6403 44.1785 23.7891 44.4457 23.9865 44.4576C24.186 44.4667 24.3613 44.2182 24.3808 43.8993C24.3975 43.5782 24.2513 43.3106 24.0514 43.2991C23.854 43.2872 23.6766 43.5385 23.6571 43.8574Z" fill="#010101"/>
<path d="M14.1031 50.8343C15.6108 53.5992 17.2089 55.8393 19.8027 55.9395C19.6166 55.394 19.4024 54.7924 19.1816 54.2143C18.9953 53.7367 18.8079 53.2692 18.6265 52.8611L18.4396 52.8001C16.7891 52.2085 14.9534 49.4479 14.6268 47.658C14.4451 48.4569 14.2467 49.647 14.1031 50.8343Z" fill="#E07A6C"/>
</g>
<path d="M27.7524 25.8633H19.6337V20.0001H27.7524V25.8633Z" fill="#FFEBE6"/>
<path d="M23.4681 25.0908C23.4023 25.0908 23.3489 25.0372 23.3489 24.9712V23.9087C23.3489 23.392 23.6401 22.9163 24.0884 22.6759C23.9853 22.5364 23.9283 22.3678 23.9283 22.1939C23.9283 21.7435 24.2935 21.3773 24.7427 21.3773C25.1916 21.3773 25.5571 21.7435 25.5571 22.1939C25.5571 22.3678 25.5 22.5364 25.397 22.6759C25.8452 22.9163 26.1365 23.392 26.1365 23.9087V24.9712C26.1365 25.0372 26.083 25.0908 26.0172 25.0908H23.4681Z" fill="#FFD0C2"/>
<path d="M24.7427 21.2592C24.228 21.2592 23.8091 21.6792 23.8091 22.1954C23.8091 22.3509 23.8487 22.5025 23.9219 22.6374C23.4985 22.9135 23.2297 23.3931 23.2297 23.9102V24.9727C23.2297 25.1048 23.3365 25.2119 23.4682 25.2119H26.0173C26.1489 25.2119 26.2558 25.1048 26.2558 24.9727V23.9102C26.2558 23.3931 25.987 22.9135 25.5636 22.6374C25.6368 22.5025 25.6764 22.3509 25.6764 22.1954C25.6764 21.6792 25.2575 21.2592 24.7427 21.2592ZM24.7427 21.4984C25.1266 21.4984 25.4379 21.8105 25.4379 22.1954C25.4379 22.4045 25.3441 22.5898 25.1986 22.7176C25.6771 22.9018 26.0173 23.3656 26.0173 23.9102V24.9727H23.4682V23.9102C23.4682 23.3656 23.8084 22.9018 24.2869 22.7176C24.1414 22.5898 24.0476 22.4045 24.0476 22.1954C24.0476 21.8105 24.3589 21.4984 24.7427 21.4984Z" fill="#FFEBE6"/>
<path d="M21.447 25.0908C21.3812 25.0908 21.3278 25.0372 21.3278 24.9712V23.7229C21.3278 23.1155 21.6751 22.5565 22.2075 22.2815C22.0796 22.1178 22.0086 21.9164 22.0086 21.7081C22.0086 21.1907 22.4284 20.77 22.9444 20.77C23.4606 20.77 23.8804 21.1907 23.8804 21.7081C23.8804 21.9164 23.8093 22.1178 23.6817 22.2815C24.2139 22.5565 24.5612 23.1155 24.5612 23.7229V24.9712C24.5612 25.0372 24.5078 25.0908 24.4419 25.0908H21.447Z" fill="#FFD0C2"/>
<path d="M22.9445 20.6519C22.3627 20.6519 21.8894 21.1264 21.8894 21.7098C21.8894 21.8986 21.9409 22.0825 22.0359 22.2432C21.5309 22.5561 21.2086 23.118 21.2086 23.7243V24.9727C21.2086 25.105 21.3152 25.2119 21.4472 25.2119H24.4418C24.5737 25.2119 24.6803 25.105 24.6803 24.9727V23.7243C24.6803 23.118 24.3581 22.5561 23.8531 22.2432C23.948 22.0825 23.9996 21.8986 23.9996 21.7098C23.9996 21.1264 23.5263 20.6519 22.9445 20.6519ZM22.9445 20.8911C23.3956 20.8911 23.761 21.2578 23.761 21.7098C23.761 21.9555 23.6508 22.1734 23.48 22.3236C24.0422 22.5398 24.4418 23.0847 24.4418 23.7243V24.9727H21.4472V23.7243C21.4472 23.0847 21.847 22.5398 22.409 22.3236C22.2382 22.1734 22.128 21.9555 22.128 21.7098C22.128 21.2578 22.4934 20.8911 22.9445 20.8911Z" fill="#FFEBE6"/>
<path d="M102.487 39.7651H91.9167V32.1312H102.487V39.7651Z" fill="#FFEBE6"/>
<rect x="78.3727" y="62.2686" width="32.7382" height="7.9104" rx="3.9552" fill="#EFC8C1"/>
<rect x="81.9226" y="64.2456" width="24.7943" height="1.23081" rx="0.615407" fill="white"/>
<rect x="81.9226" y="66.6641" width="14.2383" height="1.23081" rx="0.615407" fill="white"/>
<path d="M64.5876 107.818H57.7267V103.111H64.5876V107.818Z" fill="#FFEBE6"/>
<path d="M96.9091 38.7246C96.8432 38.7246 96.7898 38.671 96.7898 38.605V37.2215C96.7898 36.5482 97.1779 35.9284 97.7716 35.6287C97.6256 35.4471 97.5445 35.2218 97.5445 34.9888C97.5445 34.4227 98.004 33.9617 98.5686 33.9617C99.1335 33.9617 99.5929 34.4227 99.5929 34.9888C99.5929 35.2218 99.5116 35.4471 99.3656 35.6287C99.9593 35.9286 100.347 36.5482 100.347 37.2215V38.605C100.347 38.671 100.294 38.7246 100.228 38.7246H96.9091Z" fill="#FFD0C2"/>
<path d="M61.0192 107.255C60.9771 107.255 60.9429 107.221 60.9429 107.179V106.294C60.9429 105.863 61.1911 105.467 61.5709 105.275C61.4775 105.159 61.4257 105.015 61.4257 104.866C61.4257 104.503 61.7196 104.209 62.0807 104.209C62.4421 104.209 62.736 104.503 62.736 104.866C62.736 105.015 62.6839 105.159 62.5905 105.275C62.9703 105.467 63.2186 105.863 63.2186 106.294V107.179C63.2186 107.221 63.1844 107.255 63.1423 107.255H61.0192Z" fill="#FFD0C2"/>
<path d="M98.5687 33.8426C97.9383 33.8426 97.4252 34.3569 97.4252 34.9894C97.4252 35.2025 97.486 35.4096 97.5974 35.589C97.0325 35.9284 96.6707 36.5501 96.6707 37.222V38.6055C96.6707 38.7376 96.7775 38.8447 96.9092 38.8447H100.228C100.36 38.8447 100.467 38.7376 100.467 38.6055V37.222C100.467 36.5501 100.105 35.9284 99.5401 35.589C99.6515 35.4096 99.7123 35.2025 99.7123 34.9894C99.7123 34.3569 99.1992 33.8426 98.5687 33.8426ZM98.5687 34.0818C99.0685 34.0818 99.4738 34.488 99.4738 34.9894C99.4738 35.2616 99.3516 35.5029 99.1622 35.6694C99.7853 35.9091 100.228 36.5128 100.228 37.222V38.6055H96.9092V37.222C96.9092 36.5128 97.3522 35.9091 97.9752 35.6694C97.7858 35.5029 97.6637 35.2616 97.6637 34.9894C97.6637 34.488 98.069 34.0818 98.5687 34.0818Z" fill="#FFEBE6"/>
<path d="M62.0809 104.131C61.6776 104.131 61.3493 104.46 61.3493 104.865C61.3493 105.001 61.3883 105.134 61.4595 105.248C61.0982 105.466 60.8667 105.863 60.8667 106.293V107.178C60.8667 107.263 60.9351 107.331 61.0193 107.331H63.1424C63.2267 107.331 63.295 107.263 63.295 107.178V106.293C63.295 105.863 63.0635 105.466 62.7022 105.248C62.7735 105.134 62.8124 105.001 62.8124 104.865C62.8124 104.46 62.4842 104.131 62.0809 104.131ZM62.0809 104.284C62.4005 104.284 62.6598 104.544 62.6598 104.865C62.6598 105.039 62.5817 105.193 62.4605 105.3C62.8591 105.453 63.1424 105.839 63.1424 106.293V107.178H61.0193V106.293C61.0193 105.839 61.3026 105.453 61.7012 105.3C61.5801 105.193 61.5019 105.039 61.5019 104.865C61.5019 104.544 61.7612 104.284 62.0809 104.284Z" fill="#FFEBE6"/>
<path d="M94.2775 38.7246C94.2116 38.7246 94.1582 38.671 94.1582 38.605V36.9797C94.1582 36.1874 94.62 35.4593 95.3237 35.1151C95.1448 34.9025 95.0446 34.6343 95.0446 34.3566C95.0446 33.7029 95.5751 33.1709 96.2271 33.1709C96.8792 33.1709 97.4095 33.7029 97.4095 34.3566C97.4095 34.6343 97.3096 34.9025 97.1307 35.1151C97.8344 35.4593 98.2962 36.1874 98.2962 36.9797V38.605C98.2962 38.671 98.2427 38.7246 98.1769 38.7246H94.2775Z" fill="#FFD0C2"/>
<path d="M59.3358 107.255C59.2937 107.255 59.2595 107.221 59.2595 107.179V106.139C59.2595 105.632 59.5549 105.167 60.0051 104.946C59.8906 104.81 59.8265 104.639 59.8265 104.461C59.8265 104.043 60.1659 103.703 60.5829 103.703C61.0001 103.703 61.3393 104.043 61.3393 104.461C61.3393 104.639 61.2754 104.81 61.161 104.946C61.6111 105.167 61.9065 105.632 61.9065 106.139V107.179C61.9065 107.221 61.8723 107.255 61.8302 107.255H59.3358Z" fill="#FFD0C2"/>
<path d="M96.2272 33.0519C95.5094 33.0519 94.9255 33.6374 94.9255 34.3572C94.9255 34.6141 95.003 34.8635 95.1445 35.0757C94.4723 35.4618 94.0391 36.1908 94.0391 36.9802V38.6055C94.0391 38.7376 94.1457 38.8447 94.2776 38.8447H98.1768C98.3087 38.8447 98.4153 38.7376 98.4153 38.6055V36.9802C98.4153 36.1908 97.9821 35.4618 97.3099 35.0757C97.4514 34.8635 97.5289 34.6141 97.5289 34.3572C97.5289 33.6374 96.945 33.0519 96.2272 33.0519ZM96.2272 33.2911C96.8145 33.2911 97.2904 33.7683 97.2904 34.3572C97.2904 34.677 97.147 34.9606 96.9245 35.1561C97.6563 35.4376 98.1768 36.1471 98.1768 36.9802V38.6055H94.2776V36.9802C94.2776 36.1471 94.7981 35.4376 95.5299 35.1561C95.3074 34.9606 95.164 34.677 95.164 34.3572C95.164 33.7683 95.6399 33.2911 96.2272 33.2911Z" fill="#FFEBE6"/>
<path d="M60.5831 103.625C60.1239 103.625 59.7504 104 59.7504 104.46C59.7504 104.625 59.8 104.784 59.8905 104.92C59.4605 105.167 59.1833 105.633 59.1833 106.138V107.178C59.1833 107.263 59.2516 107.331 59.3359 107.331H61.8302C61.9146 107.331 61.9828 107.263 61.9828 107.178V106.138C61.9828 105.633 61.7057 105.167 61.2757 104.92C61.3662 104.784 61.4157 104.625 61.4157 104.46C61.4157 104 61.0422 103.625 60.5831 103.625ZM60.5831 103.778C60.9587 103.778 61.2632 104.084 61.2632 104.46C61.2632 104.665 61.1714 104.846 61.0291 104.971C61.4972 105.152 61.8302 105.605 61.8302 106.138V107.178H59.3359V106.138C59.3359 105.605 59.6689 105.152 60.137 104.971C59.9947 104.846 59.903 104.665 59.903 104.46C59.903 104.084 60.2074 103.778 60.5831 103.778Z" fill="#FFEBE6"/>
<path d="M64.8171 38.098C64.8171 38.3931 64.5786 38.6323 64.2842 38.6323C63.9899 38.6323 63.7513 38.3931 63.7513 38.098C63.7513 37.8028 63.9899 37.5636 64.2842 37.5636C64.5786 37.5636 64.8171 37.8028 64.8171 38.098Z" fill="#FFBDB0"/>
<path d="M54.7064 25.7864C54.7064 26.0816 54.4679 26.3208 54.1735 26.3208C53.8792 26.3208 53.6406 26.0816 53.6406 25.7864C53.6406 25.4913 53.8792 25.2521 54.1735 25.2521C54.4679 25.2521 54.7064 25.4913 54.7064 25.7864Z" fill="white"/>
<path d="M111.037 25.0613C111.037 25.3565 110.799 25.5957 110.504 25.5957C110.21 25.5957 109.971 25.3565 109.971 25.0613C109.971 24.7662 110.21 24.527 110.504 24.527C110.799 24.527 111.037 24.7662 111.037 25.0613Z" fill="white"/>
<path d="M72.4 25.0613C72.4 25.3565 72.1615 25.5957 71.8671 25.5957C71.5728 25.5957 71.3342 25.3565 71.3342 25.0613C71.3342 24.7662 71.5728 24.527 71.8671 24.527C72.1615 24.527 72.4 24.7662 72.4 25.0613Z" fill="white"/>
<path d="M124.733 51.3704C124.733 51.6656 124.494 51.9048 124.2 51.9048C123.906 51.9048 123.667 51.6656 123.667 51.3704C123.667 51.0753 123.906 50.8361 124.2 50.8361C124.494 50.8361 124.733 51.0753 124.733 51.3704Z" fill="#FFBDB0"/>
<path d="M86.0958 51.3704C86.0958 51.6656 85.8573 51.9048 85.5629 51.9048C85.2686 51.9048 85.03 51.6656 85.03 51.3704C85.03 51.0753 85.2686 50.8361 85.5629 50.8361C85.8573 50.8361 86.0958 51.0753 86.0958 51.3704Z" fill="#FFBDB0"/>
<path d="M124.198 35.3763C124.198 35.6714 123.959 35.9106 123.665 35.9106C123.371 35.9106 123.132 35.6714 123.132 35.3763C123.132 35.0811 123.371 34.8419 123.665 34.8419C123.959 34.8419 124.198 35.0811 124.198 35.3763Z" fill="white"/>
<path d="M130.222 8.1922C130.222 8.48737 129.984 8.72656 129.689 8.72656C129.395 8.72656 129.156 8.48737 129.156 8.1922C129.156 7.89703 129.395 7.65783 129.689 7.65783C129.984 7.65783 130.222 7.89703 130.222 8.1922Z" fill="white"/>
<path d="M108.939 8.1922C108.939 8.48737 109.177 8.72656 109.472 8.72656C109.766 8.72656 110.005 8.48737 110.005 8.1922C110.005 7.89703 109.766 7.65783 109.472 7.65783C109.177 7.65783 108.939 7.89703 108.939 8.1922Z" fill="white"/>
<path d="M85.5606 35.3763C85.5606 35.6714 85.322 35.9106 85.0277 35.9106C84.7333 35.9106 84.4948 35.6714 84.4948 35.3763C84.4948 35.0811 84.7333 34.8419 85.0277 34.8419C85.322 34.8419 85.5606 35.0811 85.5606 35.3763Z" fill="white"/>
<path d="M85.0385 12.3885C85.0385 12.6837 84.7999 12.9229 84.5056 12.9229C84.2112 12.9229 83.9727 12.6837 83.9727 12.3885C83.9727 12.0933 84.2112 11.8541 84.5056 11.8541C84.7999 11.8541 85.0385 12.0933 85.0385 12.3885Z" fill="white"/>
<path d="M61.9282 48.598C61.9282 48.8931 61.6897 49.1323 61.3953 49.1323C61.101 49.1323 60.8624 48.8931 60.8624 48.598C60.8624 48.3028 61.101 48.0636 61.3953 48.0636C61.6897 48.0636 61.9282 48.3028 61.9282 48.598Z" fill="white"/>
<path d="M101.734 18.7681C101.734 19.1869 101.396 19.5264 100.978 19.5264C100.56 19.5264 100.222 19.1869 100.222 18.7681C100.222 18.3493 100.56 18.0099 100.978 18.0099C101.396 18.0099 101.734 18.3493 101.734 18.7681Z" fill="#FFBDB0"/>
<path d="M35.3669 28.0908L37.3747 27.5323" stroke="white" stroke-width="1.00521" stroke-miterlimit="10" stroke-linecap="round" stroke-linejoin="round"/>
<path d="M127.322 28.1842L129.061 29.3354" stroke="#FFBDB0" stroke-width="1.00521" stroke-miterlimit="10" stroke-linecap="round" stroke-linejoin="round"/>
<path d="M133.347 1.00011L135.085 2.15137" stroke="#FFBDB0" stroke-width="1.00521" stroke-miterlimit="10" stroke-linecap="round" stroke-linejoin="round"/>
<path d="M105.815 1.00011L104.076 2.15137" stroke="#FFBDB0" stroke-width="1.00521" stroke-miterlimit="10" stroke-linecap="round" stroke-linejoin="round"/>
<path d="M88.6848 28.1842L90.4235 29.3354" stroke="#FFBDB0" stroke-width="1.00521" stroke-miterlimit="10" stroke-linecap="round" stroke-linejoin="round"/>
<path d="M49.0904 14.3739L50.2974 15.4092" stroke="#FFBDB0" stroke-width="1.00521" stroke-miterlimit="10" stroke-linecap="round" stroke-linejoin="round"/>
<path d="M32.7129 21.9023L33.9199 22.9375" stroke="#FFBDB0" stroke-width="1.00521" stroke-miterlimit="10" stroke-linecap="round" stroke-linejoin="round"/>
<path d="M127.421 40.5813L128.961 40.9707" stroke="#FFBDB0" stroke-width="1.00521" stroke-miterlimit="10" stroke-linecap="round" stroke-linejoin="round"/>
<path d="M133.446 13.3962L134.986 13.7856" stroke="#FFBDB0" stroke-width="1.00521" stroke-miterlimit="10" stroke-linecap="round" stroke-linejoin="round"/>
<path d="M105.715 13.3962L104.175 13.7856" stroke="#FFBDB0" stroke-width="1.00521" stroke-miterlimit="10" stroke-linecap="round" stroke-linejoin="round"/>
<path d="M88.7841 40.5813L90.3241 40.9707" stroke="#FFBDB0" stroke-width="1.00521" stroke-miterlimit="10" stroke-linecap="round" stroke-linejoin="round"/>
<path d="M117.178 46.145L118.485 45.2397" stroke="white" stroke-width="1.00521" stroke-miterlimit="10" stroke-linecap="round" stroke-linejoin="round"/>
<path d="M123.203 18.96L124.509 18.0546" stroke="white" stroke-width="1.00521" stroke-miterlimit="10" stroke-linecap="round" stroke-linejoin="round"/>
<path d="M115.959 18.96L114.652 18.0546" stroke="white" stroke-width="1.00521" stroke-miterlimit="10" stroke-linecap="round" stroke-linejoin="round"/>
<path d="M78.5408 46.145L79.8475 45.2397" stroke="white" stroke-width="1.00521" stroke-miterlimit="10" stroke-linecap="round" stroke-linejoin="round"/>
<path d="M116.125 33.5889L117.178 32.3965" stroke="#FFBDB0" stroke-width="1.00521" stroke-miterlimit="10" stroke-linecap="round" stroke-linejoin="round"/>
<path d="M122.149 6.4043L123.203 5.2119" stroke="#FFBDB0" stroke-width="1.00521" stroke-miterlimit="10" stroke-linecap="round" stroke-linejoin="round"/>
<path d="M117.012 6.4043L115.959 5.2119" stroke="#FFBDB0" stroke-width="1.00521" stroke-miterlimit="10" stroke-linecap="round" stroke-linejoin="round"/>
<path d="M77.4878 33.5889L78.541 32.3965" stroke="#FFBDB0" stroke-width="1.00521" stroke-miterlimit="10" stroke-linecap="round" stroke-linejoin="round"/>
<defs>
<linearGradient id="paint0_linear" x1="86.9873" y1="85.7427" x2="91.5104" y2="98.7359" gradientUnits="userSpaceOnUse">
<stop stop-color="#458DEE"/>
<stop offset="0.4031" stop-color="#4184ED"/>
<stop offset="1" stop-color="#386FE9"/>
</linearGradient>
</defs>
</svg>
