<svg width="184" height="117" viewBox="0 0 184 117" fill="none" xmlns="http://www.w3.org/2000/svg">
<mask id="mask0" mask-type="alpha" maskUnits="userSpaceOnUse" x="0" y="0" width="184" height="117">
<path d="M0.907227 111.429C0.907227 114.506 3.40164 117 6.47865 117H177.521C180.598 117 183.093 114.506 183.093 111.429V5.57153C183.093 2.49452 180.598 0.000114441 177.521 0.000114441H6.47865C3.40164 0.000114441 0.907227 2.49452 0.907227 5.57153V111.429Z" fill="#FFDCD6"/>
</mask>
<g mask="url(#mask0)">
<rect x="36" y="69" width="34.9029" height="34.9029" rx="17.4514" fill="white"/>
<mask id="mask1" mask-type="alpha" maskUnits="userSpaceOnUse" x="36" y="69" width="35" height="35">
<rect x="36" y="69.0015" width="34.9029" height="34.9029" rx="17.4514" fill="#C4C4C4"/>
</mask>
<g mask="url(#mask1)">
<path d="M52.9196 96.4115C52.9196 96.4115 49.2206 95.0415 39.6534 99.7144C33.2731 102.831 26.9824 113.842 26.9824 113.842L28.9688 125.038L49.8531 113.842" fill="#97B7FF"/>
<path d="M49.7163 96.6966C49.7163 96.6966 40.363 103.652 37.9004 120.311C35.4377 136.971 34.0923 157.419 34.0923 157.419L72.7031 158.575C72.7031 158.575 76.1206 143.571 74.29 127.665C72.8384 115.049 69.2551 102.316 64.2266 96.9363C63.2345 96.1375 57.071 95.0805 57.071 95.0805L49.7163 96.6966Z" fill="#97B7FF"/>
<path d="M50.314 96.4534C48.6445 97.1307 47.8353 100.403 51.7983 100.651C55.7612 100.898 58.7498 98.4962 60.2162 95.7652" stroke="#29298B" stroke-width="1.46019" stroke-miterlimit="10"/>
<path d="M48.5681 91.3288L52.6934 82.4492L57.1117 88.8564L57.7018 90.3665L58.9957 95.8968C58.9957 95.8968 55.0545 100.772 50.5439 98.9158C50.2869 98.8102 50.1068 98.5722 50.0489 98.2998L48.5681 91.3288Z" fill="#FF886F"/>
<path d="M49.7763 77.7543C47.8183 80.1866 43.7429 89.8943 45.5168 91.8666C47.2907 93.8389 51.3047 94.2088 53.3549 93.1157C55.1334 92.1671 59.671 84.8543 58.4804 82.0487C57.2892 79.2437 52.5216 74.3442 49.7763 77.7543Z" fill="#FF886F"/>
<path d="M61.6627 82.9508C61.6501 81.7952 61.0702 80.7216 60.4956 79.7145C59.4019 77.7955 58.1253 75.7728 56.071 74.9636C55.5973 74.7772 54.9853 74.6929 54.6424 75.0679C53.9169 74.3803 53.005 73.8905 52.0312 73.6657C51.4428 73.5304 50.8113 73.4931 50.247 73.7081C49.6832 73.9232 49.2049 74.4325 49.1585 75.0347C48.1514 74.8729 47.1311 74.7106 46.116 74.8099C45.4123 74.8787 44.7063 75.0834 44.1105 75.4711C43.5209 75.8548 43.4257 76.1622 43.4698 76.8458C43.5496 78.084 44.4138 79.2041 45.4582 79.8171C46.7853 80.596 48.3774 80.7485 49.9126 80.8437C51.4485 80.9395 53.0308 81.0072 54.429 81.6484C54.7748 81.8072 55.1207 82.0137 55.3139 82.3417C55.4854 82.6325 55.5164 82.9823 55.5433 83.3196C55.6414 84.5434 55.7395 85.7673 55.8376 86.9917C55.9207 88.0298 56.0939 89.0873 56.5751 90.0227C56.9645 90.7797 58.178 92.7107 58.755 91.1846C59.2769 89.8036 61.6432 84.2676 61.6627 83.0437C61.6627 83.0127 61.6633 82.9818 61.6627 82.9508Z" fill="#010101"/>
<path d="M54.7212 86.974C55.2076 86.6035 55.8075 86.2084 56.3425 86.3902C56.6195 86.4836 56.8168 86.7234 56.9281 86.9929C57.4976 88.3768 56.7658 90.2287 55.3045 90.7161C54.6937 90.9197 54.0083 90.8331 53.8495 90.1042L54.4861 87.282C54.4976 87.1541 54.6146 87.0554 54.7212 86.974Z" fill="#FF886F"/>
<path d="M49.3318 93.8575C49.3318 93.8575 52.552 94.3593 54.0518 92.3996" stroke="#DD513E" stroke-width="1.46019" stroke-miterlimit="10" stroke-linejoin="round"/>
<path d="M47.8325 82.9953C47.8325 82.9953 44.3439 85.0966 44.4907 85.9775C44.637 86.8578 46.0105 86.98 46.0105 86.98" fill="#FF886F"/>
<path d="M49.0501 83.2872C48.9119 83.4351 48.8218 83.6783 48.7484 83.8165C48.6188 84.0625 48.8316 84.3212 49.0954 84.3487C49.5869 84.4009 49.9592 83.3508 49.4005 83.1771C49.256 83.1317 49.1424 83.1885 49.0501 83.2872Z" fill="#010101"/>
<path d="M45.9657 87.8437L50.1086 88.4321C50.1086 88.4321 49.0081 91.2979 46.5994 90.7244C45.1358 90.3763 45.9657 87.8437 45.9657 87.8437Z" fill="white"/>
<path d="M49.0394 81.9052C49.7408 82.227 50.4268 82.7271 50.9303 83.2725C51.018 83.2656 51.3501 83.0115 51.3317 82.7666C51.318 82.5739 50.3826 81.6982 49.3721 81.2761C49.3721 81.2761 48.9408 81.7538 49.0394 81.9052Z" fill="#010101"/>
<path d="M55.9942 90.3506C55.9942 90.3506 54.7858 91.1117 53.9479 90.3753" stroke="#DD513E" stroke-width="1.46019" stroke-miterlimit="10" stroke-linejoin="round"/>
<path d="M61.0708 95.93C64.0541 96.3125 69.8024 98.1633 75.6086 106.094C84.12 117.721 85.8445 121.997 85.8445 121.997L66.9446 133.487L54.7639 112.906" fill="#97B7FF"/>
</g>
<path d="M122 28.0991C122 31.2015 122.827 34.0828 124.273 36.5369C124.469 36.88 124.679 37.2062 124.898 37.5261C125.064 37.7871 125.245 38.0334 125.435 38.2817C127.721 41.2368 130.981 43.3141 134.7 43.9666C134.94 44.0171 135.178 44.055 135.42 44.0845C136.022 44.1623 136.632 44.2002 137.249 44.2002C137.729 44.2002 138.2 44.177 138.674 44.1265C138.911 44.1055 139.151 44.076 139.383 44.0381C143.401 43.4509 146.916 41.2073 149.29 37.9766C149.469 37.7282 149.652 37.4756 149.818 37.2125C150.174 36.6695 150.502 36.0949 150.793 35.5077C151.881 33.2936 152.5 30.7721 152.5 28.0991C152.5 19.2109 145.674 12.0001 137.249 12.0001C128.826 12.0001 122 19.2109 122 28.0991Z" fill="white"/>
<path d="M124.273 36.5369C124.469 36.88 124.679 37.2062 124.898 37.5261C125.064 37.7871 125.245 38.0334 125.435 38.2817C127.721 41.2368 130.981 43.3141 134.7 43.9666C134.94 44.0171 135.178 44.055 135.42 44.0845C136.022 44.1623 136.632 44.2002 137.249 44.2002C137.729 44.2002 138.2 44.177 138.674 44.1265C138.911 44.1055 139.151 44.076 139.383 44.0381C143.401 43.4509 146.916 41.2073 149.29 37.9766C149.469 37.7282 149.652 37.4756 149.818 37.2125C150.174 36.6695 150.502 36.0949 150.793 35.5077C149.904 34.4743 148.867 33.8218 147.901 33.5188C146.617 33.1167 143.371 32.58 140.639 32.3612C140.559 33.5461 139.572 34.7079 138.541 35.2383C137.438 35.8045 135.803 35.9139 135.637 35.674C135.521 35.514 135.788 33.8955 136.125 32.4222C133.53 32.66 130.364 33.1462 128.447 33.6976C126.58 34.2365 125.165 35.493 124.273 36.5369Z" fill="black"/>
<path d="M140.637 32.3686C140.562 33.5493 139.575 34.709 138.539 35.2436C137.438 35.8119 135.803 35.9192 135.639 35.6793C135.563 35.5699 135.651 34.8458 135.809 33.9429C135.9 33.463 136.007 32.9327 136.123 32.4212C136.222 31.9982 136.323 31.5835 136.426 31.2194L136.575 31.1457C137.889 30.4512 139.097 27.915 139.156 26.3743C139.404 27.0226 139.713 27.9971 139.977 28.9758C140.334 30.2681 140.627 31.5751 140.642 32.1539L140.637 32.3686Z" fill="#FFA18D"/>
<path d="M139.947 22.6864C139.221 22.598 138.871 23.3136 138.871 23.3136C138.871 23.3136 138.326 22.4465 138.234 21.1016C138.143 19.7609 137.307 17.3383 134.748 17.934C132.191 18.5296 129.937 20.3544 129.789 21.0553C129.379 23.0169 129.48 27.2747 131.132 29.672C132.726 31.9872 134.986 31.9072 136.426 31.2169L136.577 31.1432C137.888 30.4486 139.097 27.9167 139.153 26.3718L139.145 25.974C139.145 25.974 139.844 26.7022 140.81 25.8077C141.778 24.9153 140.671 22.7748 139.947 22.6864Z" fill="#FFA18D"/>
<path d="M139.484 22.7429C139.467 22.3472 139.766 20.6697 139.759 19.3585C139.753 18.0473 138.644 15.972 137.227 15.7321C135.809 15.4942 134.521 15.6521 132.923 15.5595C131.324 15.4648 129.208 15.9447 127.95 17.5337C126.691 19.1249 128.278 20.9623 129.789 21.0549C131.301 21.1433 132.462 20.4635 133.485 19.7163C134.504 18.9712 135.643 18.9018 135.79 19.5479C135.941 20.1962 136.116 20.9013 136.668 20.8928C137.223 20.8865 137.556 19.8531 137.751 20.0341C137.949 20.2172 138.038 21.6484 138.324 22.503C138.608 23.3596 138.783 23.4564 138.871 23.3133L139.484 22.7429Z" fill="#010101"/>
<path d="M132.33 27.959L132.254 27.9379L132.162 27.7759C132.269 25.6585 132.296 23.3181 132.16 23.0634C132.115 22.9834 131.951 22.8697 131.619 22.7834C131.027 22.6277 130.307 22.6508 130.013 22.834L129.773 22.7771L129.827 22.5372C130.259 22.2699 131.118 22.2909 131.707 22.4467C131.981 22.5182 132.332 22.653 132.465 22.895C132.69 23.3075 132.583 26.2499 132.53 27.4307L133.382 26.8161L133.624 26.854L133.586 27.1002L132.439 27.9274L132.33 27.959Z" fill="#010101"/>
<path d="M134.355 22.6909L134.22 22.6194L134.258 22.3752C134.9 21.8975 136.097 21.9564 136.592 22.23L136.662 22.4678L136.424 22.5352C136.07 22.3416 134.999 22.2574 134.466 22.6551L134.355 22.6909Z" fill="#010101"/>
<path d="M139.549 24.8638L139.385 24.7312C139.378 24.7101 139.269 24.2387 139.427 23.662L139.641 23.5399L139.764 23.7525C139.631 24.2387 139.724 24.6428 139.726 24.647L139.595 24.8574L139.549 24.8638Z" fill="#010101"/>
<path d="M133.42 29.4964C133.151 29.4858 132.961 29.4459 132.938 29.4416L132.804 29.2354L133.012 29.1007C133.027 29.1028 134.407 29.3869 135.045 28.5346L135.289 28.5009L135.325 28.7429C134.811 29.429 133.955 29.5195 133.42 29.4964Z" fill="#010101"/>
<path d="M134.906 23.9342C134.961 24.2015 134.87 24.4414 134.704 24.4751C134.54 24.5088 134.363 24.3214 134.308 24.0541C134.256 23.7889 134.346 23.5469 134.51 23.5132C134.677 23.4795 134.854 23.669 134.906 23.9342Z" fill="#010101"/>
<path d="M131.124 24.2675C131.177 24.5348 131.084 24.7768 130.92 24.8105C130.754 24.8421 130.577 24.6547 130.522 24.3895C130.469 24.1222 130.56 23.8802 130.726 23.8465C130.89 23.8128 131.069 24.0023 131.124 24.2675Z" fill="#010101"/>
<path d="M139.977 28.9718C139.044 31.4722 137.973 33.5433 135.809 33.939C135.9 33.4591 136.007 32.9287 136.123 32.4173C136.222 31.9942 136.323 31.5796 136.426 31.2155L136.575 31.1418C137.889 30.4472 139.097 27.9111 139.156 26.3704C139.404 27.0187 139.713 27.9932 139.977 28.9718Z" fill="#E07A6C"/>
<rect x="108.899" y="55.8994" width="47.1011" height="47.101" rx="23.5505" fill="white"/>
<mask id="mask2" mask-type="alpha" maskUnits="userSpaceOnUse" x="108" y="55" width="48" height="48">
<rect x="108.899" y="55.8984" width="47.1011" height="47.101" rx="23.5505" fill="#C4C4C4"/>
</mask>
<g mask="url(#mask2)">
<path d="M135.471 90.7954C135.471 90.7954 128.631 87.1951 121.632 93.9131C114.403 100.85 108.623 110.491 105.227 110.156C101.831 109.821 88.0566 104.33 88.0566 104.33L83.8393 106.057C83.8393 106.057 95.3158 127.321 103.847 128.128C115.877 129.265 130.097 115.784 130.097 115.784" fill="#FFAB37"/>
<path d="M125.114 91.7577C116.483 102.136 114.543 140.079 114.543 140.079C127.06 148.422 160.154 152.939 160.154 152.939C160.154 152.939 158.377 126.04 154.681 111.391C150.984 96.7431 140.281 89.2894 140.281 89.2894" fill="#FFAB37"/>
<path d="M115.872 125.265C115.872 125.265 118.24 105.696 121.536 98.4038" stroke="#D86627" stroke-width="1.26953" stroke-miterlimit="10" stroke-linejoin="round"/>
<path d="M134.249 85.42L134.752 86.9707" stroke="#D86627" stroke-width="1.26953" stroke-miterlimit="10" stroke-linejoin="round"/>
<path d="M132.407 86.1504L132.91 87.7012" stroke="#D86627" stroke-width="1.26953" stroke-miterlimit="10" stroke-linejoin="round"/>
<path d="M139.243 90.9613C139.243 90.9613 145.714 92.3252 150.935 99.7065C154.656 104.967 181.056 144.796 181.056 144.796L168.053 149.197L134.315 108.112" fill="#FFAB37"/>
<path d="M135.735 91.8468C135.735 91.8468 144.163 89.575 150.935 99.7065" stroke="#D86627" stroke-width="1.26953" stroke-miterlimit="10" stroke-linejoin="round"/>
<path d="M131.287 79.5522L134.517 87.0175C134.517 87.0175 134.426 90.1821 130.482 91.1775C127.668 91.8878 127.239 89.0038 127.239 89.0038L126.364 80.7944" fill="#FFA18D"/>
<path d="M123.47 69.5567C120.109 73.5646 117.66 83.4581 123.575 84.0785C128.278 84.5729 131.907 81.3026 132.755 77.4795C134.008 71.8363 126.832 65.5493 123.47 69.5567Z" fill="#FFA18D"/>
<path d="M126.689 83.8451C126.689 83.8451 128.508 83.3878 130.489 81.5323" stroke="#E07A6C" stroke-width="1.26953" stroke-miterlimit="10"/>
<path d="M123.796 75.4212C123.822 75.7156 123.604 75.9749 123.31 76.0004C123.015 76.0264 122.756 75.8088 122.731 75.5148C122.705 75.2204 122.922 74.9611 123.217 74.9351C123.51 74.9092 123.77 75.1268 123.796 75.4212Z" fill="#33002C"/>
<path d="M122.469 73.7763C123.635 73.1697 125.254 73.6687 125.624 75.0104C125.645 75.0884 125.535 75.128 125.495 75.062C124.831 73.987 123.768 73.4686 122.53 73.9301C122.442 73.9631 122.386 73.8193 122.469 73.7763Z" fill="#33002C"/>
<path d="M121.382 74.6168C121.382 74.6168 118.692 77.7615 118.953 78.244C119.384 79.0405 120.621 78.9322 120.621 78.9322" fill="#FFA18D"/>
<path d="M123.825 80.2977L120.733 79.4867C120.733 79.4867 120.551 81.9258 121.564 82.2091C123.53 82.7594 123.825 80.2977 123.825 80.2977Z" fill="white"/>
<path d="M140.282 89.2897L137.172 84.3167L124.37 88.8049L125.115 91.758C125.115 91.758 133.325 92.1801 140.282 89.2897Z" fill="#FFAB37"/>
<path d="M137.171 84.3135L124.369 88.8017" stroke="#D86627" stroke-width="1.26953" stroke-miterlimit="10" stroke-linejoin="round"/>
<path d="M137.606 87.907C137.606 87.907 131.885 90.9745 125.085 91.6394" stroke="#D86627" stroke-width="1.26953" stroke-miterlimit="10" stroke-linejoin="round"/>
<path d="M136.09 84.6974L136.593 86.248" stroke="#D86627" stroke-width="1.26953" stroke-miterlimit="10" stroke-linejoin="round"/>
<path d="M130.425 86.7564L130.928 88.3071" stroke="#D86627" stroke-width="1.26953" stroke-miterlimit="10" stroke-linejoin="round"/>
<path d="M128.546 87.3357L129.048 88.8862" stroke="#D86627" stroke-width="1.26953" stroke-miterlimit="10" stroke-linejoin="round"/>
<path d="M126.801 88.003L127.303 89.5537" stroke="#D86627" stroke-width="1.26953" stroke-miterlimit="10" stroke-linejoin="round"/>
<path d="M124.91 88.6173L125.413 90.168" stroke="#D86627" stroke-width="1.26953" stroke-miterlimit="10" stroke-linejoin="round"/>
<path d="M135.125 66.8137C134.964 66.6763 134.797 66.5437 134.627 66.4163C132.933 65.1555 131.29 65.2977 129.159 65.7902C128.64 65.9099 126.456 65.7203 125.314 66.6373C122.886 65.905 121.134 67.6486 120.542 68.9249C119.865 70.3867 119.621 72.2449 120.953 73.9462C121.234 73.239 122.569 70.5338 123.7 69.7269C124.641 70.6061 125.985 72.4309 126.42 73.1572C127.29 74.6109 128.017 76.1485 128.592 77.7406C129.724 80.8767 130.876 85.5352 130.747 88.8726C130.737 89.1398 135.076 87.6097 135.405 87.5126C136.904 87.0692 138.286 86.5082 139.666 85.7316C142.966 83.8743 144.777 81.4836 146.584 78.1885C145.483 77.0814 138.669 72.9353 136.97 69.7544C136.2 68.3358 136.411 67.9065 135.125 66.8137Z" fill="white"/>
<path d="M139.666 85.7295C139.666 85.7295 135.308 79.0561 134.115 76.4262" stroke="#FFEBE6" stroke-width="1.69271" stroke-miterlimit="10"/>
<path d="M134.197 87.9165C134.197 87.9165 132.175 80.7685 130.034 75.1128" stroke="#FFEBE6" stroke-width="1.69271" stroke-miterlimit="10"/>
<path d="M144.823 81.0522C144.823 81.0522 139.566 76.5209 138.28 74.839" stroke="#FFEBE6" stroke-width="1.69271" stroke-miterlimit="10"/>
<path d="M143.02 83.2075C143.02 83.2075 136.919 76.475 135.444 73.5405" stroke="#FFEBE6" stroke-width="1.69271" stroke-miterlimit="10"/>
<path d="M132.521 88.4642C132.521 88.4642 130.994 78.5262 126.893 72.2342" stroke="#FFEBE6" stroke-width="1.69271" stroke-miterlimit="10"/>
<path d="M126.241 65.7508C127.881 63.6362 130.571 62.4327 133.27 62.3112C134.112 62.2733 134.973 62.3361 135.758 62.6392C137.169 63.1834 138.195 64.4717 138.679 65.8864C139.162 67.3019 139.161 68.8369 138.979 70.3194" fill="#E23D3D"/>
<path d="M125.432 66.1034C126.037 65.0657 126.793 63.9242 127.948 63.8069C128.602 63.7408 129.248 64.0283 129.86 64.31C132.895 65.705 135.929 67.1001 138.964 68.4944C139.318 68.6576 139.687 68.8317 139.937 69.1469C140.293 69.5969 140.088 71.865 140.003 72.434C139.76 74.0609 127.932 67.9819 125.815 67.1414C125.592 67.0528 125.338 66.9297 125.275 66.6857C125.223 66.4815 125.329 66.2788 125.432 66.1034Z" fill="#E23D3D"/>
<path d="M127.403 77.7947C127.926 76.9667 128.882 77.0485 129.3 77.2511C130.311 77.7407 130.491 79.0531 130.148 80.1234C129.764 81.3229 128.992 81.6558 128.402 81.6683C127.812 81.6801 127.308 80.9933 127.322 80.0827" fill="#FFA18D"/>
<path d="M128.142 81.0593C128.154 80.957 128.177 80.8938 128.235 80.8093C128.273 80.7564 128.355 80.7243 128.418 80.7387C128.518 80.7619 128.578 80.7932 128.655 80.8614C128.833 81.0191 128.805 81.3169 128.571 81.407C128.338 81.4975 128.117 81.2958 128.142 81.0593Z" fill="#33002C"/>
<path d="M139.08 68.4658C139.08 68.4658 132.348 66.2196 128.398 63.8154" stroke="white" stroke-width="0.846356" stroke-miterlimit="10" stroke-linejoin="round"/>
<path d="M139.154 70.5959L138.96 72.786" stroke="white" stroke-width="0.846356" stroke-miterlimit="10" stroke-linejoin="round"/>
<path d="M137.55 70.3037L137.042 72.199" stroke="white" stroke-width="0.846356" stroke-miterlimit="10" stroke-linejoin="round"/>
<path d="M135.882 69.8162L135.026 71.6872" stroke="white" stroke-width="0.846356" stroke-miterlimit="10" stroke-linejoin="round"/>
<path d="M134.329 69.1237L133.353 71.1967" stroke="white" stroke-width="0.846356" stroke-miterlimit="10" stroke-linejoin="round"/>
<path d="M132.679 68.526L131.702 70.599" stroke="white" stroke-width="0.846356" stroke-miterlimit="10" stroke-linejoin="round"/>
<path d="M131.066 68.0192L130.089 70.0922" stroke="white" stroke-width="0.846356" stroke-miterlimit="10" stroke-linejoin="round"/>
<path d="M129.544 67.3175L128.567 69.3906" stroke="white" stroke-width="0.846356" stroke-miterlimit="10" stroke-linejoin="round"/>
<path d="M127.913 66.4889L126.936 68.5619" stroke="white" stroke-width="0.846356" stroke-miterlimit="10" stroke-linejoin="round"/>
<path d="M126.356 65.8033L125.379 67.8764" stroke="white" stroke-width="0.846356" stroke-miterlimit="10" stroke-linejoin="round"/>
</g>
<rect x="20" y="6.00049" width="56" height="55.9999" rx="27.9297" fill="white"/>
<mask id="mask3" mask-type="alpha" maskUnits="userSpaceOnUse" x="20" y="5" width="56" height="57">
<rect x="20" y="5.99902" width="56" height="55.9999" rx="27.9999" fill="#C4C4C4"/>
</mask>
<g mask="url(#mask3)">
<path d="M38.4454 21.235C34.8341 23.1346 32.5553 27.6058 33.0121 31.8938C33.0448 32.1968 33.0802 32.5372 32.9025 32.7755C32.7827 32.9369 32.5914 33.0125 32.4089 33.0792C30.4637 33.7954 28.4763 34.4082 26.6243 35.3682C24.7724 36.3289 23.0349 37.6777 21.9476 39.5514C21.2531 40.7483 20.8473 42.1209 20.6526 43.5153C20.3707 45.5354 20.6083 47.8197 21.9823 49.2338C22.7755 50.0502 23.8444 50.4709 24.8868 50.8454C27.0077 51.608 29.2225 52.2779 31.4509 52.0635C33.5303 51.8633 35.2923 50.8413 37.2607 50.3314C39.2174 49.8248 41.2403 50.3947 43.2311 50.5363C48.0338 50.8774 52.8768 50.5581 57.6032 49.5804C59.1638 49.257 60.9047 48.7089 61.6223 47.1865C62.1364 46.0951 61.9689 44.5802 61.416 43.5228C61.0484 42.8209 59.4661 41.884 59.5512 41.1235C59.5825 40.8477 59.784 40.6237 59.989 40.4365C60.5541 39.9197 61.222 39.5173 61.7442 38.9577C63.4198 37.1623 62.8193 33.4625 62.2474 31.3498C61.0164 26.8024 58.3358 22.6526 54.5905 20.1497C50.8444 17.6469 46.0287 16.9157 41.8946 18.5695" fill="#E23D3D"/>
<path d="M51.544 44.1216C51.544 44.1216 63.4569 43.613 74.6569 54.5857C80.9868 60.7886 85.3494 68.4617 88.6566 76.7297C91.4927 83.82 100.852 94.8809 100.852 94.8809C100.852 94.8809 91.4741 84.143 82.8061 86.2284C72.2978 88.7571 56.7968 66.9269 56.7968 66.9269" fill="#97B7FF"/>
<path d="M58.8041 50.0979C60.4606 54.2647 62.1178 58.4322 63.7743 62.5991C64.878 65.3749 65.9837 68.1555 66.8198 71.0233C68.7786 77.7413 69.2212 86.5652 69.6528 93.5501C59.6681 94.3535 44.8159 94.4522 33.445 94.0593C33.3565 79.9078 33.8392 68.0391 36.2324 55.956C36.6212 53.9924 37.0637 51.9212 38.4234 50.4533" fill="#3E49E1"/>
<path d="M59.7461 46.0029L51.2517 42.44C51.2517 42.44 38.9439 43.7139 36.4969 46.5626C41.1703 50.1016 42.9725 54.6355 52.4813 53.3337C61.9902 52.0319 59.7461 46.0029 59.7461 46.0029Z" fill="#FF886F"/>
<path d="M45.9081 34.451L44.3701 43.9115C44.3701 43.9115 45.3859 47.501 50.1791 47.501C53.5998 47.501 53.258 44.0824 53.258 44.0824L51.8901 34.451" fill="#FF886F"/>
<path d="M54.0735 21.0068C58.4316 25.3656 61.5077 36.7263 54.629 38.0642C49.159 39.1277 44.5633 35.6628 43.1736 31.2618C41.1229 24.7671 49.7153 16.6486 54.0735 21.0068Z" fill="#FF886F"/>
<path d="M56.1893 26.8651C56.1893 27.2131 55.9075 27.4956 55.5589 27.4956C55.2109 27.4956 54.9291 27.2131 54.9291 26.8651C54.9291 26.5172 55.2109 26.2353 55.5589 26.2353C55.9075 26.2353 56.1893 26.5172 56.1893 26.8651Z" fill="#060A47"/>
<path d="M49.2235 29.3959C49.2235 29.7438 49.5054 30.0264 49.8533 30.0264C50.2019 30.0264 50.4838 29.7438 50.4838 29.3959C50.4838 29.048 50.2019 28.7654 49.8533 28.7654C49.5054 28.7654 49.2235 29.048 49.2235 29.3959Z" fill="#060A47"/>
<path d="M50.6582 27.0101C49.1508 26.6009 47.9709 27.3219 47.3016 28.6537C47.2573 28.7422 47.1341 28.6768 47.1504 28.5903C47.4548 26.9924 49.2808 26.2359 50.7106 26.8201C50.8243 26.8671 50.7842 27.0441 50.6582 27.0101Z" fill="#060A47"/>
<path d="M56.3176 24.7764C55.709 24.4632 54.9981 24.3291 54.3704 24.6804C53.8427 24.9752 53.5956 25.5172 53.3729 26.0503C53.3403 26.1286 53.2361 26.1163 53.2266 26.0306C53.0393 24.3795 55.3216 23.6428 56.4205 24.643C56.4947 24.7104 56.4007 24.8193 56.3176 24.7764Z" fill="#060A47"/>
<path d="M53.2741 27.6792C53.2741 27.6792 55.7109 30.2773 55.4542 30.8703C55.0307 31.8501 53.5676 31.8501 53.5676 31.8501" stroke="#DD513E" stroke-miterlimit="10" stroke-linejoin="round"/>
<path d="M51.2514 33.9996L56.1039 32.7298C56.1039 32.7298 56.7398 35.5744 55.1527 36.0109C52.0719 36.8585 51.2514 33.9996 51.2514 33.9996Z" fill="white"/>
<path d="M36.93 22.643C37.7137 19.5588 39.7154 16.8735 42.8126 16.068C44.2124 15.7044 45.7062 15.6663 47.1354 15.8399C48.3704 15.9904 49.4952 16.5337 50.6853 16.8571C51.8782 17.1819 52.9008 16.595 54.0937 16.6815C56.3882 16.8483 58.7868 18.8003 57.6968 21.2623C57.2181 22.3421 56.2513 23.1332 55.2205 23.7092C52.4848 25.2378 49.2317 25.4808 46.0984 25.5278C46.5818 25.521 46.9066 28.367 46.8862 28.7333C46.829 29.7702 46.3993 30.7282 46.0698 31.7025C45.1677 34.3673 43.9823 36.9376 42.6853 39.4397C42.5852 39.6317 42.4279 39.8544 42.2141 39.8196C42.1038 39.8013 42.018 39.7161 41.9418 39.6351C40.8034 38.4232 39.8625 37.0445 39.1203 35.5582C38.5729 34.4613 37.6728 33.3079 37.331 32.1294C37.1404 31.4717 37.2834 30.8827 37.3086 30.2203C37.3412 29.3426 37.0172 28.7632 36.7761 27.9271C36.2812 26.2093 36.4963 24.3492 36.93 22.643Z" fill="#E23D3D"/>
<path d="M52.4814 38.6125C52.4814 38.6125 49.2835 38.8195 46.7514 36.8294" stroke="#DD513E" stroke-miterlimit="10" stroke-linejoin="round"/>
<path d="M46.3349 31.5054C45.5465 30.8178 44.6818 31.3127 44.3638 31.7131C43.5944 32.6806 43.9002 34.1989 44.6076 35.2297C45.4008 36.3858 46.2423 36.4239 46.7992 36.187C47.3555 35.95 47.5788 34.9812 47.237 33.9858" fill="#FF886F"/>
<path d="M45.5563 35.282C45.6897 35.4317 45.7074 35.476 45.6107 35.4147C45.5726 35.3963 45.5345 35.378 45.4957 35.3609C45.4303 35.3276 45.3649 35.2949 45.305 35.252C45.192 35.1717 45.128 35.0947 45.1096 34.9552C45.0803 34.7352 45.3677 34.6862 45.4998 34.7938C45.3704 34.6883 45.4848 34.74 45.5951 34.7454C45.6591 34.7489 45.7231 34.755 45.7871 34.7625C45.9253 34.7795 46.0894 34.7999 46.1833 34.917C46.5687 35.3997 45.7598 35.8484 45.5563 35.282Z" fill="#00316E"/>
<path d="M41.6327 19.482C43.4676 19.0585 43.4935 16.8852 43.262 15.3907C42.7684 12.2023 40.1137 10.1686 36.9178 10.3796C33.5054 10.605 29.8485 12.8906 30.3755 17.7097C30.8398 21.9508 37.5176 22.859 40.5971 20.425C40.7068 20.3385 40.8136 20.2479 40.9171 20.1553" fill="#E23D3D"/>
<path d="M43.3302 15.9482C43.3302 15.9482 37.9399 17.5789 37.2175 21.6953" stroke="#010101" stroke-width="1.33333" stroke-miterlimit="10"/>
<path d="M42.6231 43.9137C42.6231 43.9137 46.7184 90.2425 40.6397 130.881L6.90542 124.504C6.97419 120.193 13.1502 81.4778 17.9162 71.3576C25.934 54.3342 36.735 45.3401 36.735 45.3401" fill="#97B7FF"/>
<path d="M41.6941 44.0216C41.6941 44.0216 45.3381 99.4629 38.4274 133.335" stroke="#29298B" stroke-miterlimit="10"/>
<path d="M55.2587 44.122C55.2587 44.122 61.7459 77.1646 65.1502 130.994C73.569 129.351 85.4056 122.07 85.4056 122.07C85.4056 122.07 77.8597 73.1646 66.3417 52.6381C65.2775 50.742 65.0508 48.2875 63.732 47.019C63.732 47.019 58.5391 44.824 55.2587 44.122Z" fill="#97B7FF"/>
<path d="M78.027 85.9453C78.027 85.9453 72.7926 62.4136 67.5575 54.9412" stroke="#29298B" stroke-miterlimit="10" stroke-linejoin="round"/>
<path d="M37.5758 61.6742C37.5758 61.6742 25.8311 76.8232 23.1076 81.5892C22.0326 83.4704 24.6396 94.6957 24.6396 94.6957L5.57562 103.887C5.57562 103.887 3.87349 101.334 2.17134 91.4616C0.469208 81.5892 8.41138 65.8138 17.6608 56.9082C29.3524 45.6516 40.6962 44.437 40.6962 44.437" fill="#97B7FF"/>
</g>
<rect x="147" y="6" width="24.4459" height="17.9109" rx="1.49669" fill="#FDA395"/>
<path fill-rule="evenodd" clip-rule="evenodd" d="M159.223 23.9106H148.259C147.807 23.9106 147.588 23.3579 147.917 23.0483L158.881 12.7353C159.073 12.5546 159.373 12.5546 159.565 12.7353L170.529 23.0483C170.858 23.3579 170.639 23.9106 170.187 23.9106H159.223Z" fill="#FDB3A6"/>
<path fill-rule="evenodd" clip-rule="evenodd" d="M159.223 6H148.259C147.807 6 147.588 6.5527 147.917 6.8623L158.881 17.1753C159.073 17.356 159.373 17.356 159.565 17.1753L170.529 6.8623C170.858 6.5527 170.639 6 170.187 6H159.223Z" fill="#FDB3A6"/>
<path fill-rule="evenodd" clip-rule="evenodd" d="M160.243 16.5465C159.668 17.0818 158.778 17.0818 158.203 16.5465L148.996 7.9707L158.266 15.6806C158.821 16.1419 159.625 16.1419 160.18 15.6806L169.45 7.9707L160.243 16.5465Z" fill="#FFF5F3"/>
<rect x="147" y="60" width="24" height="17.5842" rx="1.46939" fill="#FDA395"/>
<path fill-rule="evenodd" clip-rule="evenodd" d="M159 77.5845H148.236C147.792 77.5845 147.577 77.0418 147.9 76.7379L158.664 66.613C158.853 66.4356 159.147 66.4356 159.336 66.613L170.1 76.7379C170.423 77.0418 170.208 77.5845 169.764 77.5845H159Z" fill="#FDB3A6"/>
<path fill-rule="evenodd" clip-rule="evenodd" d="M159 60H148.236C147.792 60 147.577 60.5426 147.9 60.8466L158.664 70.9715C158.853 71.1488 159.147 71.1488 159.336 70.9715L170.1 60.8466C170.423 60.5426 170.208 60 169.764 60H159Z" fill="#FDB3A6"/>
<path fill-rule="evenodd" clip-rule="evenodd" d="M160.002 70.3549C159.437 70.8804 158.563 70.8804 157.999 70.3549L148.959 61.9355L158.06 69.5048C158.605 69.9577 159.395 69.9577 159.94 69.5048L169.041 61.9355L160.002 70.3549Z" fill="#FFF5F3"/>
<rect x="67" y="13.4058" width="33" height="24.1782" rx="1.46939" fill="#FDA395"/>
<path fill-rule="evenodd" clip-rule="evenodd" d="M83.5 37.5845H68.2356C67.792 37.5845 67.5769 37.0419 67.9 36.7379L83.1644 22.3803C83.353 22.2029 83.647 22.2029 83.8356 22.3803L99.1 36.7379C99.4231 37.0419 99.208 37.5845 98.7644 37.5845H83.5Z" fill="#FDB3A6"/>
<path fill-rule="evenodd" clip-rule="evenodd" d="M83.5 13.4058H68.2356C67.792 13.4058 67.5769 13.9484 67.9 14.2523L83.1644 28.6099C83.353 28.7873 83.647 28.7873 83.8356 28.6099L99.1 14.2523C99.4231 13.9484 99.208 13.4058 98.7644 13.4058H83.5Z" fill="#FDB3A6"/>
<path fill-rule="evenodd" clip-rule="evenodd" d="M84.5016 27.9937C83.9373 28.5193 83.0628 28.5193 82.4986 27.9937L69.694 16.0674L82.5605 26.7682C83.105 27.221 83.8951 27.221 84.4397 26.7682L97.3062 16.0674L84.5016 27.9937Z" fill="#FFF5F3"/>
<rect x="63" y="77" width="24.2972" height="17.8019" rx="1.48758" fill="#FDA395"/>
<path fill-rule="evenodd" clip-rule="evenodd" d="M75.1486 94.8018H64.2509C63.8018 94.8018 63.584 94.2524 63.9112 93.9447L74.8089 83.6944C74.9998 83.5149 75.2974 83.5149 75.4883 83.6944L86.386 93.9447C86.7132 94.2524 86.4954 94.8018 86.0463 94.8018H75.1486Z" fill="#FDB3A6"/>
<path fill-rule="evenodd" clip-rule="evenodd" d="M75.1486 77H64.2509C63.8018 77 63.584 77.5493 63.9112 77.8571L74.8089 88.1073C74.9998 88.2869 75.2974 88.2869 75.4883 88.1073L86.386 77.8571C86.7132 77.5493 86.4954 77 86.0463 77H75.1486Z" fill="#FDB3A6"/>
<path fill-rule="evenodd" clip-rule="evenodd" d="M76.1624 87.4821C75.5912 88.0141 74.7059 88.0141 74.1347 87.4821L64.9834 78.9585L74.1973 86.6215C74.7486 87.08 75.5485 87.08 76.0998 86.6215L85.3137 78.9585L76.1624 87.4821Z" fill="#FFF5F3"/>
</g>
</svg>
