<svg width="184" height="117" viewBox="0 0 184 117" fill="none" xmlns="http://www.w3.org/2000/svg">
<mask id="mask0" mask-type="alpha" maskUnits="userSpaceOnUse" x="0" y="0" width="184" height="117">
<path d="M0.907227 111.429C0.907227 114.506 3.40164 117 6.47865 117H177.521C180.598 117 183.093 114.506 183.093 111.429V5.57153C183.093 2.49452 180.598 0.000114441 177.521 0.000114441H6.47865C3.40164 0.000114441 0.907227 2.49452 0.907227 5.57153V111.429Z" fill="#FFDCD6"/>
</mask>
<g mask="url(#mask0)">
<path d="M110.544 65.9615C110.443 65.9615 110.364 66.0358 110.351 66.1418L110 68.6998L110.351 71.2137C110.364 71.3197 110.443 71.3935 110.544 71.3935C110.641 71.3935 110.72 71.3202 110.735 71.2147L111.151 68.6997L110.735 66.1413C110.72 66.0358 110.64 65.9615 110.544 65.9615ZM112.518 64.5639C112.501 64.454 112.419 64.3782 112.318 64.3782C112.216 64.3782 112.132 64.4564 112.118 64.5639L111.646 68.6998L112.118 72.7441C112.131 72.8525 112.216 72.9308 112.318 72.9308C112.418 72.9308 112.501 72.8545 112.517 72.7451L113.054 68.6998L112.518 64.5639ZM119.953 60.7489C119.76 60.7489 119.599 60.9009 119.59 61.0941L119.214 68.7032L119.59 73.6207C119.6 73.8128 119.76 73.9644 119.953 73.9644C120.146 73.9644 120.305 73.8123 120.317 73.6197V73.6212L120.741 68.7032L120.317 61.0941C120.305 60.9009 120.146 60.7489 119.953 60.7489ZM116.105 63.3936C115.956 63.3936 115.835 63.5075 115.823 63.6595L115.4 68.7012L115.823 73.579C115.834 73.7301 115.956 73.844 116.105 73.844C116.252 73.844 116.373 73.7301 116.386 73.579L116.867 68.7012L116.386 63.6585C116.373 63.5075 116.252 63.3936 116.105 63.3936ZM123.864 73.9639C124.104 73.9639 124.299 73.7781 124.309 73.5404L124.678 68.7057L124.309 58.5752C124.3 58.3374 124.104 58.1517 123.864 58.1517C123.622 58.1517 123.427 58.338 123.419 58.5757L123.092 68.7052L123.419 73.5419C123.427 73.7777 123.622 73.9639 123.864 73.9639ZM131.87 73.9867C132.201 73.9867 132.473 73.7257 132.479 73.4048L132.737 68.7087L132.479 57.0087C132.474 56.6883 132.201 56.4268 131.87 56.4268C131.539 56.4268 131.266 56.6878 131.261 57.0092L131.031 68.7047C131.031 68.7122 131.261 73.4077 131.261 73.4077C131.266 73.7256 131.54 73.9867 131.87 73.9867ZM127.837 73.9684C128.124 73.9684 128.356 73.747 128.364 73.4647V73.4681L128.677 68.7067L128.363 58.5029C128.355 58.2206 128.124 57.9997 127.836 57.9997C127.547 57.9997 127.315 58.2206 127.309 58.5029L127.03 68.7072L127.309 73.4677C127.315 73.747 127.547 73.9684 127.837 73.9684ZM118.021 73.9238C118.192 73.9238 118.331 73.7925 118.344 73.6197L118.797 68.7013L118.344 64.0226C118.331 63.8497 118.193 63.7195 118.021 63.7195C117.848 63.7195 117.71 63.8507 117.699 64.0246L117.3 68.7013L117.699 73.6192C117.71 73.7925 117.848 73.9238 118.021 73.9238ZM114.204 73.6544C114.328 73.6544 114.43 73.5598 114.444 73.429L114.953 68.7003L114.445 63.7933C114.43 63.662 114.328 63.5674 114.204 63.5674C114.077 63.5674 113.976 63.6625 113.963 63.7933L113.515 68.7003L113.963 73.428C113.975 73.5592 114.077 73.6544 114.204 73.6544ZM129.846 58.333C129.534 58.333 129.283 58.5713 129.277 58.8763L129.023 68.7077L129.277 73.4384C129.283 73.7395 129.533 73.9778 129.846 73.9778C130.158 73.9778 130.406 73.74 130.414 73.4349V73.4389L130.699 68.7082L130.414 58.8753C130.406 58.5713 130.158 58.333 129.846 58.333ZM121.901 73.9738C122.117 73.9738 122.295 73.8049 122.305 73.5894L122.702 68.7047L122.305 59.3552C122.295 59.1393 122.117 58.9709 121.901 58.9709C121.683 58.9709 121.506 59.1398 121.497 59.3552L121.146 68.7047L121.497 73.5914C121.506 73.8049 121.683 73.9738 121.901 73.9738ZM126.328 73.5102L126.669 68.7062L126.328 58.2345C126.32 57.9745 126.106 57.7704 125.843 57.7704C125.577 57.7704 125.363 57.974 125.356 58.2345L125.054 68.7057L125.357 73.5122C125.364 73.7697 125.578 73.9732 125.843 73.9732C126.107 73.9732 126.319 73.7692 126.328 73.5102ZM152.097 62.67C151.288 62.67 150.516 62.827 149.813 63.1098C149.343 58.0047 144.881 54 139.438 54C138.106 54 136.808 54.2516 135.661 54.677C135.216 54.8424 135.097 55.0128 135.093 55.3431V73.321C135.098 73.6677 135.378 73.9564 135.731 73.9906C135.746 73.9921 151.991 74 152.096 74C155.356 74 158 71.4638 158 68.3353C158 65.2067 155.357 62.67 152.097 62.67ZM133.886 55.3273C133.531 55.3273 133.24 55.6066 133.235 55.9498L132.969 68.7102L133.236 73.3413C133.24 73.6796 133.532 73.9584 133.886 73.9584C134.24 73.9584 134.531 73.6796 134.536 73.3364V73.3418L134.826 68.7102L134.536 55.9489C134.531 55.6066 134.24 55.3273 133.886 55.3273Z" fill="#FF4300"/>
<path d="M103.661 16H90.3392C87.3904 16 85 18.3904 85 21.3392V34.6608C85 37.6096 87.3904 40 90.3392 40H103.661C106.61 40 109 37.6096 109 34.6608V21.3392C109 18.3904 106.61 16 103.661 16Z" fill="url(#paint0_linear)"/>
<path d="M96.2668 37.0111C95.5508 36.7551 95.3972 36.4071 95.1036 34.3679C94.762 31.9975 94.6876 30.5303 94.8852 30.0655C95.1476 29.4495 95.8596 29.0999 96.8556 29.0959C97.8436 29.0919 98.562 29.4447 98.826 30.0655C99.0244 30.5295 98.95 31.9975 98.6084 34.3679C98.3764 36.0239 98.2484 36.4423 97.9284 36.7239C97.4884 37.1135 96.8644 37.2215 96.2724 37.0119L96.2668 37.0111ZM93.2084 34.5791C90.7364 33.3631 89.1524 31.3055 88.5764 28.5679C88.4324 27.8615 88.4084 26.1759 88.5444 25.5279C88.9044 23.7879 89.5924 22.4271 90.7364 21.2239C92.3844 19.4863 94.5044 18.5679 96.8644 18.5679C99.2004 18.5679 101.312 19.4695 102.92 21.1551C104.144 22.4271 104.832 23.7735 105.184 25.5471C105.304 26.1375 105.304 27.7471 105.192 28.4111C104.824 30.5103 103.656 32.4223 101.952 33.7071C101.344 34.1663 99.8564 34.9679 99.6164 34.9679C99.5284 34.9679 99.5204 34.8767 99.5604 34.5079C99.6324 33.9159 99.7044 33.7927 100.04 33.6519C100.576 33.4279 101.488 32.7783 102.048 32.2167C103.016 31.2567 103.728 30.0007 104.056 28.6807C104.264 27.8567 104.24 26.0247 104.008 25.1767C103.28 22.4807 101.08 20.3847 98.3844 19.8247C97.6004 19.6647 96.1764 19.6647 95.3844 19.8247C92.6564 20.3847 90.4004 22.5847 89.7124 25.3527C89.5284 26.1047 89.5284 27.9367 89.7124 28.6887C90.1684 30.5207 91.3524 32.2007 92.9044 33.2007C93.2084 33.4007 93.5764 33.6087 93.7284 33.6727C94.0644 33.8167 94.1364 33.9367 94.2004 34.5287C94.2404 34.8887 94.2324 34.9927 94.1444 34.9927C94.0884 34.9927 93.6804 34.8167 93.2484 34.6087L93.2084 34.5791ZM93.2404 31.3247C92.4084 30.6607 91.6724 29.4831 91.3684 28.3279C91.1844 27.6303 91.1844 26.3039 91.3764 25.6079C91.8804 23.7295 93.2644 22.2735 95.1844 21.5895C95.8404 21.3575 97.2964 21.3055 98.1044 21.4839C100.888 22.1039 102.864 24.8919 102.48 27.6575C102.328 28.7719 101.944 29.6871 101.264 30.5375C100.928 30.9671 100.112 31.6879 99.9684 31.6879C99.9444 31.6879 99.9204 31.4159 99.9204 31.0847V30.4799L100.336 29.9839C101.904 28.1055 101.792 25.4815 100.08 23.7599C99.4164 23.0895 98.6484 22.6959 97.6564 22.5143C97.0164 22.3959 96.8804 22.3959 96.2084 22.5063C95.1884 22.6727 94.398 23.0679 93.6964 23.7623C91.9764 25.4663 91.8644 28.1039 93.4324 29.9839L93.8452 30.4799V31.0879C93.8452 31.4239 93.8188 31.6959 93.786 31.6959C93.754 31.6959 93.522 31.5359 93.274 31.3359L93.2404 31.3247ZM96.0164 28.0583C95.3044 27.7271 94.9204 27.1023 94.9124 26.2879C94.9124 25.5559 95.3204 24.9175 96.0244 24.5439C96.4724 24.3087 97.2644 24.3087 97.7124 24.5455C98.2004 24.7991 98.6004 25.2911 98.7524 25.8047C99.2164 27.3823 97.5444 28.7647 96.0324 28.0583H96.0164Z" fill="white"/>
<path d="M96.9912 28.3688C98.0931 28.3688 98.9864 27.4755 98.9864 26.3736C98.9864 25.2717 98.0931 24.3784 96.9912 24.3784C95.8893 24.3784 94.996 25.2717 94.996 26.3736C94.996 27.4755 95.8893 28.3688 96.9912 28.3688Z" fill="white"/>
<path d="M97.1826 29.1416C97.321 29.16 97.5962 29.196 97.8506 29.2776C98.1066 29.3576 98.3386 29.4832 98.5194 29.612C98.6954 29.74 98.8234 29.8728 98.9034 30.0344C98.9834 30.196 99.0234 30.388 99.0474 30.7024C99.0634 31.0176 99.0634 31.4544 98.9914 32.2704C98.9194 33.084 98.7754 34.2768 98.6634 35.0408C98.5514 35.8088 98.4714 36.1448 98.3674 36.3928C98.2634 36.6488 98.1274 36.8168 97.9754 36.9368C97.8234 37.0568 97.6474 37.1288 97.4794 37.1688C97.3114 37.2088 97.1594 37.2088 97.0154 37.2088C96.8714 37.2088 96.7354 37.2088 96.5514 37.1688C96.3674 37.1288 96.1274 37.0568 95.9514 36.9128C95.7674 36.7688 95.6474 36.5608 95.5514 36.2888C95.4554 36.0168 95.3834 35.6888 95.2874 35.0328C95.1914 34.3768 95.0634 33.4008 94.9834 32.6568C94.9034 31.9128 94.8714 31.4008 94.865 31.0568C94.857 30.7128 94.873 30.5424 94.913 30.3768C94.953 30.2168 95.017 30.0648 95.105 29.9368C95.193 29.8088 95.3082 29.6968 95.425 29.6088C95.5394 29.5208 95.657 29.4568 95.7978 29.4072C95.937 29.3512 96.1042 29.3032 96.3098 29.2632C96.5178 29.2232 96.7578 29.1832 96.881 29.1672C97.0042 29.1488 97.0042 29.1488 97.1418 29.1672L97.1826 29.1416Z" fill="white"/>
<path d="M24.5192 98.8559C24.4224 98.8603 24.3275 98.8291 24.2537 98.7679C24.1907 98.6945 24.1614 98.599 24.1727 98.5039V89.5279C24.1614 89.4329 24.1907 89.3374 24.2537 89.2639C24.3284 89.2085 24.4211 89.1821 24.5147 89.1891H25.5137C25.7027 89.1707 25.8728 89.3005 25.9007 89.4839L25.9997 89.8359C26.2872 89.5645 26.627 89.3506 26.9987 89.2067C27.3789 89.0563 27.7852 88.9784 28.1956 88.9779C29.0137 88.9515 29.7958 89.3075 30.3017 89.9371C30.8587 90.6878 31.1355 91.6025 31.0847 92.5287C31.0999 93.2011 30.9681 93.8685 30.6976 94.4867C30.4745 95.0015 30.1118 95.4473 29.6491 95.7759C29.2018 96.0743 28.6695 96.2283 28.1281 96.2159C27.7605 96.2177 27.3951 96.1583 27.0482 96.0399C26.7291 95.9352 26.4344 95.7707 26.1797 95.5559V98.5127C26.1896 98.6069 26.1626 98.7015 26.1032 98.7767C26.0262 98.8348 25.9295 98.8612 25.8332 98.8515L24.5192 98.8559ZM27.5477 94.7375C27.9923 94.7688 28.4225 94.5743 28.6862 94.2227C28.9665 93.7308 29.0934 93.1694 29.0507 92.6079C29.0939 92.0412 28.9688 91.4745 28.6906 90.9755C28.4261 90.6205 27.9914 90.4255 27.5432 90.4607C27.0675 90.4612 26.6013 90.587 26.1932 90.8259V94.3679C26.5982 94.6143 27.0662 94.7437 27.5432 94.7419L27.5477 94.7375Z" fill="#00A8E1"/>
<path d="M32.7954 96.0751C32.6343 96.1046 32.4791 96.0008 32.4489 95.8428C32.4422 95.8076 32.4422 95.7715 32.4489 95.7363V89.5279C32.4377 89.4329 32.4669 89.3374 32.5299 89.2639C32.6046 89.2085 32.6973 89.1821 32.7909 89.1891H33.7854C33.9744 89.1706 34.1445 89.3004 34.1724 89.4839L34.3524 90.2055C34.6481 89.8672 35.0013 89.5812 35.3964 89.3607C35.7186 89.1957 36.0768 89.1099 36.4404 89.1099H36.6339C36.7316 89.1016 36.8292 89.128 36.9084 89.1847C36.9714 89.2582 37.0007 89.3537 36.9894 89.4487V90.5839C36.9971 90.6754 36.9701 90.7661 36.9129 90.8391C36.8378 90.9007 36.7401 90.9293 36.6429 90.9183H36.3954C36.2933 90.9183 36.1646 90.9183 36.0084 90.9183C35.7483 90.9236 35.4891 90.9531 35.2344 91.0063C34.9689 91.0543 34.7097 91.1295 34.4604 91.2307V95.7407C34.4676 95.8322 34.4406 95.9229 34.3839 95.9959C34.3088 96.0575 34.2111 96.0861 34.1139 96.0751H32.7954Z" fill="#00A8E1"/>
<path d="M38.9829 88.1154C38.676 88.1304 38.3749 88.0296 38.1414 87.8338C37.9245 87.6354 37.8079 87.3538 37.8219 87.0638C37.8066 86.7721 37.9231 86.4887 38.1414 86.2894C38.6346 85.9035 39.3357 85.9035 39.8289 86.2894C40.0458 86.4879 40.1623 86.7695 40.1484 87.0594C40.1623 87.3494 40.0458 87.631 39.8289 87.8294C39.5949 88.0279 39.292 88.1304 38.9829 88.1154ZM38.3214 96.0794C38.1603 96.1089 38.005 96.0051 37.9749 95.8471C37.9681 95.8119 37.9681 95.7758 37.9749 95.7406V89.5278C37.9636 89.4328 37.9929 89.3373 38.0559 89.2638C38.1306 89.2084 38.2233 89.182 38.3169 89.189H39.6444C39.7407 89.1793 39.8374 89.2057 39.9144 89.2638C39.9738 89.3391 40.0008 89.4337 39.9909 89.5278V95.7406C39.9985 95.8321 39.9715 95.9228 39.9144 95.9958C39.8392 96.0574 39.7416 96.086 39.6444 96.075L38.3214 96.0794Z" fill="#00A8E1"/>
<path d="M42.0471 96.075C41.886 96.1045 41.7308 96.0007 41.7006 95.8427C41.6939 95.8075 41.6939 95.7714 41.7006 95.7362V89.5278C41.6894 89.4328 41.7186 89.3373 41.7816 89.2638C41.8563 89.2084 41.949 89.182 42.0426 89.189H43.0371C43.2261 89.1706 43.3962 89.3004 43.4241 89.4838L43.5366 89.849C43.9461 89.5732 44.3889 89.3488 44.8551 89.1802C45.2399 89.0491 45.6444 88.9809 46.0521 88.9778C46.7613 88.9184 47.4426 89.2603 47.8071 89.8578C48.218 89.5815 48.6644 89.3598 49.1346 89.1978C49.5495 89.0628 49.9842 88.9946 50.4216 88.9954C50.9742 88.9629 51.516 89.1538 51.9201 89.5234C52.2927 89.923 52.4844 90.4532 52.4511 90.993V95.7406C52.4583 95.8322 52.4313 95.9228 52.3746 95.9958C52.2995 96.0574 52.2018 96.086 52.1046 96.075H50.7951C50.634 96.1045 50.4788 96.0007 50.4486 95.8427C50.4419 95.8075 50.4419 95.7714 50.4486 95.7362V91.4066C50.4486 90.7937 50.1683 90.487 49.6071 90.487C49.0842 90.4928 48.569 90.6133 48.0996 90.839V95.7406C48.1073 95.8322 48.0803 95.9228 48.0231 95.9958C47.948 96.0574 47.8503 96.086 47.7531 96.075H46.4301C46.269 96.1045 46.1138 96.0007 46.0836 95.8427C46.0769 95.8075 46.0769 95.7714 46.0836 95.7362V91.4066C46.0836 90.7937 45.8033 90.487 45.2421 90.487C44.7129 90.4901 44.1918 90.6155 43.7211 90.8522V95.7362C43.7283 95.8278 43.7013 95.9184 43.6446 95.9914C43.5695 96.053 43.4718 96.0816 43.3746 96.0706L42.0471 96.075Z" fill="#00A8E1"/>
<path d="M57.2661 96.2775C56.2963 96.3396 55.3437 96.0069 54.6336 95.3579C53.9842 94.6311 53.6598 93.6802 53.7336 92.7179C53.6688 91.7205 53.9973 90.7362 54.6516 89.9679C55.3333 89.2798 56.2878 88.915 57.2661 88.9691C57.9897 88.9269 58.7043 89.1429 59.2776 89.5763C59.7627 89.9811 60.03 90.5817 60.0021 91.2043C60.0349 91.8137 59.7375 92.3954 59.2191 92.7355C58.5211 93.1254 57.7215 93.3058 56.9196 93.2547C56.4651 93.26 56.0115 93.2099 55.5696 93.1051C55.5723 93.5918 55.773 94.0573 56.1276 94.3987C56.5474 94.69 57.0586 94.8286 57.5721 94.7903C57.8232 94.7903 58.0743 94.7741 58.3236 94.7419C58.6665 94.69 59.0058 94.6192 59.3406 94.5307H59.4216H59.4891C59.6452 94.5307 59.7231 94.635 59.7231 94.8431V95.4635C59.7316 95.5687 59.71 95.6739 59.6601 95.7671C59.5962 95.8406 59.5116 95.8939 59.4171 95.9211C58.7286 96.1689 57.9996 96.2899 57.2661 96.2775ZM56.8161 92.0403C57.1702 92.0654 57.5244 91.9924 57.8376 91.8291C58.0527 91.6853 58.1742 91.4411 58.1571 91.1867C58.1571 90.6205 57.8119 90.3375 57.1221 90.3375C56.2369 90.3375 55.7257 90.8686 55.5876 91.9303C55.9894 92.0056 56.398 92.0425 56.8071 92.0403H56.8161Z" fill="#00A8E1"/>
<path d="M56.5415 103.656C52.5995 106.499 46.8845 108.008 41.966 108.008C35.3933 108.042 29.0438 105.678 24.1595 101.377C23.7905 101.051 24.119 100.607 24.5645 100.858C29.9906 103.887 36.1317 105.478 42.38 105.473C47.0424 105.449 51.6545 104.527 55.952 102.759C56.636 102.481 57.194 103.168 56.5415 103.656Z" fill="#00A8E1"/>
<path d="M58.2018 101.848C57.6978 101.219 54.8717 101.549 53.5982 101.698C53.2112 101.742 53.1482 101.417 53.4992 101.179C55.7493 99.6302 59.4528 100.079 59.8803 100.598C60.3078 101.117 59.7678 104.739 57.6303 106.468C57.3063 106.732 56.9958 106.591 57.1398 106.239C57.6213 105.055 58.6878 102.459 58.2018 101.848Z" fill="#00A8E1"/>
<path d="M152.949 20V22.7765H148.204V20H152.949Z" fill="#40AB5D"/>
<path d="M152.949 23.8486V26.6252H148.204V23.8486H152.949Z" fill="url(#paint1_linear)"/>
<path d="M152.949 27.6992V30.4757H148.204V27.6992H152.949Z" fill="url(#paint2_linear)"/>
<path d="M135.745 31.5493V34.3258H131V31.5493H135.745Z" fill="url(#paint3_linear)"/>
<path d="M141.477 31.5493V34.3258H136.73V31.5493H141.477Z" fill="url(#paint4_linear)"/>
<path d="M147.218 31.5493V34.3258H142.471V31.5493H147.218Z" fill="url(#paint5_linear)"/>
<path d="M152.949 31.5493V34.3258H148.204V31.5493H152.949Z" fill="url(#paint6_linear)"/>
<path d="M147.218 27.6992V30.4757H142.471V27.6992H147.218Z" fill="url(#paint7_linear)"/>
<path d="M141.477 27.6992V30.4757H136.73V27.6992H141.477Z" fill="url(#paint8_linear)"/>
<path d="M141.477 23.8486V26.6252H136.73V23.8486H141.477Z" fill="url(#paint9_linear)"/>
<g clip-path="url(#clip0)">
<path d="M37.3743 67.4744C37.3535 66.2815 37.903 65.3529 39.0218 64.6882C38.3908 63.828 37.4604 63.3445 36.2299 63.2364C35.7922 63.1979 35.2327 63.2949 34.552 63.5299C33.8198 63.7844 33.4076 63.9109 33.3162 63.9109C33.1229 63.9109 32.7518 63.8039 32.2018 63.5883C31.6531 63.3733 31.1849 63.2658 30.7984 63.2658C30.1476 63.2757 29.5421 63.4443 28.9829 63.7716C28.4235 64.0993 27.9762 64.5468 27.6408 65.1132C27.2131 65.8174 27 66.6582 27 67.6355C27 68.5152 27.1572 69.3948 27.4724 70.2751C27.7673 71.1159 28.1442 71.8539 28.6013 72.4887C29.0077 73.0656 29.365 73.4859 29.6692 73.7502C30.1071 74.1606 30.554 74.3565 31.0123 74.3365C31.307 74.3264 31.6932 74.2239 32.1713 74.0279C32.6184 73.8431 33.0663 73.75 33.514 73.75C33.9309 73.75 34.3627 73.8425 34.8108 74.0279C35.3089 74.2239 35.7161 74.3215 36.0312 74.3215C36.4992 74.3023 36.9363 74.1115 37.3437 73.7502C37.4854 73.6324 37.6408 73.4713 37.8084 73.266C38.0019 73.0269 38.1877 72.7824 38.3656 72.5329C38.5138 72.3177 38.6538 72.0976 38.7852 71.8731C38.9262 71.6313 39.0511 71.3815 39.1589 71.1251C39.2093 71.0176 39.255 70.9078 39.2961 70.7954C39.3366 70.683 39.3773 70.5685 39.418 70.451C39.0417 70.295 38.7008 70.0741 38.3959 69.7905C37.7254 69.1658 37.3846 68.3932 37.3743 67.4744ZM48.437 70.0884H48.363L45.2648 63.4502H42.8318V74.1606H44.9522V67.224H45.0506L47.6398 72.7321H49.1269L51.7078 67.224H51.8067V74.1606H53.9516V63.4502H51.5352L48.437 70.0884ZM35.4516 62.049C35.9909 61.4134 36.2606 60.7292 36.2606 59.9959V59.8494C36.2606 59.8002 36.2554 59.7515 36.2454 59.7026C35.8688 59.7222 35.4699 59.8348 35.0474 60.0397C34.6256 60.2453 34.2773 60.5047 34.0022 60.817C33.4533 61.4333 33.1784 62.0928 33.1784 62.7968V62.9357C33.1784 62.98 33.1836 63.0263 33.1937 63.0755C34.0381 63.1535 34.7908 62.8112 35.4516 62.049ZM78.7342 63.4502H81.1175V74.1608H78.7342V63.4502ZM88.3156 65.1527C89.7291 65.1527 90.4765 66.1728 90.4765 67.2714H92.7619V67.0437C92.7619 64.9724 91.077 63.2464 88.2989 63.2464C85.3236 63.2464 83.5486 65.0824 83.5486 68.2133V69.4218C83.5486 72.5519 85.3072 74.3651 88.2905 74.3651C91.1425 74.3651 92.7619 72.6147 92.7619 70.6691V70.4337H90.4767C90.4767 71.5405 89.7455 72.4584 88.3324 72.4584C86.8855 72.4584 85.9648 71.4932 85.9648 69.4292V68.2216C85.9648 66.1648 86.8939 65.1527 88.3156 65.1527ZM63.0668 70.2136C63.0668 71.65 62.171 72.4421 60.8562 72.4421C59.5329 72.4421 58.6373 71.6575 58.6373 70.2136V63.4502H56.2701V70.5275C56.2701 72.8115 57.9957 74.3649 60.8558 74.3649C63.7078 74.3649 65.4417 72.8115 65.4417 70.5275V63.4502H63.0668V70.2136ZM73.3269 67.9227L71.6259 67.5622C70.6234 67.3654 70.0973 66.9497 70.0973 66.3296C70.0973 65.5061 70.8121 64.988 71.9633 64.988C73.2617 64.988 73.9109 65.6863 73.9683 66.4398H76.1873C76.1627 64.5485 74.4781 63.2304 71.9711 63.2304C69.5963 63.2304 67.7223 64.3998 67.7223 66.5026C67.7223 68.3229 69.0375 69.1698 70.6154 69.4923L72.2999 69.8608C73.4341 70.104 74.0094 70.4574 74.0094 71.1866C74.0094 72.019 73.3024 72.584 71.9796 72.584C70.5577 72.584 69.8096 71.8776 69.7443 71.0849H67.4592C67.4927 72.5994 68.5609 74.3649 71.8649 74.3649C74.6425 74.3649 76.3605 73.0703 76.3605 70.9667C76.3597 69.0207 74.9707 68.2596 73.3269 67.9227Z" fill="#231F20"/>
</g>
<path fill-rule="evenodd" clip-rule="evenodd" d="M110 96.5C110 102.851 115.149 108 121.5 108C127.851 108 133 102.851 133 96.5C133 90.1487 127.851 85 121.5 85C115.149 85 110 90.1487 110 96.5ZM122.504 94.0183C122.932 94.4475 123.361 94.8769 123.795 95.3015C124.016 95.0858 124.234 94.8668 124.452 94.6478C124.604 94.4944 124.757 94.341 124.911 94.1886C125.045 94.0527 125.181 93.9181 125.317 93.7836L125.317 93.7835L125.317 93.7834C125.561 93.5412 125.804 93.2993 126.042 93.05H126.071C126.161 93.1587 126.262 93.2573 126.363 93.3559C126.42 93.4122 126.478 93.4686 126.533 93.5268L127.114 94.1076L128.259 95.2526C128.267 95.2616 128.277 95.2704 128.286 95.2793C128.311 95.3021 128.337 95.3261 128.344 95.3593C127.971 95.7226 127.603 96.0925 127.235 96.4626H127.235V96.4627L127.235 96.4627H127.235C126.843 96.8576 126.45 97.2527 126.049 97.6402L123.861 95.4519C123.85 95.4401 123.839 95.4293 123.827 95.4185C123.815 95.4078 123.804 95.3972 123.794 95.3859C123.784 95.3963 123.773 95.4061 123.763 95.4159H123.763C123.755 95.4231 123.747 95.4303 123.74 95.4376C123.374 95.8023 123.008 96.1678 122.642 96.5334C122.273 96.9026 121.904 97.2719 121.534 97.6402C121.192 97.3034 120.853 96.9637 120.515 96.6241C120.091 96.1995 119.668 95.7749 119.239 95.3558C119.633 94.9445 120.038 94.5411 120.444 94.1379L120.444 94.1378C120.806 93.777 121.169 93.4163 121.523 93.05H121.552C121.573 93.082 121.594 93.1105 121.623 93.139C121.918 93.4309 122.211 93.7246 122.504 94.0183ZM115.615 94.3208L115.615 94.3209C115.333 94.6024 115.051 94.8839 114.771 95.1672C114.753 95.1865 114.733 95.2047 114.713 95.223H114.713C114.67 95.262 114.627 95.3014 114.6 95.3523C114.983 95.733 115.364 96.1146 115.746 96.4963C116.127 96.8779 116.509 97.2595 116.892 97.6402C117.274 97.26 117.655 96.878 118.036 96.496L118.036 96.4956C118.415 96.1162 118.793 95.7369 119.172 95.3593V95.3309L117.6 93.7581C117.516 93.6722 117.431 93.5886 117.346 93.5052C117.195 93.357 117.045 93.2093 116.906 93.05H116.877C116.461 93.4769 116.038 93.8987 115.615 94.3208ZM119.249 99.9696C119.253 99.9606 119.256 99.9517 119.26 99.9446C119.51 99.6946 119.761 99.4444 120.011 99.1942C120.513 98.6932 121.015 98.1917 121.516 97.6887L121.548 97.7029L121.548 97.703C122.302 98.4609 123.057 99.2188 123.818 99.9696C123.802 100.007 123.774 100.033 123.745 100.06C123.73 100.074 123.714 100.089 123.701 100.105C123.428 100.376 123.156 100.648 122.883 100.921C122.608 101.196 122.332 101.472 122.057 101.745C121.986 101.814 121.915 101.885 121.845 101.957C121.74 102.065 121.635 102.172 121.527 102.268C121.375 102.131 121.231 101.985 121.087 101.838C120.984 101.734 120.881 101.629 120.776 101.528C120.65 101.402 120.524 101.276 120.398 101.15C120.012 100.764 119.628 100.378 119.239 99.9945C119.242 99.9873 119.246 99.9784 119.249 99.9696Z" fill="black"/>
<path d="M51.9602 14C44.8026 14 39 19.8025 39 26.9601C39 34.118 44.8026 39.92 51.9602 39.92C59.1186 39.92 64.9206 34.118 64.9206 26.9601C64.9206 19.803 59.1186 14.0006 51.9601 14.0006L51.9602 14ZM57.9037 32.6921C57.6716 33.0729 57.1732 33.1936 56.7925 32.9599C53.7496 31.1012 49.9189 30.6802 45.4076 31.711C44.9729 31.81 44.5395 31.5376 44.4405 31.1027C44.341 30.6679 44.6123 30.2345 45.0481 30.1355C49.985 29.0071 54.2197 29.4932 57.636 31.581C58.0167 31.8146 58.1374 32.3114 57.9037 32.6921ZM59.49 29.1628C59.1975 29.6387 58.5754 29.7888 58.1002 29.4963C54.6166 27.3546 49.3062 26.7344 45.1857 27.9852C44.6513 28.1466 44.0869 27.8455 43.9247 27.312C43.7637 26.7776 44.065 26.2143 44.5985 26.0518C49.3053 24.6236 55.1567 25.3154 59.1573 27.7738C59.6324 28.0663 59.7825 28.6885 59.49 29.163V29.1628ZM59.6262 25.4881C55.4492 23.0071 48.5576 22.779 44.5696 23.9894C43.9292 24.1836 43.2519 23.8221 43.0579 23.1817C42.8638 22.541 43.225 21.8642 43.8659 21.6695C48.4439 20.2798 56.0543 20.5483 60.8634 23.4032C61.4406 23.745 61.6294 24.489 61.2874 25.0642C60.9469 25.6403 60.201 25.8302 59.6268 25.4881H59.6262Z" fill="#1ED760"/>
</g>
<defs>
<linearGradient id="paint0_linear" x1="96.9752" y1="40.3048" x2="96.772" y2="16" gradientUnits="userSpaceOnUse">
<stop stop-color="#822CBE"/>
<stop offset="1" stop-color="#D772FB"/>
</linearGradient>
<linearGradient id="paint1_linear" x1="150.6" y1="26.6511" x2="150.555" y2="23.8076" gradientUnits="userSpaceOnUse">
<stop stop-color="#358C7B"/>
<stop offset="0.5256" stop-color="#33A65E"/>
</linearGradient>
<linearGradient id="paint2_linear" x1="148.133" y1="30.3331" x2="153.021" y2="27.8439" gradientUnits="userSpaceOnUse">
<stop stop-color="#222B90"/>
<stop offset="1" stop-color="#367B99"/>
</linearGradient>
<linearGradient id="paint3_linear" x1="131" y1="32.9383" x2="135.743" y2="32.9383" gradientUnits="userSpaceOnUse">
<stop stop-color="#FF9900"/>
<stop offset="1" stop-color="#FF8000"/>
</linearGradient>
<linearGradient id="paint4_linear" x1="136.737" y1="32.9383" x2="141.477" y2="32.9383" gradientUnits="userSpaceOnUse">
<stop stop-color="#FF8000"/>
<stop offset="1" stop-color="#CC1953"/>
</linearGradient>
<linearGradient id="paint5_linear" x1="142.471" y1="32.9383" x2="147.212" y2="32.9383" gradientUnits="userSpaceOnUse">
<stop stop-color="#CC1953"/>
<stop offset="1" stop-color="#241284"/>
</linearGradient>
<linearGradient id="paint6_linear" x1="148.2" y1="32.9383" x2="152.943" y2="32.9383" gradientUnits="userSpaceOnUse">
<stop stop-color="#222B90"/>
<stop offset="1" stop-color="#3559A6"/>
</linearGradient>
<linearGradient id="paint7_linear" x1="142.283" y1="29.8361" x2="147.4" y2="28.3409" gradientUnits="userSpaceOnUse">
<stop stop-color="#CC1953"/>
<stop offset="1" stop-color="#241284"/>
</linearGradient>
<linearGradient id="paint8_linear" x1="136.566" y1="28.1637" x2="141.646" y2="30.0133" gradientUnits="userSpaceOnUse">
<stop offset="0.0026698" stop-color="#FFCC00"/>
<stop offset="0.9999" stop-color="#CE1938"/>
</linearGradient>
<linearGradient id="paint9_linear" x1="137.134" y1="23.4187" x2="141.08" y2="27.0573" gradientUnits="userSpaceOnUse">
<stop offset="0.0026698" stop-color="#FFD100"/>
<stop offset="1" stop-color="#FD5A22"/>
</linearGradient>
<clipPath id="clip0">
<rect width="65.47" height="24.6625" fill="white" transform="translate(27 55)"/>
</clipPath>
</defs>
</svg>
