<svg width="224" height="117" viewBox="0 0 224 117" fill="none" xmlns="http://www.w3.org/2000/svg">
<mask id="mask0" mask-type="alpha" maskUnits="userSpaceOnUse" x="0" y="0" width="224" height="117">
<path d="M0.5 111.429C0.5 114.506 2.99441 117 6.07142 117H217.929C221.006 117 223.5 114.506 223.5 111.429V5.57143C223.5 2.49442 221.006 0 217.929 0H6.07143C2.99442 0 0.5 2.49442 0.5 5.57143V111.429Z" fill="#FFDCD6"/>
</mask>
<g mask="url(#mask0)">
<rect width="78" height="79" rx="7" transform="matrix(1 0 0 -1 118 98)" fill="white"/>
<path d="M148.064 43.719L156.395 41.4347M156.395 41.4347L165.533 43.719M156.395 41.4347V39.6879C158.473 39.6879 160.158 38.0034 160.158 35.9255C160.158 33.8476 158.473 32.1631 156.395 32.1631C154.318 32.1631 152.633 33.8476 152.633 35.9255" stroke="#45484F" stroke-width="1.07497" stroke-linecap="round"/>
<path d="M139.815 42.1307L146.654 40.9127C147.88 40.6945 149.009 41.66 149.425 42.8331C150.215 45.058 152.281 47.4814 156.933 47.4814C161.556 47.4814 163.717 45.0878 164.554 42.8743C164.999 41.6952 166.151 40.7 167.392 40.921L174.185 42.1307C174.588 42.2025 174.959 42.3961 175.249 42.6855L182.259 49.6953C183.04 50.4763 183.04 51.7426 182.259 52.5237L177.728 57.054C177.149 57.6331 176.213 57.6419 175.623 57.0739C174.666 56.1517 173.07 56.8357 173.078 58.165L173.187 76.9919C173.19 77.5394 172.969 78.0643 172.574 78.4441L166.517 84.2773C166.144 84.6362 165.647 84.8367 165.129 84.8367H142.943C141.838 84.8367 140.943 83.9412 140.943 82.8367V58.2976C140.943 57.0057 139.369 56.3713 138.473 57.3019C137.912 57.8844 136.981 57.8888 136.415 57.3117L131.715 52.5236C130.947 51.7405 130.953 50.4843 131.728 49.7084L138.751 42.6855C139.041 42.3961 139.412 42.2025 139.815 42.1307Z" fill="#7BA1F8"/>
<path d="M139.815 42.1307L146.654 40.9127C147.88 40.6945 149.009 41.66 149.425 42.8331C150.215 45.058 152.281 47.4814 156.933 47.4814C161.556 47.4814 163.717 45.0878 164.554 42.8743C164.999 41.6952 166.151 40.7 167.392 40.921L168.442 41.1079C169.308 41.2622 169.977 41.9573 170.036 42.8351C170.757 53.5295 166.3 72.8682 143.183 76.8479C141.999 77.0517 140.943 76.1179 140.943 74.9165V58.2976C140.943 57.0057 139.369 56.3713 138.473 57.3019C137.912 57.8844 136.981 57.8888 136.415 57.3117L131.715 52.5236C130.947 51.7405 130.953 50.4843 131.728 49.7084L138.751 42.6855C139.041 42.3961 139.412 42.2025 139.815 42.1307Z" fill="#86ABFE"/>
<path d="M169.619 81.29L169.323 81.5748C168.053 82.7982 165.936 81.8979 165.936 80.1342V79.8493C165.936 78.7448 166.831 77.8493 167.936 77.8493H168.232C170.032 77.8493 170.915 80.0414 169.619 81.29Z" fill="#86ABFE"/>
<rect width="83" height="78" rx="4.5535" transform="matrix(1 0 0 -1 28 97)" fill="white"/>
<path d="M62.8733 38.5H63.9504H76.444C78.0026 38.5 79.4494 39.3567 79.9988 40.8153C81.3121 44.3021 82.8507 50.5742 81.8885 58.8734C80.9183 67.241 78.4639 72.8374 76.8197 75.7181C76.1596 76.8747 74.8941 77.5005 73.5625 77.5005H63.4554H63.3683H53.2613C51.9296 77.5005 50.6641 76.8747 50.0041 75.7181C48.3599 72.8374 45.9054 67.241 44.9353 58.8734C43.973 50.5742 45.5116 44.3021 46.8249 40.8153C47.3743 39.3567 48.8211 38.5 50.3798 38.5H62.8733Z" fill="#FCD3CC"/>
<path fill-rule="evenodd" clip-rule="evenodd" d="M78.6969 48.2014C78.6969 46.9155 79.7394 45.873 81.0253 45.873H86.0701C89.2333 45.873 91.9813 47.6524 93.3763 50.5745C94.7529 53.4583 94.7288 57.2185 93.0796 61.2981C91.36 65.5519 88.5834 67.8385 85.7202 68.9659C82.9576 70.0537 80.2729 69.9983 78.7852 69.9306C77.5006 69.8723 76.5066 68.7835 76.5649 67.4989C76.6233 66.2143 77.7121 65.2203 78.9967 65.2787C80.3547 65.3404 82.2104 65.3431 84.014 64.6329C85.717 63.9624 87.5326 62.5946 88.7623 59.5528C90.0624 56.3368 89.8442 53.985 89.1738 52.5807C88.5217 51.2147 87.3697 50.5298 86.0701 50.5298H81.0253C79.7394 50.5298 78.6969 49.4874 78.6969 48.2014Z" fill="#FCD3CC"/>
<path d="M64.4408 63.9502L69.9006 58.3551C71.2422 56.9803 71.4401 54.7186 70.1705 53.2738C69.8525 52.9109 69.4657 52.6181 69.0337 52.4134C68.6016 52.2088 68.1334 52.0964 67.6576 52.0833C67.1818 52.0702 66.7084 52.1566 66.2662 52.3372C65.824 52.5178 65.4224 52.7888 65.0858 53.1337L64.0596 54.1853L63.1736 53.2773C61.8321 51.9025 59.625 51.6997 58.2152 53.0007C57.861 53.3266 57.5754 53.723 57.3756 54.1658C57.1759 54.6085 57.0663 55.0884 57.0535 55.576C57.0407 56.0636 57.125 56.5487 57.3012 57.0018C57.4774 57.4549 57.7419 57.8665 58.0785 58.2114L63.6785 63.9502C63.7796 64.0538 63.9167 64.112 64.0596 64.112C64.2026 64.112 64.3397 64.0538 64.4408 63.9502Z" fill="#E77898"/>
</g>
</svg>
