<svg width="184" height="117" viewBox="0 0 184 117" fill="none" xmlns="http://www.w3.org/2000/svg">
<mask id="mask0" mask-type="alpha" maskUnits="userSpaceOnUse" x="0" y="0" width="184" height="117">
<path d="M0.907227 111.429C0.907227 114.506 3.40164 117 6.47865 117H177.521C180.598 117 183.093 114.506 183.093 111.429V5.57153C183.093 2.49452 180.598 0.000114441 177.521 0.000114441H6.47865C3.40164 0.000114441 0.907227 2.49452 0.907227 5.57153V111.429Z" fill="#FFDCD6"/>
</mask>
<g mask="url(#mask0)">
<rect x="109.72" y="58.4995" width="36.4858" height="23.8895" rx="2.78571" fill="white"/>
<mask id="mask1" mask-type="alpha" maskUnits="userSpaceOnUse" x="109" y="58" width="38" height="25">
<rect x="109.72" y="58.4995" width="36.4858" height="23.8895" rx="2.78571" fill="#C4C4C4"/>
</mask>
<g mask="url(#mask1)">
<path d="M127.243 74.252C127.243 74.252 125.118 73.4647 119.62 76.15C115.953 77.9409 112.338 84.2686 112.338 84.2686L113.48 90.7021L125.481 84.2686" fill="#97B7FF"/>
<path d="M125.403 74.4148C125.403 74.4148 120.028 78.4114 118.612 87.9851C117.197 97.5588 116.424 109.309 116.424 109.309L138.612 109.974C138.612 109.974 140.576 101.351 139.524 92.2108C138.69 84.9613 136.631 77.6442 133.741 74.5525C133.171 74.0934 129.629 73.486 129.629 73.486L125.403 74.4148Z" fill="#97B7FF"/>
<path d="M125.746 74.2775C124.787 74.6667 124.322 76.5473 126.599 76.6896C128.876 76.8317 130.594 75.4514 131.436 73.882" stroke="#29298B" stroke-width="0.557142" stroke-miterlimit="10"/>
<path d="M124.743 71.329L127.113 66.2263L129.652 69.9082L129.992 70.776L130.735 73.954C130.735 73.954 128.47 76.7557 125.878 75.6889C125.731 75.6282 125.627 75.4914 125.594 75.3349L124.743 71.329Z" fill="#FF886F"/>
<path d="M125.437 63.5311C124.312 64.9288 121.97 70.5074 122.989 71.6408C124.009 72.7742 126.315 72.9868 127.493 72.3586C128.515 71.8135 131.123 67.6112 130.439 65.9989C129.754 64.387 127.015 61.5715 125.437 63.5311Z" fill="#FF886F"/>
<path d="M132.267 66.5168C132.26 65.8527 131.927 65.2357 131.597 64.657C130.968 63.5543 130.235 62.3919 129.054 61.9269C128.782 61.8198 128.43 61.7713 128.233 61.9868C127.816 61.5917 127.292 61.3102 126.733 61.181C126.394 61.1033 126.032 61.0818 125.707 61.2054C125.383 61.329 125.108 61.6217 125.082 61.9677C124.503 61.8748 123.917 61.7815 123.333 61.8385C122.929 61.8781 122.523 61.9957 122.181 62.2185C121.842 62.439 121.787 62.6157 121.813 63.0085C121.859 63.72 122.355 64.3637 122.955 64.716C123.718 65.1636 124.633 65.2512 125.515 65.3059C126.398 65.361 127.307 65.3999 128.111 65.7683C128.309 65.8596 128.508 65.9783 128.619 66.1668C128.718 66.3339 128.735 66.5349 128.751 66.7287C128.807 67.432 128.864 68.1353 128.92 68.8389C128.968 69.4354 129.067 70.0432 129.344 70.5807C129.568 71.0157 130.265 72.1254 130.596 71.2484C130.896 70.4548 132.256 67.2735 132.267 66.5702C132.267 66.5524 132.268 66.5346 132.267 66.5168Z" fill="#010101"/>
<path d="M128.279 68.8284C128.558 68.6155 128.903 68.3885 129.21 68.4929C129.37 68.5467 129.483 68.6844 129.547 68.8393C129.874 69.6346 129.454 70.6987 128.614 70.9789C128.263 71.0959 127.869 71.0461 127.778 70.6272L128.144 69.0054C128.15 68.9319 128.217 68.8752 128.279 68.8284Z" fill="#FF886F"/>
<path d="M125.182 72.7838C125.182 72.7838 127.032 73.0722 127.894 71.9461" stroke="#DD513E" stroke-width="0.557142" stroke-miterlimit="10" stroke-linejoin="round"/>
<path d="M124.32 66.5417C124.32 66.5417 122.315 67.7492 122.4 68.2555C122.484 68.7613 123.273 68.8315 123.273 68.8315" fill="#FF886F"/>
<path d="M125.02 66.7102C124.94 66.7952 124.889 66.9349 124.847 67.0144C124.772 67.1558 124.894 67.3044 125.046 67.3202C125.328 67.3502 125.542 66.7468 125.221 66.6469C125.138 66.6209 125.073 66.6535 125.02 66.7102Z" fill="#010101"/>
<path d="M123.247 69.3278L125.628 69.666C125.628 69.666 124.996 71.3128 123.612 70.9833C122.77 70.7832 123.247 69.3278 123.247 69.3278Z" fill="white"/>
<path d="M125.014 65.9155C125.417 66.1004 125.811 66.3878 126.1 66.7012C126.151 66.6972 126.341 66.5512 126.331 66.4105C126.323 66.2998 125.785 65.7965 125.205 65.5539C125.205 65.5539 124.957 65.8285 125.014 65.9155Z" fill="#010101"/>
<path d="M129.01 70.7682C129.01 70.7682 128.316 71.2055 127.834 70.7823" stroke="#DD513E" stroke-width="0.557142" stroke-miterlimit="10" stroke-linejoin="round"/>
<path d="M131.927 73.9751C133.642 74.1949 136.945 75.2585 140.282 79.8161C145.173 86.4974 146.164 88.9547 146.164 88.9547L135.303 95.5576L128.303 83.7307" fill="#97B7FF"/>
</g>
<rect x="124.12" y="7.44824" width="27.4893" height="17.9989" rx="2.78571" fill="white"/>
<mask id="mask2" mask-type="alpha" maskUnits="userSpaceOnUse" x="124" y="7" width="28" height="19">
<rect x="124.12" y="7.44824" width="27.4893" height="17.9989" rx="2.78571" fill="#C4C4C4"/>
</mask>
<g mask="url(#mask2)">
<path d="M138.914 21.0377C138.914 21.0377 136.52 19.7776 134.071 22.1288C131.541 24.5568 129.518 27.9308 128.329 27.8136C127.141 27.6964 122.32 25.7748 122.32 25.7748L120.844 26.3791C120.844 26.3791 124.86 33.8213 127.846 34.1035C132.056 34.5016 137.033 29.7834 137.033 29.7834" fill="#FFAB37"/>
<path d="M137.45 17.102L138.58 19.7148C138.58 19.7148 138.549 20.8224 137.168 21.1707C136.183 21.4193 136.033 20.41 136.033 20.41L135.727 17.5368" fill="#FFA18D"/>
<path d="M134.714 13.603C133.537 15.0058 132.681 18.4684 134.751 18.6855C136.397 18.8585 137.667 17.714 137.964 16.3759C138.402 14.4009 135.89 12.2005 134.714 13.603Z" fill="#FFA18D"/>
<path d="M135.841 18.6037C135.841 18.6037 136.477 18.4437 137.17 17.7942" stroke="#E07A6C" stroke-width="0.557142" stroke-miterlimit="10"/>
<path d="M134.828 15.6561C134.837 15.7591 134.761 15.8499 134.658 15.8588C134.555 15.8679 134.464 15.7918 134.455 15.6889C134.446 15.5858 134.522 15.4951 134.625 15.486C134.728 15.4769 134.819 15.5531 134.828 15.6561Z" fill="#33002C"/>
<path d="M134.363 15.0797C134.772 14.8674 135.338 15.0421 135.468 15.5116C135.475 15.5389 135.437 15.5528 135.423 15.5297C135.19 15.1535 134.818 14.972 134.385 15.1335C134.354 15.1451 134.334 15.0948 134.363 15.0797Z" fill="#33002C"/>
<path d="M133.983 15.3748C133.983 15.3748 133.042 16.4754 133.133 16.6442C133.284 16.923 133.717 16.8851 133.717 16.8851" fill="#FFA18D"/>
<path d="M134.838 17.3636L133.756 17.0798C133.756 17.0798 133.693 17.9335 134.047 18.0326C134.735 18.2252 134.838 17.3636 134.838 17.3636Z" fill="white"/>
<path d="M140.598 20.5091L139.509 18.7686L135.029 20.3394L135.29 21.373C135.29 21.373 138.163 21.5207 140.598 20.5091Z" fill="#FFAB37"/>
<path d="M135.289 21.3732C132.269 25.0054 131.59 38.285 131.59 38.285C135.971 41.2052 147.553 42.7858 147.553 42.7858C147.553 42.7858 146.931 33.3717 145.637 28.2447C144.344 23.118 140.598 20.5093 140.598 20.5093" fill="#FFAB37"/>
<path d="M132.055 33.1001C132.055 33.1001 132.884 26.251 134.037 23.6989" stroke="#D86627" stroke-width="0.557142" stroke-miterlimit="10" stroke-linejoin="round"/>
<path d="M139.509 18.7684L135.029 20.3392" stroke="#D86627" stroke-width="0.557142" stroke-miterlimit="10" stroke-linejoin="round"/>
<path d="M139.661 20.0261C139.661 20.0261 137.659 21.0997 135.279 21.3324" stroke="#D86627" stroke-width="0.557142" stroke-miterlimit="10" stroke-linejoin="round"/>
<path d="M139.131 18.9016L139.307 19.4443" stroke="#D86627" stroke-width="0.557142" stroke-miterlimit="10" stroke-linejoin="round"/>
<path d="M138.487 19.1555L138.662 19.6982" stroke="#D86627" stroke-width="0.557142" stroke-miterlimit="10" stroke-linejoin="round"/>
<path d="M137.842 19.4104L138.018 19.9531" stroke="#D86627" stroke-width="0.557142" stroke-miterlimit="10" stroke-linejoin="round"/>
<path d="M137.148 19.6238L137.324 20.1665" stroke="#D86627" stroke-width="0.557142" stroke-miterlimit="10" stroke-linejoin="round"/>
<path d="M136.49 19.8259L136.666 20.3687" stroke="#D86627" stroke-width="0.557142" stroke-miterlimit="10" stroke-linejoin="round"/>
<path d="M135.88 20.0593L136.056 20.6021" stroke="#D86627" stroke-width="0.557142" stroke-miterlimit="10" stroke-linejoin="round"/>
<path d="M135.218 20.2742L135.394 20.8169" stroke="#D86627" stroke-width="0.557142" stroke-miterlimit="10" stroke-linejoin="round"/>
<path d="M138.793 12.643C138.737 12.5949 138.678 12.5485 138.619 12.5039C138.026 12.0627 137.451 12.1124 136.705 12.2848C136.523 12.3267 135.759 12.2603 135.359 12.5813C134.51 12.325 133.897 12.9352 133.689 13.3819C133.452 13.8935 133.367 14.5439 133.833 15.1393C133.931 14.8918 134.399 13.945 134.794 13.6626C135.124 13.9703 135.594 14.609 135.746 14.8632C136.051 15.372 136.305 15.9101 136.507 16.4673C136.903 17.5649 137.306 19.1954 137.261 20.3634C137.257 20.4569 138.776 19.9214 138.891 19.8874C139.416 19.7322 139.9 19.5359 140.382 19.2641C141.537 18.6141 142.171 17.7773 142.804 16.6241C142.418 16.2366 140.033 14.7855 139.439 13.6722C139.169 13.1757 139.243 13.0255 138.793 12.643Z" fill="white"/>
<path d="M140.382 19.2642C140.382 19.2642 138.857 16.9286 138.44 16.0081" stroke="#FFEBE6" stroke-width="0.742856" stroke-miterlimit="10"/>
<path d="M138.468 20.0298C138.468 20.0298 137.761 17.5281 137.011 15.5486" stroke="#FFEBE6" stroke-width="0.742856" stroke-miterlimit="10"/>
<path d="M142.187 17.6265C142.187 17.6265 140.347 16.0405 139.897 15.4519" stroke="#FFEBE6" stroke-width="0.742856" stroke-miterlimit="10"/>
<path d="M141.556 18.3804C141.556 18.3804 139.421 16.0241 138.905 14.997" stroke="#FFEBE6" stroke-width="0.742856" stroke-miterlimit="10"/>
<path d="M137.882 20.2207C137.882 20.2207 137.347 16.7426 135.912 14.5404" stroke="#FFEBE6" stroke-width="0.742856" stroke-miterlimit="10"/>
<path d="M135.684 12.2717C136.258 11.5316 137.199 11.1104 138.144 11.0679C138.439 11.0546 138.74 11.0766 139.015 11.1827C139.509 11.3732 139.868 11.8241 140.037 12.3192C140.206 12.8146 140.206 13.3518 140.142 13.8707" fill="#E23D3D"/>
<path d="M135.401 12.3941C135.612 12.0309 135.877 11.6314 136.281 11.5903C136.51 11.5672 136.736 11.6678 136.95 11.7664C138.013 12.2546 139.075 12.7429 140.137 13.2309C140.261 13.288 140.39 13.3489 140.477 13.4593C140.602 13.6168 140.53 14.4106 140.501 14.6097C140.415 15.1791 136.276 13.0515 135.535 12.7574C135.457 12.7263 135.368 12.6833 135.346 12.5979C135.327 12.5264 135.365 12.4555 135.401 12.3941Z" fill="#E23D3D"/>
<path d="M136.091 16.4862C136.274 16.1964 136.608 16.225 136.754 16.2959C137.108 16.4673 137.171 16.9266 137.051 17.3012C136.917 17.721 136.647 17.8375 136.44 17.8419C136.234 17.846 136.057 17.6056 136.062 17.287" fill="#FFA18D"/>
<path d="M136.349 17.6285C136.353 17.5927 136.361 17.5706 136.382 17.541C136.395 17.5225 136.424 17.5113 136.446 17.5163C136.481 17.5244 136.502 17.5354 136.529 17.5592C136.591 17.6144 136.581 17.7187 136.499 17.7502C136.418 17.7819 136.34 17.7113 136.349 17.6285Z" fill="#33002C"/>
<path d="M140.234 21.094C140.234 21.094 142.499 21.5713 144.326 24.1547C145.629 25.9957 154.868 39.9355 154.868 39.9355L150.318 41.4757L138.51 27.0966" fill="#FFAB37"/>
<path d="M139.007 21.404C139.007 21.404 141.956 20.6089 144.326 24.1548" stroke="#D86627" stroke-width="0.557142" stroke-miterlimit="10" stroke-linejoin="round"/>
<path d="M140.177 13.2212C140.177 13.2212 137.821 12.4351 136.439 11.5936" stroke="white" stroke-width="0.371428" stroke-miterlimit="10" stroke-linejoin="round"/>
<path d="M140.203 13.9678L140.135 14.7344" stroke="white" stroke-width="0.371428" stroke-miterlimit="10" stroke-linejoin="round"/>
<path d="M139.642 13.8639L139.464 14.5273" stroke="white" stroke-width="0.371428" stroke-miterlimit="10" stroke-linejoin="round"/>
<path d="M139.058 13.6938L138.758 14.3486" stroke="white" stroke-width="0.371428" stroke-miterlimit="10" stroke-linejoin="round"/>
<path d="M138.515 13.4513L138.173 14.1768" stroke="white" stroke-width="0.371428" stroke-miterlimit="10" stroke-linejoin="round"/>
<path d="M137.937 13.2428L137.595 13.9683" stroke="white" stroke-width="0.371428" stroke-miterlimit="10" stroke-linejoin="round"/>
<path d="M137.372 13.0655L137.031 13.7911" stroke="white" stroke-width="0.371428" stroke-miterlimit="10" stroke-linejoin="round"/>
<path d="M136.84 12.818L136.498 13.5435" stroke="white" stroke-width="0.371428" stroke-miterlimit="10" stroke-linejoin="round"/>
<path d="M136.269 12.5299L135.927 13.2554" stroke="white" stroke-width="0.371428" stroke-miterlimit="10" stroke-linejoin="round"/>
<path d="M135.724 12.2891L135.382 13.0147" stroke="white" stroke-width="0.371428" stroke-miterlimit="10" stroke-linejoin="round"/>
</g>
<path d="M100.93 32.3522L109.066 32.9745M101.834 30.9003L104.345 30.5892M99.4232 26.6483L101.332 25.5075M98.921 22.9149L103.039 18.248" stroke="#131735" stroke-width="0.557142" stroke-linecap="round" stroke-linejoin="round"/>
<path d="M42.6419 35.4225C39.7201 37.0729 37.957 40.8045 38.4382 44.3181C38.4725 44.5664 38.51 44.8453 38.3698 45.0456C38.2753 45.1812 38.1199 45.248 37.9715 45.3074C36.3901 45.9441 34.7715 46.4967 33.2728 47.3315C31.7742 48.1668 30.3791 49.3183 29.5314 50.8854C28.99 51.8864 28.6903 53.0247 28.5645 54.1757C28.3826 55.8432 28.6342 57.7151 29.7984 58.8437C30.4706 59.4953 31.3596 59.8148 32.2257 60.097C33.9879 60.6716 35.8251 61.1677 37.6516 60.9366C39.356 60.7208 40.7792 59.8373 42.3847 59.3696C43.9808 58.905 45.6576 59.3237 47.2976 59.391C51.254 59.5531 55.2272 59.1714 59.0884 58.2512C60.3632 57.947 61.7808 57.4535 62.3332 56.1844C62.7289 55.2746 62.5539 54.0334 62.0734 53.1779C61.7539 52.6099 60.4301 51.8787 60.4813 51.2515C60.5003 51.024 60.6604 50.8349 60.8243 50.676C61.2761 50.2373 61.8152 49.89 62.2307 49.4171C63.5639 47.9 62.9791 44.8734 62.4569 43.1508C61.333 39.443 59.0274 36.0978 55.8869 34.1327C52.7459 32.1675 48.7693 31.6851 45.4116 33.1464" fill="#E23D3D"/>
<path d="M79.7638 64.9091L84.3625 48.9749L88.4531 53.7201L88.8573 79.5829" fill="#FF886F"/>
<path d="M89.888 52.1037L84.3648 49.1126C84.3648 49.1126 84.596 44.8883 85.5078 44.5573C86.4186 44.2271 85.6772 46.929 85.6772 46.929C85.6772 46.929 86.0751 43.5414 86.4896 43.7392C87.2306 44.0926 87.703 46.6958 87.703 46.6958C87.703 46.6958 88.8964 45.1892 89.4348 45.5391C89.9731 45.889 90.2154 46.1605 90.2154 46.1605L89.888 52.1037Z" fill="#FF886F"/>
<g opacity="0.350006">
<g opacity="0.350006">
<path opacity="0.350006" d="M89.1681 45.905C89.1685 46.031 89.088 46.1107 88.988 46.0835C88.8875 46.0557 88.8059 45.931 88.8055 45.8049C88.805 45.6783 88.8856 45.5986 88.9855 45.6264C89.0861 45.6542 89.1677 45.779 89.1681 45.905Z" fill="#E4EEF7"/>
</g>
</g>
<g opacity="0.350006">
<g opacity="0.350006">
<path opacity="0.350006" d="M90.7591 36.9923C90.7837 36.9916 90.8069 36.978 90.8191 36.9552C90.8371 36.9205 90.8235 36.8784 90.7899 36.8603L89.9863 36.4391C89.9516 36.4216 89.91 36.4346 89.8914 36.4682C89.8739 36.5024 89.8875 36.5451 89.9211 36.5626L90.7241 36.9844C90.7355 36.9902 90.7474 36.9927 90.7591 36.9923Z" fill="#E4EEF7"/>
</g>
</g>
<path d="M89.7622 56.6657C89.7622 56.6657 90.1391 49.6035 90.0894 48.3115L88.178 48.9137L85.4643 48.9598C85.4643 48.9598 82.8668 60.4919 82.7168 60.7088C82.5667 60.9256 89.7622 65.8289 89.7622 65.8289L89.7622 56.6657Z" fill="#FF886F"/>
<path d="M86.5685 40.1907L90.025 45.8437C90.5946 46.7754 90.2526 47.9947 89.2815 48.4941C88.3617 48.9672 87.2326 48.6077 86.7556 47.69L83.6997 41.8107C83.3135 41.0676 83.5458 40.1531 84.2398 39.6845C85.0185 39.1587 86.0784 39.3891 86.5685 40.1907Z" fill="#131735"/>
<path d="M86.8688 39.6422C85.2134 40.3633 80.7127 42.9674 78.1849 44.4776C77.741 44.7335 76.2799 44.4038 74.6341 42.2859C72.9882 40.1681 73.4693 37.8039 73.9964 37.0425C76.0032 35.9422 80.4084 33.5597 81.8017 32.5766C84.4097 30.7366 85.6955 25.6691 86.9071 23.6625C86.2585 24.9119 85.6369 28.5846 88.3397 33.28C90.6808 37.3472 93.1228 39.0188 94.4367 39.5003C94.6227 39.5441 94.798 39.5915 94.9603 39.6426C94.8157 39.6206 94.6396 39.5746 94.4367 39.5003C92.1962 38.9726 88.3972 38.9764 86.8688 39.6422Z" fill="#3E49E1"/>
<path d="M84.0759 30.0576C84.3163 30.9947 84.9856 33.2129 85.7401 34.589M86.526 36.0225C86.6308 36.2136 86.8681 36.6328 86.9791 36.7808M87.6726 37.7056C87.947 37.9899 88.5308 38.5634 89.0486 38.9873" stroke="#29298B" stroke-width="0.334285" stroke-linecap="round" stroke-linejoin="round"/>
<path d="M74.1069 37.6494L76.2154 36.5306M73.9496 38.5186L76.0396 37.2981M73.9957 39.3509L76.0025 38.2506M74.1436 40.1647L76.0487 39.0829M74.3933 40.96L76.3816 39.758M76.7974 43.7807L78.6007 42.7174M77.7221 44.2431L79.6087 43.0596M77.3614 43.9934L79.248 42.8099" stroke="#29298B" stroke-width="0.334285" stroke-linecap="round" stroke-linejoin="round"/>
<path d="M76.6412 35.6122C76.5795 36.4291 76.7575 38.4493 77.9632 39.9956C79.169 41.5419 80.3274 42.4033 80.7558 42.6406" stroke="#29298B" stroke-width="0.334285" stroke-linecap="round" stroke-linejoin="round"/>
<ellipse cx="92.1577" cy="30.7976" rx="4.5888" ry="9.57398" transform="rotate(-25.5679 92.1577 30.7976)" fill="white"/>
<ellipse cx="92.0952" cy="30.6995" rx="1.14904" ry="3.29758" transform="rotate(-25.5679 92.0952 30.6995)" fill="#3E49E1"/>
<path d="M90.5578 36.2358L93.4523 33.5466M90.8024 27.8366L86.6097 28.9669" stroke="#3E49E1" stroke-width="0.557142" stroke-linecap="round" stroke-linejoin="round"/>
<path d="M88.7669 41.0552C88.2624 40.8265 87.4875 41.2107 87.1442 41.6112L87.4715 42.1021C87.3965 42.2953 87.195 42.7883 87.1051 43.0202C86.9927 43.31 86.7594 44.0849 86.9242 44.4217C87.056 44.6911 87.5335 44.6278 87.7558 44.5625C87.7645 44.667 87.6351 45.0474 87.9623 45.211C88.2896 45.3746 88.66 45.1743 88.8129 45.0224C88.7726 45.184 88.6168 45.5382 88.9174 45.8263C89.129 46.0291 89.5977 45.6508 89.7622 45.5382C89.7132 45.5954 89.5986 46.0291 89.7622 46.1927C89.9259 46.3564 90.053 46.4632 90.4167 46.3564C90.7805 46.2495 91.5243 45.0604 91.5672 44.5341C91.6016 44.1131 91.2405 43.9453 91.0557 43.914C91.3415 43.7658 91.2352 43.2895 91.0716 42.9622C90.9079 42.635 90.4744 42.608 90.4744 42.608C90.4744 42.608 90.5804 41.9384 90.214 41.7215C89.8475 41.5046 89.466 41.6416 89.2351 41.7523C89.2726 41.6557 89.2714 41.2839 88.7669 41.0552Z" fill="#FF886F"/>
<path d="M84.2599 49.6988C84.5357 47.7687 84.5327 43.455 84.4968 41.5394C84.9211 41.4147 85.8448 41.8239 86.1446 44.4581C86.5404 44.6842 87.3095 45.4641 87.2204 46.7744C87.8041 47.566 89.203 48.9208 90.0895 47.9926C90.0926 48.3769 89.8848 49.2531 89.0674 49.6987L89.0858 51.1059L84.2599 49.6988Z" fill="#FF886F"/>
<path d="M53.9733 53.9133C53.9733 53.9133 63.7535 53.2018 73.2305 61.9458C75.0971 63.6684 77.0007 65.5401 77.0007 65.5401L79.746 62.0009L94.8337 71.435C94.8337 71.435 87.7826 85.8284 80.7087 87.7562C72.1329 90.0937 58.8529 72.5305 58.8529 72.5305" fill="#97B7FF"/>
<path d="M89.6615 81.2987L77.3171 64.2043L81.2692 58.4275L95.9729 70.5048L89.6615 81.2987Z" fill="#3E49E1"/>
<path d="M77.0005 65.5395C77.0005 65.5395 74.0774 69.2005 73.5625 70.7301" stroke="#29298B" stroke-width="0.334285" stroke-miterlimit="10" stroke-linejoin="round"/>
<path d="M55.2697 102.489C55.2697 102.489 53.1631 127.362 49.5433 147.613C47.1555 160.972 41.3085 189.637 41.3085 189.637L32.3982 187.524L35.9491 109.802" fill="#FF886F"/>
<path d="M73.3041 99.6108C73.3041 99.6108 73.2784 124.685 71.4725 145.178C70.6148 154.917 66.7413 188.072 66.7413 188.072L57.6515 186.772L53.7203 108.91" fill="#FF886F"/>
<path d="M68.2787 87.6031L70.1277 91.2225C70.1277 91.2225 74.901 118.988 75.5193 139.624C63.6797 141.996 31.751 141.102 31.751 141.102C31.751 141.102 34.3593 105.355 40.42 93.9893" fill="#010101"/>
<path d="M60.0887 58.6482C61.553 62.0327 63.018 65.4177 64.4823 68.8021C65.4579 71.0568 66.4353 73.3153 67.1932 75.652C68.9689 81.1262 69.55 88.3687 70.0769 94.0999C61.889 95.0062 49.6825 95.4532 40.3256 95.4103C39.9043 83.7795 40.0088 74.0113 41.6784 64.0197C41.9497 62.396 42.2624 60.6825 43.344 59.4424" fill="#3E49E1"/>
<path d="M60.762 55.2587L53.6916 52.5391C53.6916 52.5391 43.6056 53.8894 41.6643 56.2914C45.5931 59.0855 47.1863 62.768 54.9707 61.4637C62.7552 60.1594 60.762 55.2587 60.762 55.2587Z" fill="#FF886F"/>
<path d="M49.1024 46.1023L48.0711 53.9169C48.0711 53.9169 48.9946 56.8426 52.9347 56.7245C55.7466 56.6403 55.3814 53.8385 55.3814 53.8385L54.0198 45.9549" fill="#FF886F"/>
<path d="M55.483 34.8504C59.1729 38.3261 61.9813 47.5892 56.3598 48.8584C51.8896 49.8673 48.0264 47.1323 46.7757 43.5488C44.9299 38.2605 51.7931 31.3752 55.483 34.8504Z" fill="#FF886F"/>
<path d="M57.3662 39.6111C57.3748 39.8971 57.15 40.1363 56.8634 40.1449C56.5775 40.1535 56.3388 39.9282 56.3302 39.6422C56.3216 39.3562 56.5464 39.1175 56.8324 39.109C57.119 39.1004 57.3576 39.3251 57.3662 39.6111Z" fill="#060A47"/>
<path d="M51.7029 41.8658C51.7115 42.1518 51.9501 42.3771 52.2361 42.3686C52.5227 42.36 52.7474 42.1208 52.7389 41.8348C52.7303 41.5488 52.4916 41.3234 52.2051 41.332C51.9191 41.3406 51.6943 41.5798 51.7029 41.8658Z" fill="#060A47"/>
<path d="M52.8237 39.8706C51.5745 39.5714 50.6223 40.1932 50.105 41.3044C50.0708 41.3782 49.9679 41.3275 49.9792 41.2561C50.19 39.935 51.6724 39.2682 52.8621 39.7132C52.9568 39.749 52.9281 39.8955 52.8237 39.8706Z" fill="#060A47"/>
<path d="M57.4207 37.8931C56.9127 37.6506 56.3251 37.5579 55.8177 37.8621C55.3912 38.1175 55.2014 38.569 55.0315 39.0128C55.0066 39.0779 54.9206 39.0704 54.9107 39.0001C54.7161 37.6475 56.574 36.9857 57.502 37.7808C57.5646 37.8344 57.4901 37.9263 57.4207 37.8931Z" fill="#060A47"/>
<path d="M54.9904 40.3541C54.9904 40.3541 57.0574 42.4298 56.8611 42.9236C56.5371 43.7394 55.3343 43.7755 55.3343 43.7755" stroke="#DD513E" stroke-width="0.222857" stroke-miterlimit="10" stroke-linejoin="round"/>
<path d="M53.4838 45.6014L57.4414 44.4381C57.4414 44.4381 58.0342 46.7608 56.7403 47.1586C54.2286 47.9313 53.4838 45.6014 53.4838 45.6014Z" fill="white"/>
<path d="M41.4314 36.6182C41.9997 34.0636 43.579 31.8069 46.1051 31.0685C47.2469 30.7351 48.4739 30.667 49.6529 30.7745C50.6719 30.8678 51.6099 31.2867 52.5962 31.5233C53.5847 31.7608 54.4109 31.2532 55.3936 31.2949C57.2839 31.3755 59.3037 32.921 58.4683 34.9717C58.1014 35.8711 57.3262 36.5453 56.493 37.0442C54.2818 38.368 51.6137 38.648 49.0392 38.7638C49.4364 38.7463 49.7734 41.0777 49.7657 41.3793C49.7442 42.2332 49.4146 43.0312 49.1677 43.8402C48.4918 46.053 47.5807 48.195 46.5761 50.2838C46.4986 50.4441 46.3748 50.631 46.1982 50.6077C46.1071 50.5953 46.0345 50.5275 45.9698 50.4628C45.0041 49.4946 44.1967 48.3844 43.55 47.1809C43.073 46.2927 42.3047 45.3668 41.9948 44.4064C41.8218 43.8704 41.9249 43.3828 41.9293 42.8376C41.9345 42.1154 41.6538 41.6471 41.4351 40.9657C40.9859 39.5658 41.117 38.0315 41.4314 36.6182Z" fill="#E23D3D"/>
<path d="M54.6084 49.3602C54.6084 49.3602 51.9846 49.6091 49.8542 48.0355" stroke="#DD513E" stroke-width="0.557142" stroke-miterlimit="10" stroke-linejoin="round"/>
<path d="M49.3804 43.6716C48.7153 43.1258 48.0167 43.554 47.7652 43.8909C47.1566 44.7052 47.4453 45.9457 48.0522 46.7756C48.7327 47.7065 49.4254 47.7171 49.8774 47.5086C50.3288 47.3001 50.4885 46.4982 50.183 45.6883" fill="#FF886F"/>
<path d="M48.8334 46.7928C48.9468 46.9126 48.9625 46.9486 48.8815 46.9006C48.8497 46.8864 48.8179 46.8722 48.7856 46.8592C48.731 46.8334 48.6765 46.8081 48.6262 46.7744C48.5313 46.7111 48.4768 46.6494 48.4582 46.5352C48.4288 46.3551 48.6637 46.3077 48.775 46.3929C48.666 46.3093 48.7613 46.3491 48.8521 46.3508C48.9048 46.352 48.9576 46.3555 49.0104 46.3601C49.1244 46.3707 49.2598 46.3834 49.3399 46.4774C49.6686 46.8647 49.0147 47.2534 48.8334 46.7928Z" fill="#00316E"/>
<path d="M45.2189 33.9037C46.7168 33.5104 46.6846 31.7233 46.4575 30.5005C45.9732 27.8916 43.7409 26.2853 41.1189 26.5375C38.3194 26.8068 35.3696 28.7757 35.9215 32.7241C36.4077 36.199 41.9194 36.7811 44.3909 34.7044C44.4789 34.6306 44.5645 34.5535 44.6473 34.4749" fill="#E23D3D"/>
<path d="M46.5278 30.9569C46.5278 30.9569 42.1369 32.4301 41.6445 35.8317" stroke="#010101" stroke-width="0.742856" stroke-miterlimit="10"/>
<path d="M46.6348 53.9624C46.6348 53.9624 51.1424 91.9451 47.1466 125.501L19.2589 121.089C19.2093 117.544 23.3326 85.5671 27.0011 77.1306C33.1726 62.9394 41.8299 55.28 41.8299 55.28" fill="#97B7FF"/>
<path d="M45.8734 54.0735C45.8734 54.0735 50.2344 99.558 45.3879 127.572" stroke="#29298B" stroke-width="0.334285" stroke-miterlimit="10"/>
<path d="M57.027 53.8219C57.027 53.8219 63.1735 80.824 67.2977 124.989C74.1777 123.431 83.7284 117.154 83.7284 117.154C83.7284 117.154 76.3209 77.139 66.3472 60.5494C65.4257 59.0169 65.1789 57.0048 64.0636 55.9946C64.0636 55.9946 59.7408 54.3181 57.027 53.8219Z" fill="#97B7FF"/>
<path d="M76.7734 87.6396C76.7734 87.6396 71.891 68.4249 67.4036 62.4113" stroke="#29298B" stroke-width="0.334285" stroke-miterlimit="10" stroke-linejoin="round"/>
<path d="M58.1548 54.0683C58.1548 54.0683 64.2929 80.7895 68.4171 124.955" stroke="#29298B" stroke-width="0.334285" stroke-miterlimit="10" stroke-linejoin="round"/>
<path d="M71.4644 105.123C73.8067 111.035 80.7719 111.947 80.7719 111.947" stroke="#29298B" stroke-width="0.334285" stroke-miterlimit="10" stroke-linejoin="round"/>
<path d="M42.923 68.6867C42.923 68.6867 33.6416 81.4289 31.5203 85.4137C30.6828 86.9866 33.1024 96.1498 33.1024 96.1498L17.6577 104.175C17.6577 104.175 16.1956 102.118 14.5532 94.0448C12.9109 85.9713 19.051 72.8079 26.4349 65.2594C35.7685 55.7182 45.0634 54.4404 45.0634 54.4404" fill="#97B7FF"/>
<path d="M32.302 94.5374L37.9783 109.307L31.1584 115.394L19.0901 98.6697" fill="#FF886F"/>
<path d="M39.6885 107.588C39.6885 107.588 34.428 113.986 29.1081 116.275" stroke="#29298B" stroke-width="0.334285" stroke-miterlimit="10"/>
<path d="M31.7714 90.1851C31.7714 90.1851 30.6049 86.9805 31.5203 85.4143C32.4358 83.848 40.6487 70.669 40.6487 70.669" stroke="#29298B" stroke-width="0.334285" stroke-miterlimit="10"/>
<path d="M32.2486 88.6831L35.1067 98.7032L18.078 106.79L14.5471 96.6376L32.2486 88.6831Z" fill="#3E49E1"/>
<path d="M94.6656 6.74253C93.5517 6.74253 92.6533 7.64094 92.6533 8.75475C92.6533 9.86857 93.5517 10.767 94.6656 10.767C95.7794 10.767 96.6778 9.86857 96.6778 8.75475C96.6778 7.64094 95.7794 6.74253 94.6656 6.74253ZM94.6656 10.063C93.9458 10.063 93.3574 9.47628 93.3574 8.75475C93.3574 8.03322 93.944 7.44654 94.6656 7.44654C95.3871 7.44654 95.9738 8.03322 95.9738 8.75475C95.9738 9.47628 95.3853 10.063 94.6656 10.063ZM97.2294 6.66022C97.2294 6.92116 97.0193 7.12956 96.7601 7.12956C96.4992 7.12956 96.2907 6.91941 96.2907 6.66022C96.2907 6.40103 96.5009 6.19087 96.7601 6.19087C97.0193 6.19087 97.2294 6.40103 97.2294 6.66022ZM98.5622 7.13657C98.5324 6.50786 98.3888 5.95095 97.9282 5.49211C97.4694 5.03328 96.9125 4.88967 96.2837 4.85815C95.6358 4.82137 93.6936 4.82137 93.0456 4.85815C92.4187 4.88792 91.8618 5.03153 91.4012 5.49036C90.9406 5.9492 90.7987 6.5061 90.7672 7.13481C90.7304 7.78279 90.7304 9.72496 90.7672 10.3729C90.797 11.0016 90.9406 11.5586 91.4012 12.0174C91.8618 12.4762 92.4169 12.6198 93.0456 12.6514C93.6936 12.6881 95.6358 12.6881 96.2837 12.6514C96.9125 12.6216 97.4694 12.478 97.9282 12.0174C98.387 11.5586 98.5306 11.0016 98.5622 10.3729C98.5989 9.72496 98.5989 7.78454 98.5622 7.13657ZM97.725 11.0682C97.5884 11.4114 97.324 11.6759 96.979 11.8142C96.4624 12.0191 95.2365 11.9719 94.6656 11.9719C94.0946 11.9719 92.867 12.0174 92.3521 11.8142C92.0089 11.6776 91.7444 11.4132 91.6061 11.0682C91.4012 10.5516 91.4485 9.32567 91.4485 8.75475C91.4485 8.18383 91.4029 6.95618 91.6061 6.44131C91.7427 6.09806 92.0071 5.83361 92.3521 5.69526C92.8687 5.49036 94.0946 5.53765 94.6656 5.53765C95.2365 5.53765 96.4641 5.49211 96.979 5.69526C97.3223 5.83186 97.5867 6.09631 97.725 6.44131C97.9299 6.95794 97.8827 8.18383 97.8827 8.75475C97.8827 9.32567 97.9299 10.5533 97.725 11.0682Z" fill="#FF886F"/>
</g>
<g clip-path="url(#clip0)">
<path d="M67.403 19.5575C67.403 17.8062 65.9841 16.3872 64.2328 16.3872C62.4815 16.3872 61.0625 17.8062 61.0625 19.5575C61.0625 21.1398 62.2218 22.4514 63.7374 22.6894V20.4739H62.9321V19.5575H63.7374V18.859C63.7374 18.0645 64.2104 17.6257 64.9348 17.6257C65.2818 17.6257 65.6446 17.6875 65.6446 17.6875V18.4673H65.2447C64.851 18.4673 64.7281 18.7117 64.7281 18.9624V19.5575H65.6074L65.4667 20.4739H64.7281V22.6894C66.2437 22.4514 67.403 21.1398 67.403 19.5575Z" fill="#3E49E1"/>
</g>
<path d="M133.104 40.0512C133.013 39.7129 132.748 39.4466 132.411 39.3562C131.799 39.1919 129.348 39.1919 129.348 39.1919C129.348 39.1919 126.897 39.1919 126.285 39.3562C125.948 39.4466 125.683 39.7129 125.592 40.0512C125.429 40.6642 125.429 41.9433 125.429 41.9433C125.429 41.9433 125.429 43.2224 125.592 43.8354C125.683 44.1737 125.948 44.429 126.285 44.5194C126.897 44.6836 129.348 44.6836 129.348 44.6836C129.348 44.6836 131.799 44.6836 132.411 44.5194C132.748 44.429 133.013 44.1737 133.104 43.8354C133.267 43.2224 133.267 41.9433 133.267 41.9433C133.267 41.9433 133.267 40.6642 133.104 40.0512ZM128.546 43.1046V40.782L130.595 41.9433L128.546 43.1046Z" fill="#E23D3D"/>
<defs>
<clipPath id="clip0">
<rect width="6.54507" height="6.54507" fill="white" transform="translate(60.9596 16.2842)"/>
</clipPath>
</defs>
</svg>
