<svg width="205" height="43" viewBox="0 0 205 43" fill="none" xmlns="http://www.w3.org/2000/svg">
<g clip-path="url(#clip0)">
<path d="M0.396973 11.7515C0.396973 9.11438 2.53479 6.97656 5.17192 6.97656H24.2717C26.9088 6.97656 29.0466 9.11438 29.0466 11.7515V30.8513C29.0466 33.4884 26.9088 35.6262 24.2717 35.6262H5.17192C2.53479 35.6262 0.396973 33.4884 0.396973 30.8513V11.7515Z" fill="#090A08"/>
<path d="M29.0466 6.97656H0.396973V35.6262H29.0466V6.97656Z" fill="#FFFA37"/>
<path fill-rule="evenodd" clip-rule="evenodd" d="M17.994 16.4572C17.3654 15.665 16.3282 15.0342 14.7294 15.0342C13.3603 15.0477 10.6221 15.8054 10.6221 18.7285C10.6221 19.1554 10.6559 19.7272 10.6854 20.1482C10.6506 20.1381 10.6078 20.1192 10.54 20.0867L10.5306 20.0822C10.4107 20.0246 10.2284 19.9371 9.97489 19.9371C9.71877 19.9371 9.47112 20.0374 9.28726 20.1862C9.10451 20.334 8.9484 20.5613 8.9484 20.8361C8.9484 21.1798 9.14184 21.408 9.36802 21.5543C9.56892 21.6842 9.82225 21.7672 10.0228 21.8329L10.0426 21.8394C10.2573 21.9098 10.4146 21.9635 10.5231 22.0311C10.6075 22.0837 10.6203 22.117 10.6219 22.1487C10.6208 22.1532 10.6182 22.1629 10.6126 22.1787C10.601 22.2112 10.5818 22.2551 10.5536 22.3101C10.4975 22.4198 10.4156 22.5546 10.3182 22.6984C10.1218 22.9885 9.88201 23.2859 9.70292 23.4582C9.52627 23.6282 9.23639 23.8394 8.93331 24.0074C8.78301 24.0908 8.63604 24.1599 8.50455 24.2073C8.36882 24.2563 8.26936 24.275 8.2079 24.275C8.15925 24.275 8.11714 24.285 8.09877 24.2896C8.07294 24.296 8.0462 24.3046 8.01976 24.3145C7.96731 24.3342 7.90479 24.3638 7.84287 24.4054C7.72456 24.4851 7.55933 24.6456 7.55933 24.8989C7.55933 25.0311 7.59036 25.143 7.644 25.2401C7.69096 25.3251 7.75133 25.3896 7.78607 25.4267L7.79122 25.4322L7.80084 25.4425C7.9919 25.6481 8.30818 25.7911 8.61521 25.8893C8.87903 25.9736 9.17399 26.0364 9.46142 26.0742C9.46548 26.0927 9.46972 26.1126 9.47436 26.1345L9.47586 26.1416C9.49395 26.2269 9.51792 26.34 9.55322 26.4442C9.58652 26.5425 9.64684 26.6879 9.77032 26.7915C9.92759 26.9234 10.1333 26.9367 10.2675 26.9362C10.4116 26.9356 10.5798 26.9153 10.7394 26.896L10.753 26.8944C10.9776 26.8673 11.2125 26.8394 11.4559 26.8394C11.9 26.8394 12.1846 27.0249 12.6312 27.3299L12.6343 27.332C12.7889 27.4376 12.9622 27.5559 13.159 27.6723C13.8181 28.0617 14.3536 28.0584 14.6571 28.0565C14.6771 28.0563 14.6961 28.0562 14.7141 28.0562C14.7321 28.0562 14.7511 28.0563 14.7713 28.0565C15.0753 28.0584 15.625 28.0619 16.2844 27.6723C16.4813 27.5559 16.6545 27.4376 16.8092 27.332L16.8122 27.3299C17.2589 27.0249 17.5435 26.8394 17.9876 26.8394C18.231 26.8394 18.4659 26.8673 18.6905 26.8944L18.7041 26.896C18.8637 26.9153 19.0319 26.9356 19.176 26.9362C19.3102 26.9367 19.5159 26.9234 19.6732 26.7915C19.7967 26.6879 19.857 26.5425 19.8903 26.4442C19.9256 26.34 19.9495 26.2269 19.9676 26.1416L19.9691 26.1345C19.9738 26.1126 19.978 26.0927 19.9821 26.0742C20.2695 26.0364 20.5645 25.9736 20.8283 25.8893C21.1353 25.7911 21.4516 25.6481 21.6427 25.4425L21.6523 25.4322L21.6574 25.4267C21.6921 25.3896 21.7525 25.3251 21.7995 25.2401C21.8531 25.143 21.8842 25.0311 21.8842 24.8989C21.8842 24.6456 21.7189 24.4851 21.6006 24.4054C21.5387 24.3638 21.4762 24.3342 21.4237 24.3145C21.3973 24.3046 21.3706 24.296 21.3447 24.2896C21.3263 24.285 21.2842 24.275 21.2356 24.275C21.1741 24.275 21.0747 24.2563 20.9389 24.2073C20.8075 24.1599 20.6605 24.0908 20.5102 24.0074C20.2071 23.8394 19.9172 23.6282 19.7406 23.4582C19.5615 23.2859 19.3217 22.9885 19.1253 22.6984C19.0279 22.5546 18.946 22.4198 18.8899 22.3101C18.8617 22.2551 18.8425 22.2112 18.8309 22.1787C18.8253 22.1629 18.8227 22.1532 18.8216 22.1487C18.8232 22.117 18.836 22.0837 18.9204 22.0311C19.0289 21.9635 19.1862 21.9098 19.4009 21.8394L19.4207 21.8329C19.6212 21.7672 19.8746 21.6842 20.0755 21.5543C20.3017 21.408 20.4951 21.1798 20.4951 20.8361C20.4951 20.5613 20.339 20.334 20.1562 20.1862C19.9724 20.0374 19.7247 19.9371 19.4686 19.9371C19.2151 19.9371 19.0328 20.0246 18.9129 20.0822L18.9035 20.0867C18.8357 20.1192 18.7929 20.1381 18.7581 20.1482C18.7876 19.7272 18.8214 19.1554 18.8214 18.7285C18.8214 18.149 18.6107 17.2344 17.994 16.4572ZM11.9761 16.8396C11.4545 17.4925 11.2758 18.2678 11.2758 18.7285C11.2758 19.1557 11.312 19.7492 11.3425 20.1748C11.3526 20.3161 11.3237 20.4808 11.2002 20.6116C11.0753 20.744 10.9053 20.787 10.7535 20.787C10.5343 20.787 10.3675 20.7068 10.2608 20.6554L10.2485 20.6495C10.1294 20.5924 10.0669 20.5659 9.97489 20.5659C9.8912 20.5659 9.78903 20.6019 9.70801 20.6674C9.62589 20.7338 9.60208 20.7989 9.60208 20.8361C9.60208 20.9119 9.63004 20.966 9.73276 21.0324C9.85408 21.1109 10.0269 21.1699 10.2536 21.2442L10.2733 21.2507C10.4615 21.3124 10.6946 21.3887 10.8785 21.5034C11.085 21.6321 11.2758 21.8389 11.2758 22.1576C11.2758 22.2412 11.2527 22.3216 11.231 22.3824C11.2075 22.4485 11.1757 22.5183 11.14 22.5879C11.0686 22.7274 10.9721 22.8849 10.8659 23.0416C10.6553 23.3526 10.3876 23.6888 10.1651 23.9029C9.94021 24.1193 9.60194 24.3625 9.25981 24.5522C9.0875 24.6478 8.90761 24.7335 8.73414 24.7961C8.57887 24.8521 8.41152 24.896 8.25098 24.9029C8.24698 24.9045 8.24256 24.9066 8.23793 24.9089C8.23053 24.9126 8.22361 24.9166 8.21757 24.9207L8.21448 24.9228C8.21508 24.9272 8.21578 24.9304 8.21635 24.9326C8.21764 24.9377 8.21916 24.9412 8.22121 24.945C8.22751 24.9564 8.23743 24.9691 8.27759 25.0121L8.28812 25.0234C8.36046 25.1012 8.53873 25.2022 8.82131 25.2925C9.09044 25.3785 9.40869 25.4407 9.70936 25.4692C9.8598 25.4834 9.9465 25.5774 9.9832 25.6281C10.021 25.6802 10.0426 25.7353 10.0552 25.7718C10.0796 25.8425 10.0981 25.9296 10.1126 25.9983L10.1148 26.0088C10.1347 26.1024 10.1521 26.1825 10.1747 26.2494C10.1828 26.273 10.1902 26.291 10.1965 26.3043C10.2109 26.3059 10.2329 26.3075 10.2647 26.3073C10.403 26.3068 10.5414 26.2862 10.6784 26.2697C10.8975 26.2433 11.1687 26.2106 11.4559 26.2106C12.1219 26.2106 12.5613 26.5108 12.9858 26.8009L13.0096 26.8172C13.1667 26.9245 13.3241 27.0318 13.5012 27.1365C14.0001 27.4313 14.3797 27.4292 14.6571 27.4276C14.6766 27.4275 14.6956 27.4274 14.7141 27.4274C14.7324 27.4274 14.7513 27.4275 14.7708 27.4276C15.0512 27.4291 15.4435 27.4312 15.9423 27.1365C16.1193 27.0318 16.2768 26.9245 16.4339 26.8172L16.4577 26.8009C16.8822 26.5108 17.3216 26.2106 17.9876 26.2106C18.2748 26.2106 18.546 26.2433 18.7651 26.2697L18.7717 26.2705C18.949 26.2918 19.0786 26.3069 19.1788 26.3073C19.2106 26.3075 19.2326 26.3059 19.247 26.3043C19.2533 26.291 19.2607 26.273 19.2687 26.2494C19.2914 26.1825 19.3088 26.1024 19.3286 26.0088L19.3309 25.9983C19.3454 25.9296 19.3639 25.8425 19.3883 25.7718C19.4009 25.7353 19.4225 25.6802 19.4603 25.6281C19.497 25.5774 19.5837 25.4834 19.7341 25.4692C20.0348 25.4407 20.353 25.3785 20.6222 25.2925C20.9048 25.2022 21.083 25.1012 21.1554 25.0234L21.1659 25.0121C21.206 24.9691 21.216 24.9564 21.2223 24.945C21.2243 24.9412 21.2259 24.9377 21.2271 24.9326C21.2277 24.9304 21.2284 24.9272 21.229 24.9228L21.2259 24.9207C21.2199 24.9166 21.213 24.9126 21.2056 24.9089C21.2009 24.9066 21.1965 24.9046 21.1925 24.9029C21.032 24.896 20.8646 24.8521 20.7093 24.7961C20.5359 24.7335 20.356 24.6478 20.1837 24.5522C19.8415 24.3625 19.5033 24.1193 19.2783 23.9029C19.0559 23.6888 18.7882 23.3526 18.5776 23.0416C18.4714 22.8849 18.3749 22.7274 18.3034 22.5879C18.2678 22.5183 18.236 22.4485 18.2125 22.3824C18.1908 22.3216 18.1677 22.2412 18.1677 22.1576C18.1677 21.8389 18.3585 21.6321 18.565 21.5034C18.7489 21.3887 18.982 21.3124 19.1702 21.2507L19.1899 21.2442C19.4165 21.1699 19.5894 21.1109 19.7107 21.0324C19.8135 20.966 19.8414 20.9119 19.8414 20.8361C19.8414 20.7989 19.8176 20.7338 19.7355 20.6674C19.6545 20.6019 19.5523 20.5659 19.4686 20.5659C19.3766 20.5659 19.314 20.5924 19.195 20.6495L19.1826 20.6554C19.076 20.7068 18.9092 20.787 18.69 20.787C18.5382 20.787 18.3682 20.744 18.2433 20.6116C18.1198 20.4808 18.0908 20.3161 18.101 20.1748C18.1315 19.7492 18.1677 19.1557 18.1677 18.7285C18.1677 18.2666 17.9922 17.4912 17.4744 16.8388C16.9687 16.2014 16.1232 15.663 14.7294 15.663C13.3355 15.663 12.4858 16.2016 11.9761 16.8396Z" fill="black"/>
<path fill-rule="evenodd" clip-rule="evenodd" d="M11.976 16.8397C11.4544 17.4926 11.2757 18.2679 11.2757 18.7286C11.2757 19.1558 11.3118 19.7493 11.3424 20.1748C11.3525 20.3162 11.3235 20.4809 11.2001 20.6117C11.0752 20.7441 10.9052 20.787 10.7534 20.787C10.5341 20.787 10.3674 20.7068 10.2607 20.6555L10.2483 20.6496C10.1293 20.5925 10.0668 20.566 9.97477 20.566C9.89108 20.566 9.78891 20.6019 9.70789 20.6675C9.62577 20.7339 9.60196 20.799 9.60196 20.8362C9.60196 20.9119 9.62991 20.9661 9.73264 21.0325C9.85396 21.111 10.0268 21.17 10.2534 21.2443L10.2732 21.2508C10.4614 21.3124 10.6945 21.3888 10.8784 21.5035C11.0849 21.6322 11.2757 21.839 11.2757 22.1577C11.2757 22.2412 11.2526 22.3216 11.2309 22.3825C11.2073 22.4486 11.1756 22.5184 11.1399 22.588C11.0685 22.7275 10.9719 22.885 10.8658 23.0417C10.6552 23.3527 10.3875 23.6889 10.165 23.903C9.94009 24.1193 9.60182 24.3625 9.25969 24.5523C9.08738 24.6479 8.90749 24.7336 8.73402 24.7962C8.57875 24.8522 8.4114 24.8961 8.25086 24.9029C8.24686 24.9046 8.24244 24.9066 8.23781 24.909C8.23041 24.9127 8.22348 24.9167 8.21745 24.9208L8.21436 24.9229C8.21496 24.9273 8.21565 24.9305 8.21623 24.9327C8.21752 24.9377 8.21904 24.9413 8.22109 24.945C8.22739 24.9564 8.23731 24.9691 8.27747 25.0121L8.288 25.0235C8.36034 25.1013 8.53861 25.2023 8.82119 25.2926C9.09032 25.3786 9.40856 25.4407 9.70924 25.4693C9.85967 25.4835 9.94638 25.5775 9.98308 25.6282C10.0209 25.6803 10.0425 25.7354 10.0551 25.7719C10.0795 25.8426 10.098 25.9297 10.1125 25.9984L10.1147 26.0088C10.1346 26.1025 10.152 26.1825 10.1746 26.2495C10.1826 26.2731 10.19 26.2911 10.1964 26.3044C10.2107 26.306 10.2327 26.3076 10.2646 26.3074C10.4029 26.3069 10.5413 26.2863 10.6783 26.2697C10.8974 26.2433 11.1686 26.2107 11.4558 26.2107C12.1217 26.2107 12.5612 26.5109 12.9857 26.801L13.0095 26.8173C13.1666 26.9245 13.324 27.0319 13.5011 27.1365C14 27.4314 14.3796 27.4292 14.6569 27.4277C14.6764 27.4276 14.6955 27.4275 14.714 27.4275C14.7323 27.4275 14.7512 27.4276 14.7706 27.4277C15.051 27.4292 15.4434 27.4313 15.9422 27.1365C16.1192 27.0319 16.2766 26.9245 16.4337 26.8173L16.4576 26.801C16.8821 26.5109 17.3215 26.2107 17.9875 26.2107C18.2746 26.2107 18.5458 26.2433 18.765 26.2697L18.7716 26.2705C18.9488 26.2919 19.0785 26.307 19.1786 26.3074C19.2105 26.3076 19.2325 26.306 19.2469 26.3044C19.2532 26.2911 19.2606 26.2731 19.2686 26.2495C19.2913 26.1825 19.3087 26.1025 19.3285 26.0088L19.3307 25.9984C19.3453 25.9297 19.3637 25.8426 19.3882 25.7719C19.4008 25.7354 19.4224 25.6803 19.4602 25.6282C19.4969 25.5775 19.5836 25.4835 19.734 25.4693C20.0347 25.4407 20.3529 25.3786 20.6221 25.2926C20.9046 25.2023 21.0829 25.1013 21.1552 25.0235L21.1658 25.0122C21.2059 24.9691 21.2159 24.9564 21.2222 24.945C21.2242 24.9413 21.2257 24.9377 21.227 24.9327C21.2276 24.9305 21.2283 24.9273 21.2289 24.9229L21.2258 24.9208C21.2198 24.9167 21.2128 24.9127 21.2054 24.909C21.2008 24.9066 21.1964 24.9046 21.1924 24.9029C21.0318 24.8961 20.8645 24.8522 20.7092 24.7962C20.5358 24.7336 20.3559 24.6479 20.1836 24.5523C19.8414 24.3625 19.5032 24.1193 19.2782 23.903C19.0557 23.6889 18.788 23.3527 18.5774 23.0417C18.4713 22.885 18.3747 22.7275 18.3033 22.588C18.2677 22.5184 18.2359 22.4486 18.2124 22.3825C18.1907 22.3216 18.1676 22.2412 18.1676 22.1577C18.1676 21.839 18.3584 21.6322 18.5648 21.5035C18.7488 21.3888 18.9819 21.3124 19.1701 21.2508L19.1898 21.2443C19.4164 21.17 19.5893 21.111 19.7106 21.0325C19.8133 20.9661 19.8413 20.9119 19.8413 20.8362C19.8413 20.799 19.8175 20.7339 19.7354 20.6675C19.6543 20.6019 19.5522 20.566 19.4685 20.566C19.3765 20.566 19.3139 20.5925 19.1949 20.6496L19.1825 20.6555C19.0758 20.7068 18.9091 20.787 18.6899 20.787C18.538 20.787 18.3681 20.7441 18.2431 20.6117C18.1197 20.4809 18.0907 20.3162 18.1009 20.1748C18.1314 19.7493 18.1676 19.1558 18.1676 18.7286C18.1676 18.2667 17.992 17.4913 17.4743 16.8389C16.9685 16.2015 16.1231 15.6631 14.7293 15.6631C13.3353 15.6631 12.4857 16.2017 11.976 16.8397Z" fill="white"/>
</g>
<g clip-path="url(#clip1)">
<path d="M74.4085 2.20166H36.209V40.4012H74.4085V2.20166Z" fill="#1877F2"/>
<path d="M64.8586 21.3014C64.8586 16.0489 60.5611 11.7515 55.3087 11.7515C50.0562 11.7515 45.7588 16.0489 45.7588 21.3014C45.7588 26.0763 49.2206 30.0156 53.7568 30.7319V24.0469H51.3693V21.3014H53.7568V19.1526C53.7568 16.7652 55.1893 15.452 57.338 15.452C58.4124 15.452 59.4868 15.6908 59.4868 15.6908V18.0783H58.293C57.0993 18.0783 56.7412 18.7945 56.7412 19.5108V21.3014H59.3674L58.8899 24.0469H56.6218V30.8512C61.3967 30.135 64.8586 26.0763 64.8586 21.3014Z" fill="white"/>
</g>
<g clip-path="url(#clip2)">
<rect x="81.571" y="0.173828" width="42.2548" height="42.2548" fill="url(#paint0_radial)"/>
<rect x="81.571" y="0.173828" width="42.2548" height="42.2548" fill="url(#paint1_radial)"/>
<rect x="81.571" y="0.173828" width="42.2548" height="42.2548" fill="url(#paint2_radial)"/>
<path d="M102.699 12.322C105.604 12.322 106 12.322 107.188 12.322C108.245 12.322 108.773 12.5861 109.169 12.7181C109.697 12.9822 110.093 13.1143 110.489 13.5104C110.885 13.9066 111.15 14.3027 111.282 14.8309C111.414 15.227 111.546 15.7552 111.678 16.8116C111.678 18 111.678 18.2641 111.678 21.3011C111.678 24.3382 111.678 24.6023 111.678 25.7907C111.678 26.8471 111.414 27.3753 111.282 27.7714C111.018 28.2996 110.885 28.6957 110.489 29.0919C110.093 29.488 109.697 29.7521 109.169 29.8841C108.773 30.0162 108.245 30.1482 107.188 30.2803C106 30.2803 105.736 30.2803 102.699 30.2803C99.6615 30.2803 99.3974 30.2803 98.209 30.2803C97.1527 30.2803 96.6245 30.0162 96.2283 29.8841C95.7002 29.6201 95.304 29.488 94.9079 29.0919C94.5117 28.6957 94.2476 28.2996 94.1156 27.7714C93.9836 27.3753 93.8515 26.8471 93.7195 25.7907C93.7195 24.6023 93.7195 24.3382 93.7195 21.3011C93.7195 18.2641 93.7195 18 93.7195 16.8116C93.7195 15.7552 93.9836 15.227 94.1156 14.8309C94.3797 14.3027 94.5117 13.9066 94.9079 13.5104C95.304 13.1143 95.7002 12.8502 96.2283 12.7181C96.6245 12.5861 97.1527 12.454 98.209 12.322C99.3974 12.322 99.7936 12.322 102.699 12.322ZM102.699 10.3413C99.6615 10.3413 99.3974 10.3413 98.209 10.3413C97.0206 10.3413 96.2283 10.6054 95.5681 10.8695C94.9079 11.1336 94.2476 11.5297 93.5874 12.19C92.9272 12.8502 92.6631 13.3784 92.267 14.1706C92.0029 14.8309 91.8708 15.6232 91.7388 16.8116C91.7388 18 91.7388 18.3961 91.7388 21.3011C91.7388 24.3382 91.7388 24.6023 91.7388 25.7907C91.7388 26.9791 92.0029 27.7714 92.267 28.4316C92.531 29.0919 92.9272 29.7521 93.5874 30.4123C94.2476 31.0726 94.7758 31.3367 95.5681 31.7328C96.2283 31.9969 97.0206 32.1289 98.209 32.261C99.3974 32.261 99.7936 32.261 102.699 32.261C105.604 32.261 106 32.261 107.188 32.261C108.377 32.261 109.169 31.9969 109.829 31.7328C110.489 31.4687 111.15 31.0726 111.81 30.4123C112.47 29.7521 112.734 29.2239 113.13 28.4316C113.394 27.7714 113.526 26.9791 113.658 25.7907C113.658 24.6023 113.658 24.2062 113.658 21.3011C113.658 18.3961 113.658 18 113.658 16.8116C113.658 15.6232 113.394 14.8309 113.13 14.1706C112.866 13.5104 112.47 12.8502 111.81 12.19C111.15 11.5297 110.621 11.2656 109.829 10.8695C109.169 10.6054 108.377 10.4734 107.188 10.3413C106 10.3413 105.736 10.3413 102.699 10.3413Z" fill="white"/>
<path d="M102.699 15.6232C99.5295 15.6232 97.0206 18.132 97.0206 21.3011C97.0206 24.4703 99.5295 26.9791 102.699 26.9791C105.868 26.9791 108.377 24.4703 108.377 21.3011C108.377 18.132 105.868 15.6232 102.699 15.6232ZM102.699 24.9984C100.718 24.9984 99.0013 23.4139 99.0013 21.3011C99.0013 19.3205 100.586 17.6038 102.699 17.6038C104.679 17.6038 106.396 19.1884 106.396 21.3011C106.396 23.2818 104.679 24.9984 102.699 24.9984Z" fill="white"/>
<path d="M108.509 16.8116C109.238 16.8116 109.829 16.2204 109.829 15.4911C109.829 14.7618 109.238 14.1706 108.509 14.1706C107.779 14.1706 107.188 14.7618 107.188 15.4911C107.188 16.2204 107.779 16.8116 108.509 16.8116Z" fill="white"/>
</g>
<g clip-path="url(#clip3)">
<path d="M130.988 6.9766C130.988 4.33947 133.126 2.20166 135.763 2.20166H164.413C167.05 2.20166 169.188 4.33948 169.188 6.97661V35.6263C169.188 38.2634 167.05 40.4012 164.413 40.4012H135.763C133.126 40.4012 130.988 38.2634 130.988 35.6263V6.9766Z" fill="#090A08"/>
<path d="M169.188 2.20166H130.988V40.4012H169.188V2.20166Z" fill="#F5F5F5"/>
<path d="M144.797 24.5109C144.905 23.6198 145.27 23.1209 145.959 22.6094C146.944 21.9167 148.175 22.3085 148.175 22.3085V19.9841C148.475 19.9764 148.774 19.9942 149.07 20.0371V23.0284C149.07 23.0284 147.839 22.6366 146.854 23.3297C146.166 23.8408 145.799 24.34 145.692 25.2311C145.689 25.715 145.78 26.3475 146.198 26.8944C146.094 26.8414 145.989 26.781 145.882 26.7132C144.96 26.0947 144.793 25.1667 144.797 24.5109ZM154.153 15.6862C153.475 14.9433 153.218 14.1934 153.126 13.6665H153.978C153.978 13.6665 153.808 15.0479 155.048 16.4064L155.065 16.4247C154.731 16.2146 154.424 15.9666 154.153 15.6862ZM158.261 17.7921V20.7233C158.261 20.7233 157.172 20.6807 156.367 20.4758C155.243 20.1893 154.52 19.7498 154.52 19.7498C154.52 19.7498 154.021 19.4365 153.98 19.4146V25.4675C153.98 25.8045 153.888 26.6462 153.607 27.3482C153.239 28.2665 152.672 28.8693 152.568 28.9925C152.568 28.9925 151.879 29.8073 150.662 30.356C149.566 30.851 148.603 30.8385 148.315 30.851C148.315 30.851 146.651 30.9169 145.154 29.9438C144.83 29.7293 144.528 29.4864 144.251 29.2182L144.259 29.2235C145.756 30.1967 147.42 30.1308 147.42 30.1308C147.708 30.1182 148.671 30.1308 149.767 29.6358C150.982 29.0871 151.673 28.2723 151.673 28.2723C151.776 28.1491 152.345 27.5463 152.711 26.6276C152.992 25.926 153.085 25.0839 153.085 24.7469V18.6947C153.125 18.7169 153.624 19.0303 153.624 19.0303C153.624 19.0303 154.347 19.4701 155.472 19.7563C156.277 19.9612 157.365 20.0038 157.365 20.0038V17.7069C157.737 17.7904 158.055 17.8129 158.261 17.7921Z" fill="#EE1D52"/>
<path d="M157.366 17.7069V20.0031C157.366 20.0031 156.278 19.9604 155.472 19.7556C154.348 19.4691 153.625 19.0296 153.625 19.0296C153.625 19.0296 153.126 18.7162 153.085 18.694V24.7476C153.085 25.0846 152.993 25.9267 152.712 26.6283C152.344 27.547 151.777 28.1498 151.673 28.273C151.673 28.273 150.983 29.0878 149.767 29.6365C148.671 30.1315 147.709 30.1189 147.421 30.1315C147.421 30.1315 145.757 30.1974 144.259 29.2243L144.252 29.2189C144.093 29.0658 143.945 28.9041 143.806 28.7346C143.328 28.1519 143.035 27.4628 142.961 27.2662C142.961 27.2654 142.961 27.2645 142.961 27.2637C142.843 26.922 142.594 26.1015 142.628 25.3067C142.688 23.9045 143.181 23.0438 143.312 22.8282C143.657 22.2403 144.106 21.7142 144.639 21.2735C145.11 20.8931 145.643 20.5905 146.217 20.3781C146.838 20.1286 147.502 19.9949 148.175 19.9841V22.3085C148.175 22.3085 146.944 21.9181 145.959 22.6094C145.271 23.1208 144.905 23.6198 144.798 24.5109C144.793 25.1667 144.961 26.0947 145.881 26.7136C145.989 26.7816 146.094 26.842 146.197 26.8948C146.358 27.1038 146.554 27.2859 146.777 27.4338C147.676 28.0029 148.429 28.0427 149.392 27.6731C150.035 27.4259 150.518 26.869 150.743 26.2519C150.884 25.8665 150.882 25.4786 150.882 25.0775V13.6665H153.124C153.216 14.1934 153.473 14.9433 154.151 15.6862C154.423 15.9666 154.729 16.2146 155.063 16.4247C155.162 16.5268 155.666 17.0314 156.314 17.3412C156.648 17.5014 157.001 17.6241 157.366 17.7069Z" fill="black"/>
<path d="M142.069 26.5527V26.5545L142.124 26.7053C142.118 26.6878 142.097 26.6344 142.069 26.5527Z" fill="#69C9D0"/>
<path d="M146.217 20.3784C145.643 20.5909 145.11 20.8935 144.64 21.2738C144.106 21.7155 143.657 22.2427 143.312 22.8318C143.182 23.0467 142.689 23.9081 142.628 25.3103C142.594 26.105 142.843 26.9256 142.962 27.2672C142.962 27.2681 142.962 27.2689 142.962 27.2697C143.036 27.4646 143.328 28.1537 143.806 28.7382C143.945 28.9076 144.094 29.0693 144.252 29.2224C143.745 28.8866 143.294 28.4806 142.911 28.0176C142.437 27.4399 142.145 26.7579 142.069 26.5567C142.069 26.5552 142.069 26.5538 142.069 26.5524V26.5498C141.95 26.2085 141.7 25.3876 141.735 24.5918C141.795 23.1896 142.289 22.3289 142.419 22.1133C142.764 21.5242 143.213 20.997 143.746 20.5553C144.217 20.1749 144.75 19.8723 145.324 19.6599C145.682 19.5175 146.055 19.4124 146.437 19.3465C147.012 19.2503 147.599 19.242 148.177 19.3218V19.9844C147.504 19.995 146.838 20.1287 146.217 20.3784Z" fill="#69C9D0"/>
<path d="M153.126 13.6664H150.884V25.0777C150.884 25.4789 150.884 25.8657 150.745 26.2522C150.518 26.8689 150.037 27.4258 149.395 27.673C148.431 28.044 147.677 28.0028 146.779 27.4337C146.556 27.2865 146.359 27.105 146.198 26.8965C146.964 27.288 147.649 27.2811 148.498 26.9545C149.14 26.7074 149.622 26.1504 149.848 25.5333C149.989 25.1479 149.987 24.7601 149.987 24.3593V12.9458H153.083C153.083 12.9458 153.049 13.2295 153.126 13.6664ZM157.366 17.0718V17.7068C157.002 17.6238 156.65 17.5012 156.316 17.3411C155.668 17.0313 155.164 16.5267 155.065 16.4246C155.179 16.4966 155.298 16.5622 155.421 16.6209C156.208 16.9977 156.983 17.1101 157.366 17.0718Z" fill="#69C9D0"/>
</g>
<g clip-path="url(#clip4)">
<path d="M205 6.97656H176.35V35.6262H205V6.97656Z" fill="#1DA1F2"/>
<path d="M197.837 16.8249C197.3 17.0935 196.763 17.183 196.136 17.2725C196.763 16.9144 197.211 16.3772 197.39 15.661C196.852 16.0191 196.226 16.1982 195.51 16.3772C194.972 15.8401 194.167 15.4819 193.361 15.4819C191.481 15.4819 190.048 17.2725 190.496 19.0631C188.078 18.9736 185.93 17.8097 184.408 16.0191C183.602 17.3621 184.05 19.0631 185.303 19.9584C184.855 19.9584 184.408 19.7794 183.96 19.6003C183.96 20.9433 184.945 22.1967 186.288 22.5548C185.84 22.6444 185.393 22.7339 184.945 22.6444C185.303 23.8082 186.377 24.7035 187.72 24.7035C186.646 25.5093 185.034 25.957 183.512 25.7779C184.855 26.5837 186.377 27.1209 187.989 27.1209C193.45 27.1209 196.494 22.5548 196.315 18.3469C196.942 17.9888 197.479 17.4516 197.837 16.8249Z" fill="white"/>
</g>
<defs>
<radialGradient id="paint0_radial" cx="0" cy="0" r="1" gradientUnits="userSpaceOnUse" gradientTransform="translate(96.662 31.8649) rotate(-55.3758) scale(38.5116)">
<stop stop-color="#B13589"/>
<stop offset="0.79309" stop-color="#C62F94"/>
<stop offset="1" stop-color="#8A3AC8"/>
</radialGradient>
<radialGradient id="paint1_radial" cx="0" cy="0" r="1" gradientUnits="userSpaceOnUse" gradientTransform="translate(95.1529 43.9377) rotate(-65.1363) scale(34.097)">
<stop stop-color="#E0E8B7"/>
<stop offset="0.444662" stop-color="#FB8A2E"/>
<stop offset="0.71474" stop-color="#E2425C"/>
<stop offset="1" stop-color="#E2425C" stop-opacity="0"/>
</radialGradient>
<radialGradient id="paint2_radial" cx="0" cy="0" r="1" gradientUnits="userSpaceOnUse" gradientTransform="translate(79.3074 1.68293) rotate(-8.1301) scale(58.6902 12.5532)">
<stop offset="0.156701" stop-color="#406ADC"/>
<stop offset="0.467799" stop-color="#6A45BE"/>
<stop offset="1" stop-color="#6A45BE" stop-opacity="0"/>
</radialGradient>
<clipPath id="clip0">
<path d="M0.396973 11.7515C0.396973 9.11438 2.53479 6.97656 5.17192 6.97656H24.2717C26.9088 6.97656 29.0466 9.11438 29.0466 11.7515V30.8513C29.0466 33.4884 26.9088 35.6262 24.2717 35.6262H5.17192C2.53479 35.6262 0.396973 33.4884 0.396973 30.8513V11.7515Z" fill="white"/>
</clipPath>
<clipPath id="clip1">
<path d="M36.209 6.9766C36.209 4.33947 38.3468 2.20166 40.9839 2.20166H69.6336C72.2707 2.20166 74.4085 4.33948 74.4085 6.97661V35.6263C74.4085 38.2634 72.2707 40.4012 69.6336 40.4012H40.9839C38.3468 40.4012 36.209 38.2634 36.209 35.6263V6.9766Z" fill="white"/>
</clipPath>
<clipPath id="clip2">
<path d="M81.571 4.94877C81.571 2.31164 83.7089 0.173828 86.346 0.173828H119.051C121.688 0.173828 123.826 2.31164 123.826 4.94877V37.6537C123.826 40.2908 121.688 42.4286 119.051 42.4286H86.346C83.7089 42.4286 81.571 40.2908 81.571 37.6537V4.94877Z" fill="white"/>
</clipPath>
<clipPath id="clip3">
<path d="M130.988 6.9766C130.988 4.33947 133.126 2.20166 135.763 2.20166H164.413C167.05 2.20166 169.188 4.33948 169.188 6.97661V35.6263C169.188 38.2634 167.05 40.4012 164.413 40.4012H135.763C133.126 40.4012 130.988 38.2634 130.988 35.6263V6.9766Z" fill="white"/>
</clipPath>
<clipPath id="clip4">
<path d="M176.35 11.7515C176.35 9.11438 178.488 6.97656 181.125 6.97656H200.225C202.862 6.97656 205 9.11438 205 11.7515V30.8513C205 33.4884 202.862 35.6262 200.225 35.6262H181.125C178.488 35.6262 176.35 33.4884 176.35 30.8513V11.7515Z" fill="white"/>
</clipPath>
</defs>
</svg>
