<svg width="184" height="117" viewBox="0 0 184 117" fill="none" xmlns="http://www.w3.org/2000/svg">
<mask id="mask0" mask-type="alpha" maskUnits="userSpaceOnUse" x="0" y="0" width="184" height="117">
<path d="M0.907227 111.429C0.907227 114.506 3.40164 117 6.47865 117H177.521C180.598 117 183.093 114.506 183.093 111.429V5.57153C183.093 2.49452 180.598 0.000114441 177.521 0.000114441H6.47865C3.40164 0.000114441 0.907227 2.49452 0.907227 5.57153V111.429Z" fill="#FFDCD6"/>
</mask>
<g mask="url(#mask0)">
<rect x="15" y="32" width="154" height="37" rx="4" fill="#F58F7E"/>
<path d="M85 22H89M93 22H89M93 79H89M85 79H89M89 79V22" stroke="#3E49E1" stroke-width="3" stroke-linecap="round" stroke-linejoin="round"/>
<path d="M23.0575 45.3377H27.8157V58.3945H30.5819V45.3377H35.34V43H23.0575V45.3377Z" fill="white"/>
<path d="M41.0246 58.62C43.7157 58.62 45.5648 57.3046 46.0459 55.2976L43.5052 55.0119C43.1369 55.9891 42.2348 56.5002 41.0622 56.5002C39.3033 56.5002 38.1382 55.3427 38.1156 53.3657H46.1586V52.5314C46.1586 48.4798 43.7232 46.6983 40.8818 46.6983C37.5744 46.6983 35.4171 49.1262 35.4171 52.6892C35.4171 56.3123 37.5443 58.62 41.0246 58.62ZM38.1231 51.5316C38.2058 50.0583 39.2958 48.818 40.9194 48.818C42.4829 48.818 43.5352 49.9606 43.5503 51.5316H38.1231Z" fill="white"/>
<path d="M50.4583 46.8486H47.5718L50.9995 52.6216L47.4816 58.3945H50.3681L52.7885 54.2377L55.2315 58.3945H58.0954L54.5549 52.6216L58.0352 46.8486H55.1563L52.7885 51.1107L50.4583 46.8486Z" fill="white"/>
<path d="M65.9054 46.8486H63.6278V44.0824H60.9067V46.8486H59.268V48.9533H60.9067V55.3727C60.8916 57.5451 62.4702 58.6125 64.5148 58.5523C65.289 58.5298 65.8227 58.3795 66.1158 58.2817L65.6573 56.1545C65.507 56.1921 65.1988 56.2597 64.8605 56.2597C64.1765 56.2597 63.6278 56.0192 63.6278 54.9217V48.9533H65.9054V46.8486Z" fill="white"/>
</g>
</svg>
