<svg width="124" height="107" viewBox="0 0 124 107" fill="none" xmlns="http://www.w3.org/2000/svg">
<path d="M0.970188 44.8049V44.0194L0.405029 44.3458V45.1313L0.970188 44.8049Z" fill="#F4CABE"/>
<path d="M28.8148 41.7506V53.1403L24.4803 51.8682C23.6836 51.634 22.707 51.7875 21.9482 52.1109C21.6812 52.2258 21.4249 52.3557 21.1758 52.4992L17.887 54.3974C17.3016 54.7351 16.6727 55.0063 15.9917 55.1013C15.3142 55.1962 14.5868 55.1177 14.0064 54.7822C13.4261 54.4466 12.9935 53.8556 12.7365 53.2231C12.4773 52.5842 12.3988 51.9024 12.3988 51.2293V47.0175C12.3988 43.5866 14.7974 39.2956 17.887 37.5124L23.014 34.5527C24.678 33.5918 26.1721 33.4933 27.2279 34.1015C28.2123 34.6719 28.8148 35.8605 28.8148 37.5409V41.7506Z" fill="#E23D3D"/>
<path d="M24.9584 41.2405C24.7549 41.1427 24.4751 41.1863 24.1674 41.3626L22.5862 42.2764C22.5862 42.2764 22.8175 41.212 22.8967 40.8551C23.0174 40.3132 23.0416 39.902 22.9724 39.5608C22.9367 39.3838 22.8739 39.1639 22.699 39.0383C22.5741 38.949 22.4184 38.9341 22.235 38.994C21.9644 39.0832 21.8002 39.2638 21.7024 39.5937L21.3527 41.0207C21.3262 41.1306 21.3005 41.222 21.2606 41.3055C21.0086 41.8452 20.7038 42.4034 20.354 42.9952V48.1293C21.302 47.8538 22.7268 47.2784 22.8239 47.232L22.9881 47.1449C23.7555 46.7016 24.4301 45.7964 24.6272 44.9191C24.8056 44.1281 25.1733 42.2706 25.1733 42.2706C25.2018 42.145 25.2354 42.0029 25.2425 41.8645C25.2582 41.5582 25.1576 41.3362 24.9584 41.2405ZM19.079 49.4022L18.4415 49.7705C17.9718 50.0418 17.5913 49.8811 17.5913 49.4107V45.7979C17.5913 45.3281 17.9718 44.7285 18.4415 44.4565L19.9292 43.5977V48.0615C19.9292 48.5312 19.5487 49.1309 19.079 49.4022Z" fill="white"/>
<path d="M10.2879 52.6359C9.09505 51.9491 8.6803 50.4686 8.6803 49.0837V44.8719C8.6803 41.4411 11.0803 37.1507 14.1685 35.3668L19.2955 32.4071C20.594 31.659 22.2295 31.2142 23.5115 31.9559L23.5801 31.9966C24.7972 32.6977 26.0108 33.3994 27.2279 34.1011C26.1721 33.4929 24.678 33.5914 23.014 34.5523L17.887 37.512C14.7974 39.2952 12.3988 43.5862 12.3988 47.017V51.2288C12.3988 51.902 12.4773 52.5838 12.7365 53.2227C12.9935 53.8552 13.4261 54.4462 14.0064 54.7817C12.7672 54.0657 11.5272 53.3519 10.2879 52.6359Z" fill="#EF5E5E"/>
<path d="M123.595 45.7473C123.595 48.1714 121.157 49.9083 118.498 49.9083H115.443C114.292 49.9083 113.221 50.2266 112.375 50.7474L108.35 53.2261C108.35 50.9833 108.35 45.5258 108.35 42.9822C108.35 41.7553 109.079 40.3944 110.712 39.5419C111.643 39.0561 112.706 38.8212 113.737 38.8212H118.498C120.312 38.8212 122.243 39.6572 123.126 41.2401C123.422 41.7697 123.595 42.3806 123.595 42.9822C123.595 43.6168 123.595 45.0875 123.595 45.7473Z" fill="#EF5E5E"/>
<path d="M123.595 40.9895V42.9824C123.595 42.3808 123.422 41.7699 123.126 41.2403C122.243 39.6574 120.311 38.8214 118.498 38.8214H113.737C112.705 38.8214 111.642 39.0563 110.711 39.542C109.079 40.3945 108.35 41.7554 108.35 42.9824V40.9895C108.35 39.7625 109.079 38.4016 110.711 37.5496C111.642 37.0634 112.705 36.8285 113.737 36.8285H118.498C120.311 36.8285 122.243 37.665 123.126 39.2474C123.422 39.7769 123.595 40.3878 123.595 40.9895Z" fill="#E23D3D"/>
<path d="M113.335 43.8248C113.204 43.9629 113.138 44.1468 113.149 44.342C113.154 44.4306 113.175 44.5109 113.194 44.582C113.194 44.582 113.436 45.6627 113.553 46.115C113.682 46.6156 114.125 46.9546 114.629 46.9546L114.737 46.9494C114.801 46.9433 115.736 46.781 116.359 46.6028V43.2314C116.129 42.9754 115.929 42.7241 115.763 42.4655C115.737 42.4258 115.72 42.3758 115.703 42.3135L115.473 41.5089C115.409 41.3297 115.302 41.273 115.124 41.3173C115.003 41.3477 114.901 41.4162 114.819 41.5218C114.704 41.6712 114.663 41.8391 114.639 41.9689C114.594 42.2192 114.61 42.4799 114.689 42.79C114.741 42.9945 114.893 43.6054 114.893 43.6054H113.854C113.652 43.6059 113.469 43.6837 113.335 43.8248ZM117.196 46.9546C116.887 46.9546 116.638 46.7053 116.638 46.3967V43.4658H117.615C117.923 43.4658 118.173 43.7156 118.173 44.0242V46.3967C118.173 46.7053 117.923 46.9546 117.615 46.9546H117.196Z" fill="white"/>
<path d="M116.742 51.4727C116.892 50.9267 116.717 52.1835 116.742 51.4727V51.4727Z" fill="#F7643B"/>
<path d="M79.8814 55.0283L79.9044 55.002C80.1339 54.7331 81.949 52.6002 81.9762 52.549C81.949 52.6002 80.1339 54.7331 79.9044 55.002L79.8814 55.0283ZM79.8814 55.0283L79.8794 55.028H79.8798C79.8794 55.028 79.8791 55.028 79.8784 55.028L79.8771 55.0277C79.8676 55.026 79.8161 55.0168 79.7303 55.002C79.7678 54.9978 79.799 54.9958 79.8236 54.9958C79.8775 54.9958 79.8995 55.0057 79.8814 55.0283Z" fill="#4D5B98"/>
<path d="M79.8821 55.0283L79.8784 55.0279C79.8793 55.0279 79.8798 55.0279 79.8803 55.0279L79.8821 55.0283Z" fill="#5D69A5"/>
<path d="M80.8622 50.2622C80.8618 50.2619 80.8618 50.2616 80.8615 50.2609C80.8618 50.2616 80.8618 50.2619 80.8622 50.2622ZM80.8553 50.2455C80.8546 50.2435 80.8536 50.2412 80.8526 50.2392C80.8536 50.2412 80.8546 50.2435 80.8553 50.2455ZM80.8487 50.229C80.8471 50.2251 80.8454 50.2212 80.8438 50.2172C80.8454 50.2212 80.8471 50.2251 80.8487 50.229ZM80.8418 50.2123C80.2573 48.7624 79.9397 47.2131 79.8616 45.65L79.8635 45.6808L79.8694 45.7498L79.8688 45.7501C79.9552 47.2791 80.2698 48.7933 80.8418 50.2123Z" fill="#450067"/>
<path d="M40.3669 17.9357C38.1247 20.0982 36.6725 22.3107 36.9314 23.0814C36.9559 23.1922 37.0531 23.2936 37.1743 23.3431L37.1922 23.345C37.297 23.3747 37.4224 23.3879 37.5332 23.3643C38.3384 23.271 39.3137 22.6173 39.9599 22.1631C42.8907 20.1482 46.397 16.0061 45.8692 14.8803C45.8395 14.8228 45.7918 14.7633 45.7244 14.7199L45.6905 14.6982L45.6211 14.6723C44.8349 14.4237 42.6092 15.7736 40.3669 17.9357Z" fill="#FFD77E"/>
<path d="M44.275 13.2586C43.9014 12.8742 42.7935 13.26 41.3267 14.2759C39.8603 15.2923 38.252 16.7823 37.0602 18.2628C35.6839 19.9409 35.0853 21.287 35.5084 21.7134L37.0229 23.2363C36.9734 23.1948 36.9455 23.1194 36.9319 23.0816C36.6743 22.293 38.1247 20.0984 40.3669 17.9364C42.5893 15.7899 44.8348 14.424 45.6192 14.6905C45.6192 14.6905 45.6706 14.7146 45.7225 14.7381C45.7758 14.7438 46.0838 15.0673 44.275 13.2586Z" fill="#E08A13"/>
<path d="M71.9546 7.85954C73.7844 7.51064 74.9073 6.82185 74.9914 6.00553L75.2488 3.43025C75.2457 3.51357 75.2081 3.61253 75.1796 3.68645C74.65 4.96979 71.2826 5.72156 67.3348 5.36132C63.3522 5.01594 60.1722 3.6755 59.9024 2.29947C59.857 2.19738 59.9497 1.1718 59.681 4.63341C59.5781 5.9097 62.0224 7.25249 65.5352 7.82864C67.7522 8.20766 70.1264 8.20844 71.9546 7.85954Z" fill="#E08A13"/>
<path d="M59.8852 2.30663C60.1547 3.68267 63.3519 5.01529 67.3165 5.36849C71.2823 5.7213 74.6324 4.97695 75.1624 3.69401C75.5657 2.63128 74.1134 1.76608 73.0702 1.31157C70.6131 0.261354 67.0517 -0.149739 64.602 0.0473967C63.3456 0.119367 61.679 0.37478 60.6237 1.03268C60.2885 1.24429 59.9415 1.56463 59.8747 1.96321C59.8614 2.07155 59.8778 2.28981 59.8852 2.30663Z" fill="#FF9F1B"/>
<path d="M73.5336 3.66688C73.8911 3.50651 74.0389 3.37861 74.1086 3.30664C74.0151 3.14353 73.6204 2.76685 72.6269 2.33112C70.2938 1.32784 66.8638 0.9809 64.691 1.15652C63.9526 1.20033 62.5844 1.34271 61.5959 1.78626C61.4598 1.84728 61.3409 1.90087 61.2294 1.97127C61.1344 2.03425 61.0648 2.10661 61.0214 2.1465C61.31 2.65264 63.4238 3.89765 67.4302 4.25241C69.887 4.4828 72.2385 4.24772 73.5336 3.66688Z" fill="#FFD77E"/>
<path d="M83.9118 26.0181C85.2579 24.9406 85.8786 23.8911 85.5935 23.1864L84.6895 20.9681C84.7233 21.0377 84.7351 21.1349 84.744 21.2078C84.8658 22.4869 82.4364 24.56 79.0504 25.9741C75.642 27.4157 72.4599 27.6955 71.6438 26.6867C71.5624 26.6227 71.1943 25.7436 72.4727 28.6925C72.9413 29.7811 75.5221 29.8215 78.6464 28.772C80.624 28.1224 82.5668 27.0952 83.9118 26.0181Z" fill="#E08A13"/>
<path d="M71.6334 26.7005C72.4498 27.7094 75.6424 27.4161 79.0393 25.9883C82.4368 24.5604 84.8557 22.5008 84.7336 21.2217C84.6038 20.1777 83.041 20.0986 81.9908 20.1781C79.5256 20.3826 76.4338 21.5878 74.5147 22.8098C73.5177 23.4127 72.2643 24.3434 71.686 25.3384C71.5034 25.6569 71.3579 26.0687 71.4761 26.424C71.5119 26.5183 71.6199 26.69 71.6334 26.7005Z" fill="#FF9F1B"/>
<path d="M83.3889 21.9045C83.6122 21.6185 83.6775 21.45 83.7035 21.3607C83.5564 21.2678 83.0707 21.1302 82.0694 21.2041C79.726 21.3932 76.7692 22.5945 75.0675 23.6785C74.4823 24.0338 73.4245 24.7428 72.8075 25.5336C72.7227 25.6426 72.6482 25.7378 72.5878 25.8439C72.5375 25.9365 72.5113 26.0262 72.4935 26.0774C72.9484 26.3664 75.2175 26.4701 78.6489 25.0259C80.7591 24.1504 82.5807 22.9406 83.3889 21.9045Z" fill="#FFD77E"/>
<path d="M67.3856 103.509L94.0129 81.8553L115.595 80.6836L123.433 92.9792L118.136 96.0392L111.298 97.0424L94.8116 97.416L94.8106 97.4165L92.2233 97.4751L81.8761 103.047L69.6743 103.436L69.6739 103.436L67.3856 103.509Z" fill="#F0D2CA"/>
<ellipse cx="41.8278" cy="101.843" rx="13.8998" ry="5.15639" fill="#F0D2CA"/>
<path d="M117.171 91.5956L110.278 97.0596L98.4807 86.6934C100.78 84.8707 103.075 83.0505 105.374 81.2286L117.171 91.5956Z" fill="#CF7C6B"/>
<path d="M111.932 74.381C112.233 74.1407 112.395 73.9428 112.56 73.7449L113.562 77.6255C112.581 76.7629 111.601 75.9013 110.62 75.0387C111.133 74.8996 111.567 74.6723 111.932 74.381Z" fill="#DE8D7D"/>
<path d="M109.575 70.9424C107.574 70.4221 104.282 69.9078 103.032 69.5604C102.575 69.0954 101.702 68.1361 101.402 67.595L101.31 67.3928L101.308 67.36L101.449 67.3444C102.214 67.1741 104.934 67.2891 105.706 67.3427C106.705 67.4101 107.85 67.5389 108.822 67.7921C109.275 67.9131 109.411 67.9866 109.521 68.0306L109.534 68.0375L109.535 68.0384C109.719 68.2467 109.841 68.6054 109.89 68.9053C110.003 69.5932 109.856 70.3227 109.575 70.9424Z" fill="#EECB97"/>
<path d="M109.574 70.9426C109.3 71.5381 108.88 72.0861 108.29 72.4015C108.143 72.4776 107.981 72.5424 107.818 72.5796C104.802 69.9245 104.837 69.9712 104.837 69.9574C106.419 70.2746 108.005 70.5347 109.574 70.9426Z" fill="#DE8D7D"/>
<path d="M110.62 75.0392C111.601 75.9018 112.581 76.7634 113.562 77.626L114.465 81.1177C106.926 74.4921 107.257 74.7955 107.264 74.7817C108.343 75.1464 109.528 75.3296 110.62 75.0392Z" fill="#EECB97"/>
<path d="M114.465 81.1175L117.171 91.5942L105.374 81.2272C104.609 78.2714 103.846 75.3138 103.082 72.3571C103.082 72.3433 103.977 73.1047 105.206 73.8204C106.027 74.3026 106.85 74.6535 107.247 74.7754L107.248 74.7771L107.264 74.7797C107.264 74.8013 106.822 74.3994 114.465 81.1175Z" fill="#DE8D7D"/>
<path d="M101.441 77.7721L105.374 81.2266C103.075 83.0485 100.779 84.8686 98.4804 86.6914C98.4666 86.6914 98.5064 86.7156 94.5471 83.2352C96.8452 81.4141 99.1425 79.594 101.441 77.7721Z" fill="#ECD7B7"/>
<path d="M107.818 72.5789C107.374 72.6913 106.967 72.6196 106.591 72.4268C105.458 71.8607 103.931 70.4839 103.032 69.56C103.447 69.6758 104.765 69.9472 104.837 69.9567C104.837 69.9705 104.801 69.9239 107.818 72.5789Z" fill="#EECB97"/>
<path d="M96.0527 57.8571C95.6759 57.4483 95.2939 57.0913 94.8609 56.7309C94.7399 55.5477 94.6768 54.2349 94.803 53.0473L94.8056 53.0275C94.8989 52.0543 95.1945 50.9446 95.7148 50.101C96.9325 48.1426 99.1261 47.8288 101.219 48.7968C102.648 49.4537 103.842 50.6023 104.242 52.145C104.492 53.0595 104.456 54.0819 104.334 55.0248C103.992 57.7093 102.778 61.296 101.82 63.8344C101.683 64.1913 101.643 64.3028 101.479 64.6987C101.471 64.7229 101.529 64.7021 100.715 64.7065C100.177 64.7116 99.5893 64.7177 99.0587 64.7998C99.0163 62.2969 97.7225 59.6677 96.0527 57.8571ZM98.821 60.4438C99.5764 58.2927 101.364 53.0465 100.617 50.8988L100.616 50.8936C100.52 50.923 100.413 50.9653 100.308 51.018C99.1624 51.5971 98.6533 53.0396 98.4684 54.3092C98.1996 56.1423 98.4995 58.6142 98.821 60.4438Z" fill="#EECB97"/>
<path d="M103.057 60.2951C110.136 66.517 109.457 65.9103 109.398 65.8887C107.917 65.3053 106.372 65.0296 104.744 64.8732C103.52 64.7548 102.09 64.7107 101.473 64.7107L101.982 63.397C102.975 60.6814 102.98 60.4749 103.057 60.2951Z" fill="#DE8D7D"/>
<path d="M82.7496 72.8692L89.644 67.4044C101.491 77.8146 101.441 77.7593 101.441 77.7723C99.1424 79.5942 96.8451 81.4143 94.547 83.2354L93.4356 82.2587H93.4347C93.4347 82.2449 93.5756 82.3806 82.7496 72.8692Z" fill="#CF7C6B"/>
<path d="M97.5617 66.2651C97.9921 66.6194 98.4009 66.8001 98.6273 66.8813L101.441 77.7729L89.644 67.4059L86.938 56.9309C90.4072 59.9783 93.8764 63.0284 97.3456 66.075C97.3793 66.1087 97.4727 66.1934 97.5617 66.2651Z" fill="#DE8D7D"/>
<path d="M99.874 66.2459C99.5395 66.0921 99.237 66.0005 99.0174 65.9305L98.9984 65.9253C98.9837 65.9253 99.071 65.5286 99.0589 64.8C99.8109 64.6833 100.799 64.711 101.499 64.711C103.899 64.7335 106.869 64.9409 109.119 65.7818C109.245 65.8276 109.425 65.9002 109.442 65.9063L109.443 65.908C109.646 65.9858 110.059 66.1716 110.461 66.3903C111.333 66.8734 112.126 67.5009 112.714 68.3047L112.747 68.3496C113.606 69.5777 113.785 70.9718 113.282 72.4178C113.028 73.1809 112.552 73.7557 112.542 73.7703C111.243 75.3917 109.242 75.4522 107.264 74.7824V74.7807L107.248 74.7781C107.234 74.7643 106.574 74.5819 105.499 73.9873C103.761 73.04 101.921 71.4722 100.526 70.0669L98.8126 66.9391L98.8144 66.9365C98.8403 66.8976 99.2638 66.2771 99.874 66.2459ZM101.701 67.303C101.427 67.3358 101.603 67.3272 101.308 67.3609L101.31 67.3937C101.315 67.3972 101.374 67.5441 101.423 67.6348C102.271 68.9805 104.83 71.467 106.429 72.3434C106.691 72.4869 106.921 72.5898 107.201 72.6217C108.878 72.8084 110.167 70.6062 109.89 68.9062C109.842 68.6106 109.721 68.2493 109.535 68.0393L109.547 68.0454L109.527 68.0315L109.518 68.0246L109.534 68.0385L109.521 68.0315C109.408 67.9857 109.289 67.9175 108.822 67.793C107.851 67.5406 106.707 67.411 105.706 67.3436C104.749 67.2779 102.659 67.207 101.701 67.303Z" fill="#FFF3E1"/>
<path d="M99.8018 57.4402C99.7032 57.7703 99.6358 57.9968 99.4898 58.4531C99.3472 57.8957 99.2019 57.3399 99.0585 56.7816C99.8597 57.486 99.8018 57.4272 99.8018 57.4402Z" fill="#6D89C7"/>
<path d="M99.0584 56.7823C99.2018 57.3406 99.347 57.8963 99.4896 58.4538C99.2528 59.2023 99.0558 59.7744 98.8207 60.4434C98.6037 59.2074 98.3678 57.4288 98.3678 56.1738L99.0584 56.7823Z" fill="#F7B23B"/>
<path d="M99.8737 66.245C99.2635 66.2761 98.84 66.8967 98.8141 66.9355C98.8884 66.6184 98.9584 66.251 98.9964 65.9243H98.9982C99.0768 65.9442 99.5418 66.092 99.8737 66.245Z" fill="#F7B23B"/>
<path d="M98.8125 66.938L100.526 70.0658C101.441 70.988 102.394 71.8246 103.082 72.3552L105.374 81.2271C101.398 77.7336 101.442 77.7846 101.442 77.7717C100.58 74.4407 99.4875 70.2118 98.6276 66.8809C98.7434 66.9224 98.8125 66.938 98.8125 66.938Z" fill="#ECD7B7"/>
<path d="M97.3456 66.0742C86.8429 56.8498 86.9379 56.9423 86.9379 56.9293L86.0356 53.4367C89.319 56.3226 92.7805 59.3648 96.0665 62.2515C96.057 62.3267 96.0449 62.4036 96.0319 62.4849C96.0146 62.5877 95.9671 62.6863 95.9722 62.7908C96.0742 64.4485 96.7043 65.464 97.3456 66.0742Z" fill="#EECB97"/>
<path d="M96.0666 62.252C92.7806 59.3653 89.3192 56.323 86.0358 53.4372L83.3297 42.9613C83.5899 43.1894 94.5679 52.8356 94.803 53.0431C94.803 53.1191 94.6146 54.3378 94.8609 56.7309C93.9552 55.9756 93.0217 55.3887 92.2456 54.814H92.2439C92.1773 54.3067 91.9319 53.6239 91.5412 52.9247C90.6769 51.3854 89.5448 50.547 89.3563 51.3646C89.3546 51.3776 89.2647 51.7043 89.2423 52.1529C89.161 53.878 90.1437 55.9064 91.2344 57.2573C92.7849 59.1561 94.7416 59.9219 96.1011 61.2805C96.1271 61.602 96.1098 61.9348 96.0666 62.252Z" fill="#DE8D7D"/>
<path d="M89.356 51.3638C89.3862 51.2307 89.445 51.1357 89.5331 51.0847C89.9437 50.8556 90.8425 51.6802 91.5408 52.9239C91.9315 53.6231 92.177 54.3058 92.2435 54.8132C92.279 55.0733 92.2902 55.4691 92.062 55.5971C91.6532 55.8261 90.7535 55.0016 90.0552 53.7561C89.5098 52.7821 89.2479 51.8392 89.356 51.3638Z" fill="#EECB97"/>
<path d="M92.2436 54.8135C92.2574 54.8135 92.2168 54.8057 92.9981 55.3494C94.1225 56.1298 95.1156 56.8394 96.0525 57.8566C97.686 59.6267 98.9452 62.1746 99.0524 64.5738C99.1172 65.7829 98.8121 66.9255 98.8121 66.9385C98.8121 66.9385 98.7429 66.9229 98.6271 66.8814C98.6271 66.8659 98.1544 66.7518 97.5615 66.2643L97.3454 66.0742C96.7041 65.464 96.0741 64.4485 95.9721 62.7908C95.9669 62.6862 96.0144 62.5877 96.0317 62.4849C96.0965 62.0873 96.1346 61.6906 96.1009 61.28C94.2902 59.4711 91.3473 58.6812 89.7674 54.7651C89.331 53.6856 89.0803 52.5327 89.3491 51.391L89.356 51.3642C89.248 51.8395 89.5099 52.7825 90.0552 53.7565C90.7536 55.0019 91.6533 55.8264 92.0621 55.5974C92.2903 55.4695 92.279 55.0728 92.2436 54.8135Z" fill="#FFF3E1"/>
<path d="M86.0353 53.4373L86.9376 56.9299C86.9246 56.9299 86.9929 56.8884 82.1772 60.7007C82.3526 59.9704 82.4105 59.1363 82.3448 58.2453C82.2645 57.196 82.0717 56.566 82.0881 56.566C83.4036 55.5228 84.719 54.4796 86.0353 53.4373Z" fill="#FFF3E1"/>
<path d="M86.9379 56.9294C86.9379 56.9423 86.9146 56.8386 89.644 67.4053L82.7496 72.8701C80.2052 63.0156 80.2899 63.3648 80.2899 63.3501C81.3538 62.5273 81.5949 62.1868 81.7885 61.797C81.9519 61.4668 82.0815 61.0986 82.1775 60.7002C86.9924 56.8879 86.9249 56.9294 86.9379 56.9294Z" fill="#F7A392"/>
<path d="M83.3295 42.9604L86.0356 53.4363C84.7193 54.4786 83.4038 55.5218 82.0884 56.5649C82.0634 56.5649 81.9043 55.4924 81.1965 53.8857C80.2432 51.7233 78.735 49.6066 76.8751 48.1227L76.8448 48.0985L83.3295 42.9604Z" fill="#F7A392"/>
<path d="M82.7497 72.8693C93.5359 82.3461 93.4348 82.245 93.4348 82.2588V88.3797L82.6235 94.6206C82.6235 87.206 82.6235 79.7939 82.6235 72.3801L82.7497 72.8693Z" fill="#E08876"/>
<path d="M82.6231 94.6213L78.2991 97.1182C78.2991 88.1988 78.2991 79.2803 78.2991 70.3601L81.6075 68.4501L82.6231 72.3808C82.6231 79.7946 82.6231 87.2066 82.6231 94.6213Z" fill="#ECD7B7"/>
<path d="M81.0469 66.2773L81.6078 68.4492C76.9114 71.1605 80.0124 69.3705 67.4881 76.6011C43.9729 63.0241 65.343 75.3626 41.5408 61.6214C53.3062 54.8282 52.7375 55.1437 52.7539 55.1713C53.0512 55.727 53.3874 56.3537 53.7686 57.0598L45.8656 61.6214C69.1354 75.0583 65.0267 72.6816 67.4881 74.1042C69.6004 72.8829 61.2567 77.7022 81.0469 66.2773Z" fill="#FFB8AA"/>
<path d="M80.2895 63.3504L81.0466 66.2777C76.7312 68.7677 72.4142 71.2602 68.0997 73.752C67.8957 73.6335 67.6909 73.5169 67.4878 73.3985C67.4878 72.9058 67.4878 72.414 67.4878 71.9231L68.8559 71.1323C75.6993 66.607 78.8003 64.5042 80.2895 63.3504Z" fill="#BD6B5B"/>
<path d="M78.299 97.1176L67.4878 103.359V76.6013L78.299 70.3595C78.299 79.2797 78.299 88.1982 78.299 97.1176Z" fill="#E08876"/>
<path d="M68.1 73.7519C67.8961 73.8703 67.693 73.9861 67.4881 74.1045C67.2842 73.9861 67.0811 73.8703 66.8762 73.7519C67.0793 73.6335 67.2842 73.5168 67.4881 73.3984C67.6912 73.5168 67.8961 73.6335 68.1 73.7519Z" fill="#BD6B5B"/>
<path d="M51.7357 42.2075C53.5784 41.1435 55.4219 40.0788 57.2636 39.0157C58.8427 38.0624 60.834 38.6501 62.4035 39.6362C65.2712 41.4426 67.5433 44.923 68.4275 48.1744C67.3757 48.782 66.3239 49.3905 65.272 49.9972V49.9981C63.7656 50.8329 63.2479 52.673 63.2479 54.3955C63.2479 50.2712 60.4407 45.1728 56.7943 42.8747C55.2646 41.9136 53.3001 41.3138 51.7357 42.2075Z" fill="#E23D3D"/>
<path d="M67.4884 76.6013V103.359L56.6771 97.1176C56.6771 88.1982 56.6771 79.2797 56.6771 70.3595L67.4884 76.6013Z" fill="#F7A392"/>
<path d="M67.4882 71.9231C67.4882 72.414 67.4882 72.9058 67.4882 73.3985C67.2842 73.5169 67.0794 73.6335 66.8763 73.752C66.4502 73.5065 66.0241 73.2593 65.5989 73.0139L67.4882 71.9231Z" fill="#BD6B5B"/>
<path d="M70.8381 46.7846C72.4802 45.827 74.5994 46.5357 76.1681 47.6039C76.4005 47.7552 76.6451 47.9444 76.8448 48.0983C77.2614 48.4111 77.9934 49.0827 78.6364 49.8234C80.2405 51.6772 81.53 54.092 82.0875 56.5647C82.4695 58.2492 82.549 60.2561 81.7885 61.7962C81.5949 62.186 81.3537 62.5265 80.2898 63.3493V63.3502C78.8006 64.504 75.6996 66.6068 68.8563 71.1321C68.2668 71.4718 65.61 73.0137 65.5971 73.0137L65.4363 72.9203C75.0713 66.529 75.7428 65.9119 76.1784 65.0347C76.6443 64.0952 76.8379 62.8593 76.7342 61.4825C76.4092 57.0963 73.2675 52.201 69.7007 50.3264C68.3213 49.603 66.6437 49.2331 65.2721 49.9979C65.2721 49.9858 69.1475 47.7699 69.2849 47.6791L70.8381 46.7846Z" fill="#E23D3D"/>
<path d="M61.0582 70.3921C55.9944 67.4682 50.9298 64.5453 45.866 61.6214C48.4994 60.1003 51.1338 58.5792 53.7672 57.0597C53.781 57.0597 54.1414 57.8168 61.0582 70.3921Z" fill="#BD6B5B"/>
<path d="M56.6769 70.3601C56.6769 79.2803 56.6769 88.1988 56.6769 97.1182L52.3521 94.6213C52.3521 85.7019 52.3521 76.7834 52.3521 67.8641L56.6769 70.3601Z" fill="#FFF3E1"/>
<path d="M52.352 67.8634C52.352 76.7828 52.352 85.7013 52.352 94.6206L41.5408 88.3797V61.6216L52.352 67.8634Z" fill="#F7A392"/>
<path d="M56.7946 42.8761C60.4125 45.1552 63.2482 50.238 63.2482 54.3969C63.2482 53.0746 63.5455 51.9234 64.1029 51.0911C64.6587 50.2605 65.4754 49.7445 66.4521 49.6097C67.4261 49.4775 68.5566 49.7272 69.7009 50.3279C73.2876 52.2129 76.4111 57.1211 76.7344 61.484C76.8381 62.8608 76.6445 64.0967 76.1786 65.0362C75.743 65.9134 75.0715 66.5305 65.4365 72.9219C63.9768 72.0792 62.517 71.2365 61.0581 70.3939C57.9199 64.6888 53.544 56.753 51.2425 52.2648C51.0385 51.8568 50.8639 51.4878 50.6643 51.0349C49.9132 49.2329 49.6436 47.341 49.7602 45.9106C50.0869 41.9401 53.1871 40.6082 56.7946 42.8761Z" fill="#EF5E5E"/>
<path d="M20.9161 98.902C20.9161 97.9411 20.9161 96.9801 20.9161 96.0177L20.9317 96.005C21.0148 97.0195 21.434 98.0178 22.1709 98.9457C26.1698 103.988 37.6515 105.168 44.4488 101.257C45.495 100.655 46.4736 99.9109 47.224 98.9612C48.0743 97.8847 48.4865 96.7511 48.4865 95.6288C48.4865 96.6454 48.4865 97.7424 48.4865 98.902C48.4865 101.545 46.2764 103.598 43.9275 104.816C41.2989 106.181 38.33 106.744 35.3942 106.848C32.4993 106.927 29.7073 106.458 27.7247 105.766C25.6147 105.074 23.1904 103.727 21.9363 101.905C21.3093 101.017 20.9161 100.011 20.9161 98.902Z" fill="#FF9F1B"/>
<path d="M45.0095 98.3726C46.4221 96.5852 46.3657 94.5998 45.0158 92.8977C41.7341 88.7593 32.2949 87.7701 26.684 90.9912C25.8195 91.4879 25.0121 92.1016 24.3915 92.8864C22.9796 94.6731 23.0359 96.657 24.3851 98.3592C27.671 102.502 37.1117 103.485 42.7184 100.266C43.58 99.7689 44.3881 99.1574 45.0095 98.3726ZM47.2323 92.3115C48.8618 94.3659 48.9492 96.7768 47.2231 98.9608C46.4728 99.9106 45.4942 100.655 44.448 101.256C37.6507 105.168 26.169 103.988 22.1701 98.9454C20.9181 97.3672 20.5179 95.5009 21.3584 93.6269C22.0679 92.0515 23.4502 90.8637 24.9614 89.9957C29.5909 87.3375 36.5594 86.9782 41.8264 88.8156C43.8301 89.5152 45.9176 90.6552 47.2323 92.3115Z" fill="#FFD77E"/>
<path d="M37.3505 93.9045C37.8501 93.8848 38.3488 93.8651 38.847 93.846C38.7934 93.3184 38.4757 92.8893 37.8958 92.5582C37.4428 92.2996 36.8031 92.1277 35.9781 92.0425C35.9971 91.9107 36.0155 91.7783 36.0345 91.6472C35.7541 91.6331 35.4737 91.6204 35.1926 91.6063C35.1736 91.7381 35.1552 91.8698 35.1362 92.0016C34.1809 92.0115 33.4446 92.1277 32.9254 92.3475C32.1539 92.6772 31.7249 93.1352 31.6403 93.7228C31.5311 94.4851 32.125 95.005 32.8479 95.2861C33.4334 95.5151 34.016 95.675 34.5951 95.7673C34.469 96.6437 34.3429 97.5202 34.2168 98.3959C33.6574 98.3367 33.1973 98.15 32.8416 97.8358C32.5907 97.6146 32.4421 97.2792 32.3949 96.8311C31.9066 96.8593 31.4205 96.8889 30.9337 96.9171C30.9259 97.3483 31.0626 97.7195 31.3451 98.0317C31.6291 98.3445 31.9848 98.5777 32.4132 98.7327C32.8416 98.8862 33.4094 99.0067 34.1175 99.0934C34.0773 99.3688 34.0385 99.6443 33.9991 99.9184C34.2788 99.9332 34.5599 99.9459 34.8403 99.9592C34.8812 99.681 34.9206 99.4027 34.9608 99.1244C35.9654 99.1455 36.8116 98.9785 37.4964 98.627C38.1805 98.2754 38.5652 97.8125 38.6483 97.2405C38.7279 96.6804 38.4334 96.2182 37.9621 95.8955C37.7056 95.7187 37.3611 95.5651 36.9307 95.4305C36.7066 95.3615 36.2416 95.2579 35.5364 95.1198C35.6505 94.3265 35.764 93.5318 35.8781 92.7385C36.3353 92.8167 36.6862 92.9485 36.9299 93.1331C37.1723 93.3198 37.3118 93.5755 37.3505 93.9045ZM45.0158 92.897C46.3657 94.5992 46.4221 96.5845 45.0095 98.3719C44.3881 99.1568 43.58 99.7683 42.7184 100.265C37.1117 103.484 27.671 102.501 24.3851 98.3586C23.0359 96.6564 22.9796 94.6725 24.3914 92.8858C25.0121 92.1009 25.8195 91.4873 26.684 90.9906C32.2949 87.7695 41.7341 88.7586 45.0158 92.897Z" fill="#FF9F1B"/>
<path d="M34.7088 94.9742C34.8187 94.2126 34.9279 93.4517 35.0378 92.6894C34.4749 92.712 34.0176 92.8191 33.6668 93.0114C33.3159 93.2044 33.1214 93.4433 33.0806 93.7272C32.9693 94.5001 33.9458 94.8002 34.7088 94.9742ZM37.1697 97.2259C37.2119 96.9265 37.1197 96.6792 36.8879 96.4847C36.6568 96.291 36.1686 96.1029 35.421 95.9225C35.3006 96.7616 35.1801 97.5979 35.0596 98.437C35.6218 98.4229 36.1016 98.3059 36.4983 98.0847C36.8956 97.8635 37.1197 97.5775 37.1697 97.2259ZM38.8472 93.8463C38.3491 93.8653 37.8503 93.885 37.3508 93.9048C37.312 93.5757 37.1725 93.32 36.9301 93.1333C36.6864 92.9487 36.3355 92.817 35.8783 92.7388C35.7642 93.5321 35.6507 94.3268 35.5366 95.1201C36.2418 95.2582 36.7068 95.3617 36.9309 95.4308C37.3613 95.5653 37.7058 95.7189 37.9623 95.8957C38.4336 96.2184 38.7281 96.6806 38.6485 97.2407C38.5654 97.8128 38.1807 98.2756 37.4966 98.6272C36.8118 98.9788 35.9657 99.1457 34.961 99.1246C34.9208 99.4029 34.8814 99.6812 34.8405 99.9595C34.5601 99.9461 34.279 99.9334 33.9993 99.9186C34.0387 99.6446 34.0775 99.3691 34.1177 99.0936C33.4096 99.0069 32.8418 98.8865 32.4134 98.7329C31.9851 98.5779 31.6293 98.3447 31.3453 98.0319C31.0628 97.7198 30.9262 97.3485 30.9339 96.9173C31.4207 96.8891 31.9068 96.8595 32.3951 96.8314C32.4423 97.2794 32.591 97.6148 32.8418 97.836C33.1976 98.1502 33.6576 98.3369 34.217 98.3961C34.3431 97.5204 34.4692 96.644 34.5953 95.7675C34.0162 95.6752 33.4336 95.5153 32.8481 95.2863C32.1253 95.0052 31.5313 94.4853 31.6405 93.723C31.7251 93.1354 32.1542 92.6775 32.9256 92.3477C33.4448 92.1279 34.1811 92.0117 35.1364 92.0018C35.1554 91.8701 35.1738 91.7383 35.1928 91.6066C35.4739 91.6207 35.7543 91.6333 36.0347 91.6474C36.0157 91.7785 35.9974 91.9109 35.9783 92.0427C36.8033 92.1279 37.443 92.2998 37.896 92.5584C38.4759 92.8895 38.7936 93.3186 38.8472 93.8463Z" fill="#FFD77E"/>
<path d="M36.8878 96.4848C37.1196 96.6792 37.2119 96.9265 37.1696 97.2259C37.1196 97.5775 36.8956 97.8635 36.4982 98.0847C36.1016 98.306 35.6218 98.4229 35.0596 98.437C35.18 97.5979 35.3005 96.7616 35.421 95.9225C36.1685 96.1029 36.6567 96.291 36.8878 96.4848Z" fill="#FF9F1B"/>
<path d="M20.9152 94.8865C20.9152 93.9255 20.9152 92.9645 20.9152 92.0028L20.9307 91.9887C21.0138 93.004 21.433 94.0023 22.1699 94.9301C26.1688 99.9725 37.6505 101.153 44.4478 97.2403C45.4941 96.6393 46.4727 95.8953 47.223 94.9456C48.0734 93.8691 48.4855 92.7355 48.4855 91.6132C48.4855 92.6299 48.4855 93.7268 48.4855 94.8865C48.4855 97.5291 46.2754 99.5835 43.9265 100.801C41.2979 102.165 38.329 102.728 35.3932 102.834C32.4983 102.91 29.7063 102.443 27.7237 101.751C25.6137 101.058 23.1894 99.7111 21.9353 97.8892C21.3083 97.0022 20.9152 95.9954 20.9152 94.8865Z" fill="#FF9F1B"/>
<path d="M45.0095 94.3581C46.4221 92.5714 46.3657 90.5853 45.0158 88.8839C41.7341 84.7455 32.2949 83.7563 26.684 86.9774C25.8195 87.4734 25.0121 88.0871 24.3915 88.8719C22.9796 90.6593 23.0359 92.6433 24.3851 94.3447C27.671 98.4873 37.1117 99.4701 42.7184 96.2511C43.58 95.7544 44.3881 95.1436 45.0095 94.3581ZM47.2323 88.2977C48.8618 90.3514 48.9492 92.763 47.2231 94.9464C46.4728 95.8961 45.4942 96.64 44.448 97.241C37.6507 101.153 26.169 99.9732 22.1701 94.9309C20.9181 93.3534 20.5179 91.4857 21.3584 89.6124C22.0679 88.037 23.4502 86.8485 24.9614 85.9812C29.5909 83.3237 36.5594 82.9637 41.8264 84.8011C43.8301 85.5 45.9176 86.6414 47.2323 88.2977Z" fill="#FFD77E"/>
<path d="M37.3505 89.8899C37.8501 89.8701 38.3488 89.8504 38.847 89.8321C38.7934 89.3037 38.4757 88.8739 37.8958 88.5435C37.4428 88.285 36.8031 88.1123 35.9781 88.0271C35.9971 87.8961 36.0155 87.7643 36.0345 87.6333C35.7541 87.6185 35.4737 87.6058 35.1926 87.5924C35.1736 87.7241 35.1552 87.8552 35.1362 87.9869C34.1809 87.9961 33.4446 88.1123 32.9254 88.3329C32.1539 88.6633 31.7249 89.1205 31.6403 89.7081C31.5311 90.4704 32.125 90.9896 32.8479 91.2715C33.4334 91.5004 34.016 91.6611 34.5951 91.7526C34.469 92.6298 34.3429 93.5062 34.2168 94.3812C33.6574 94.3221 33.1973 94.1354 32.8416 93.8211C32.5907 93.5999 32.4421 93.2646 32.3949 92.8165C31.9066 92.8447 31.4205 92.8743 30.9337 92.9031C30.9259 93.3343 31.0626 93.7049 31.3451 94.017C31.6291 94.3298 31.9848 94.563 32.4132 94.7173C32.8416 94.8716 33.4094 94.9928 34.1175 95.0787C34.0773 95.3542 34.0385 95.629 33.9991 95.9044C34.2788 95.9178 34.5599 95.9312 34.8403 95.9453C34.8812 95.6663 34.9206 95.3887 34.9608 95.1097C35.9654 95.1302 36.8116 94.9639 37.4964 94.6123C38.1805 94.2608 38.5652 93.7986 38.6483 93.2265C38.7279 92.665 38.4334 92.2042 37.9621 91.8809C37.7056 91.704 37.3611 91.5497 36.9307 91.4166C36.7066 91.3468 36.2416 91.2433 35.5364 91.1045C35.6505 90.3112 35.764 89.5179 35.8781 88.7246C36.3353 88.8021 36.6862 88.9331 36.9299 89.1184C37.1723 89.3051 37.3118 89.5609 37.3505 89.8899ZM45.0158 88.8831C46.3657 90.5845 46.4221 92.5706 45.0095 94.3573C44.3881 95.1428 43.58 95.7537 42.7184 96.2504C37.1117 99.4694 27.671 98.4865 24.3851 94.3439C23.0359 92.6425 22.9796 90.6585 24.3914 88.8711C25.0121 88.0863 25.8195 87.4726 26.684 86.9766C32.2949 83.7555 41.7341 84.7447 45.0158 88.8831Z" fill="#FF9F1B"/>
<path d="M34.7088 90.9598C34.8187 90.1983 34.9279 89.4367 35.0378 88.6751C34.4749 88.6969 34.0176 88.8047 33.6668 88.997C33.3159 89.1908 33.1214 89.4296 33.0806 89.7128C32.9693 90.4857 33.9458 90.7851 34.7088 90.9598ZM37.1697 93.2115C37.2119 92.9121 37.1197 92.6641 36.8879 92.4711C36.6568 92.2773 36.1686 92.0885 35.421 91.9088C35.3006 92.7472 35.1801 93.5842 35.0596 94.4219C35.6218 94.4092 36.1016 94.2916 36.4983 94.0703C36.8956 93.8491 37.1197 93.5631 37.1697 93.2115ZM38.8472 89.8326C38.3491 89.8509 37.8503 89.8706 37.3508 89.8904C37.312 89.5614 37.1725 89.3056 36.9301 89.1189C36.6864 88.9336 36.3355 88.8026 35.8783 88.7251C35.7642 89.5184 35.6507 90.3117 35.5366 91.105C36.2418 91.2438 36.7068 91.3473 36.9309 91.4171C37.3613 91.5502 37.7058 91.7045 37.9623 91.8814C38.4336 92.2047 38.7281 92.6655 38.6485 93.227C38.5654 93.7991 38.1807 94.2613 37.4966 94.6128C36.8118 94.9644 35.9657 95.1307 34.961 95.1102C34.9208 95.3892 34.8814 95.6668 34.8405 95.9458C34.5601 95.9317 34.279 95.9183 33.9993 95.9049C34.0387 95.6295 34.0775 95.3547 34.1177 95.0792C33.4096 94.9933 32.8418 94.8721 32.4134 94.7178C31.9851 94.5635 31.6293 94.3303 31.3453 94.0175C31.0628 93.7054 30.9262 93.3348 30.9339 92.9036C31.4207 92.8748 31.9068 92.8452 32.3951 92.817C32.4423 93.2651 32.591 93.6004 32.8418 93.8216C33.1976 94.1359 33.6576 94.3226 34.217 94.3817C34.3431 93.5067 34.4692 92.6303 34.5953 91.7531C34.0162 91.6616 33.4336 91.5009 32.8481 91.272C32.1253 90.9901 31.5313 90.4709 31.6405 89.7086C31.7251 89.121 32.1542 88.6638 32.9256 88.3334C33.4448 88.1128 34.1811 87.9966 35.1364 87.9874C35.1554 87.8557 35.1738 87.7246 35.1928 87.5929C35.4739 87.6063 35.7543 87.619 36.0347 87.6338C36.0157 87.7648 35.9974 87.8966 35.9783 88.0276C36.8033 88.1128 37.443 88.2855 37.896 88.544C38.4759 88.8744 38.7936 89.3042 38.8472 89.8326Z" fill="#FFD77E"/>
<path d="M36.8878 92.4701C37.1196 92.6631 37.2119 92.9111 37.1696 93.2105C37.1196 93.5621 36.8956 93.8481 36.4982 94.0693C36.1016 94.2906 35.6218 94.4082 35.0596 94.4209C35.18 93.5832 35.3005 92.7462 35.421 91.9078C36.1685 92.0875 36.6567 92.2763 36.8878 92.4701Z" fill="#FF9F1B"/>
<path d="M20.9152 90.8712C20.9152 89.9102 20.9152 88.9492 20.9152 87.9875L20.9307 87.9742C21.0138 88.9887 21.433 89.987 22.1699 90.9149C26.1688 95.9572 37.6505 97.1373 44.4478 93.2257C45.4941 92.6248 46.4727 91.8801 47.223 90.9304C48.0734 89.8546 48.4855 88.7203 48.4855 87.5987C48.4855 88.6146 48.4855 89.7115 48.4855 90.8712C48.4855 93.5132 46.2754 95.5676 43.9265 96.7857C41.2979 98.1497 38.329 98.7133 35.3932 98.8183C32.4983 98.8958 29.7063 98.428 27.7237 97.7361C25.6137 97.0429 23.1894 95.6958 21.9353 93.8746C21.3083 92.9862 20.9152 91.9801 20.9152 90.8712Z" fill="#FF9F1B"/>
<path d="M45.0095 90.3411C46.4221 88.5544 46.3657 86.5691 45.0158 84.8676C41.7341 80.7292 32.2949 79.7401 26.684 82.9612C25.8195 83.4571 25.0121 84.0708 24.3915 84.8549C22.9796 86.6423 23.0359 88.627 24.3851 90.3284C27.671 94.4718 37.1117 95.4539 42.7184 92.2349C43.58 91.7389 44.3881 91.1274 45.0095 90.3411ZM47.2323 84.2814C48.8618 86.3351 48.9492 88.7468 47.2231 90.9301C46.4728 91.8798 45.4942 92.6245 44.448 93.2254C37.6507 97.137 26.169 95.9569 22.1701 90.9146C20.9181 89.3371 20.5179 87.4701 21.3584 85.5961C22.0679 84.0208 23.4502 82.8322 24.9614 81.965C29.5909 79.3068 36.5594 78.9482 41.8264 80.7849C43.8301 81.4838 45.9176 82.6244 47.2323 84.2814Z" fill="#FFD77E"/>
<path d="M37.3505 85.8757C37.8501 85.8553 38.3488 85.8356 38.847 85.8172C38.7934 85.2896 38.4757 84.8591 37.8958 84.528C37.4428 84.2701 36.8031 84.0975 35.9781 84.0122C35.9971 83.8812 36.0155 83.7495 36.0345 83.6177C35.7541 83.6036 35.4737 83.5902 35.1926 83.5775C35.1736 83.7086 35.1552 83.8403 35.1362 83.9714C34.1809 83.982 33.4446 84.0975 32.9254 84.3187C32.1539 84.6477 31.7249 85.1064 31.6403 85.6932C31.5311 86.4563 32.125 86.9748 32.8479 87.2573C33.4334 87.4863 34.016 87.6455 34.5951 87.7378C34.469 88.6142 34.3429 89.4907 34.2168 90.3664C33.6574 90.3072 33.1973 90.1212 32.8416 89.807C32.5907 89.5851 32.4421 89.2504 32.3949 88.8016C31.9066 88.8305 31.4205 88.8601 30.9337 88.8883C30.9259 89.3188 31.0626 89.6907 31.3451 90.0029C31.6291 90.3143 31.9848 90.5482 32.4132 90.7024C32.8416 90.8574 33.4094 90.9779 34.1175 91.0646C34.0773 91.3393 34.0385 91.6141 33.9991 91.8896C34.2788 91.9037 34.5599 91.9171 34.8403 91.9297C34.8812 91.6515 34.9206 91.3732 34.9608 91.0949C35.9654 91.116 36.8116 90.9497 37.4964 90.5975C38.1805 90.2459 38.5652 89.783 38.6483 89.2117C38.7279 88.6502 38.4334 88.1894 37.9621 87.866C37.7056 87.6899 37.3611 87.5349 36.9307 87.4017C36.7066 87.3327 36.2416 87.2284 35.5364 87.0903C35.6505 86.297 35.764 85.5023 35.8781 84.709C36.3353 84.7872 36.6862 84.9183 36.9299 85.1035C37.1723 85.2902 37.3118 85.5467 37.3505 85.8757ZM45.0158 84.8682C46.3657 86.5697 46.4221 88.555 45.0095 90.3417C44.3881 91.128 43.58 91.7395 42.7184 92.2355C37.1117 95.4545 27.671 94.4724 24.3851 90.3291C23.0359 88.6276 22.9796 86.643 24.3914 84.8556C25.0121 84.0714 25.8195 83.4578 26.684 82.9618C32.2949 79.7407 41.7341 80.7298 45.0158 84.8682Z" fill="#FF9F1B"/>
<path d="M34.7088 86.943C34.8187 86.1814 34.9279 85.4198 35.0378 84.6582C34.4749 84.68 34.0176 84.7878 33.6668 84.9809C33.3159 85.1732 33.1214 85.412 33.0806 85.6967C32.9693 86.4681 33.9458 86.769 34.7088 86.943ZM37.1697 89.1946C37.2119 88.8959 37.1197 88.6479 36.8879 88.4542C36.6568 88.2597 36.1686 88.0716 35.421 87.892C35.3006 88.7297 35.1801 89.5673 35.0596 90.405C35.6218 90.3923 36.1016 90.2754 36.4983 90.0535C36.8956 89.8322 37.1197 89.5462 37.1697 89.1946ZM38.8472 85.8157C38.3491 85.834 37.8503 85.8538 37.3508 85.8742C37.312 85.5452 37.1725 85.2887 36.9301 85.102C36.6864 84.9167 36.3355 84.7857 35.8783 84.7075C35.7642 85.5008 35.6507 86.2955 35.5366 87.0888C36.2418 87.2269 36.7068 87.3312 36.9309 87.4002C37.3613 87.5334 37.7058 87.6884 37.9623 87.8645C38.4336 88.1879 38.7281 88.6486 38.6485 89.2101C38.5654 89.7815 38.1807 90.2444 37.4966 90.596C36.8118 90.9482 35.9657 91.1145 34.961 91.0934C34.9208 91.3716 34.8814 91.6499 34.8405 91.9282C34.5601 91.9155 34.279 91.9022 33.9993 91.8881C34.0387 91.6126 34.0775 91.3378 34.1177 91.0631C33.4096 90.9764 32.8418 90.8559 32.4134 90.7009C31.9851 90.5466 31.6293 90.3127 31.3453 90.0013C31.0628 89.6892 30.9262 89.3172 30.9339 88.8868C31.4207 88.8586 31.9068 88.829 32.3951 88.8001C32.4423 89.2489 32.591 89.5835 32.8418 89.8055C33.1976 90.1197 33.6576 90.3057 34.217 90.3649C34.3431 89.4891 34.4692 88.6127 34.5953 87.7363C34.0162 87.644 33.4336 87.4848 32.8481 87.2558C32.1253 86.9733 31.5313 86.4547 31.6405 85.6917C31.7251 85.1049 32.1542 84.6462 32.9256 84.3172C33.4448 84.096 34.1811 83.9804 35.1364 83.9699C35.1554 83.8388 35.1738 83.7071 35.1928 83.576C35.4739 83.5887 35.7543 83.6021 36.0347 83.6162C36.0157 83.7479 35.9974 83.8797 35.9783 84.0107C36.8033 84.096 37.443 84.2686 37.896 84.5264C38.4759 84.8576 38.7936 85.288 38.8472 85.8157Z" fill="#FFD77E"/>
<path d="M36.8878 88.4559C37.1196 88.6496 37.2119 88.8976 37.1696 89.1964C37.1196 89.5479 36.8956 89.834 36.4982 90.0552C36.1016 90.2771 35.6218 90.3941 35.0596 90.4067C35.18 89.5691 35.3005 88.7314 35.421 87.8937C36.1685 88.0733 36.6567 88.2614 36.8878 88.4559Z" fill="#FF9F1B"/>
<path d="M20.9152 86.8561C20.9152 85.8951 20.9152 84.9348 20.9152 83.9717L20.9307 83.959C21.0138 84.9735 21.433 85.9719 22.1699 86.9004C26.1688 91.942 37.6505 93.1228 44.4478 89.2106C45.4941 88.6089 46.4727 87.8656 47.223 86.9152C48.0734 85.8394 48.4855 84.7051 48.4855 83.5835C48.4855 84.6002 48.4855 85.6971 48.4855 86.8561C48.4855 89.4987 46.2754 91.5531 43.9265 92.7706C41.2979 94.1345 38.329 94.6982 35.3932 94.8031C32.4983 94.8806 29.7063 94.4128 27.7237 93.7203C25.6137 93.0284 23.1894 91.6814 21.9353 89.8595C21.3083 88.971 20.9152 87.965 20.9152 86.8561Z" fill="#FF9F1B"/>
<path d="M45.0095 86.3268C46.4221 84.5394 46.3657 82.5548 45.0158 80.8526C41.7341 76.7142 32.2949 75.7243 26.684 78.9462C25.8195 79.4429 25.0121 80.0565 24.3915 80.8406C22.9796 82.6273 23.0359 84.612 24.3851 86.3141C27.671 90.4568 37.1117 91.4389 42.7184 88.2206C43.58 87.7239 44.3881 87.1124 45.0095 86.3268ZM47.2323 80.2664C48.8618 82.3209 48.9492 84.7325 47.2231 86.9151C46.4728 87.8655 45.4942 88.6088 44.448 89.2104C37.6507 93.1227 26.169 91.9419 22.1701 86.9003C20.9181 85.3214 20.5179 83.4551 21.3584 81.5811C22.0679 80.0065 23.4502 78.8179 24.9614 77.9507C29.5909 75.2918 36.5594 74.9325 41.8264 76.7706C43.8301 77.4695 45.9176 78.6101 47.2323 80.2664Z" fill="#FFD77E"/>
<path d="M37.3505 81.8587C37.8501 81.839 38.3488 81.82 38.847 81.8009C38.7934 81.2725 38.4757 80.8435 37.8958 80.5124C37.4428 80.2538 36.8031 80.0819 35.9781 79.9966C35.9971 79.8649 36.0155 79.7339 36.0345 79.6014C35.7541 79.588 35.4737 79.5746 35.1926 79.5612C35.1736 79.693 35.1552 79.8247 35.1362 79.9558C34.1809 79.9656 33.4446 80.0819 32.9254 80.3017C32.1539 80.6314 31.7249 81.0901 31.6403 81.6776C31.5311 82.4399 32.125 82.9592 32.8479 83.2403C33.4334 83.47 34.016 83.6299 34.5951 83.7215C34.469 84.5979 34.3429 85.4743 34.2168 86.3501C33.6574 86.2909 33.1973 86.1049 32.8416 85.79C32.5907 85.5688 32.4421 85.2334 32.3949 84.786C31.9066 84.8142 31.4205 84.8438 30.9337 84.872C30.9259 85.3025 31.0626 85.6737 31.3451 85.9865C31.6291 86.2986 31.9848 86.5318 32.4132 86.6868C32.8416 86.8411 33.4094 86.9616 34.1175 87.0483C34.0773 87.323 34.0385 87.5985 33.9991 87.8733C34.2788 87.8874 34.5599 87.9008 34.8403 87.9134C34.8812 87.6358 34.9206 87.3568 34.9608 87.0793C35.9654 87.0997 36.8116 86.9334 37.4964 86.5819C38.1805 86.2296 38.5652 85.7674 38.6483 85.1954C38.7279 84.6345 38.4334 84.1731 37.9621 83.8504C37.7056 83.6736 37.3611 83.5193 36.9307 83.3847C36.7066 83.3164 36.2416 83.2121 35.5364 83.074C35.6505 82.2807 35.764 81.4867 35.8781 80.6934C36.3353 80.7709 36.6862 80.9027 36.9299 81.0879C37.1723 81.2739 37.3118 81.5304 37.3505 81.8587ZM45.0158 80.8519C46.3657 82.5541 46.4221 84.5387 45.0095 86.3261C44.3881 87.1117 43.58 87.7232 42.7184 88.2199C37.1117 91.4382 27.671 90.4561 24.3851 86.3134C23.0359 84.6113 22.9796 82.6266 24.3914 80.84C25.0121 80.0558 25.8195 79.4422 26.684 78.9455C32.2949 75.7237 41.7341 76.7135 45.0158 80.8519Z" fill="#FF9F1B"/>
<path d="M34.7088 82.9288C34.8187 82.1679 34.9279 81.4063 35.0378 80.6447C34.4749 80.6666 34.0176 80.7737 33.6668 80.9667C33.3159 81.159 33.1214 81.3986 33.0806 81.6818C32.9693 82.4547 33.9458 82.7548 34.7088 82.9288ZM37.1697 85.1805C37.2119 84.8811 37.1197 84.6338 36.8879 84.4393C36.6568 84.2463 36.1686 84.0575 35.421 83.8778C35.3006 84.7162 35.1801 85.5532 35.0596 86.3916C35.6218 86.3782 36.1016 86.2605 36.4983 86.04C36.8956 85.8188 37.1197 85.532 37.1697 85.1805ZM38.8472 81.8016C38.3491 81.8206 37.8503 81.8396 37.3508 81.8593C37.312 81.531 37.1725 81.2746 36.9301 81.0886C36.6864 80.9033 36.3355 80.7715 35.8783 80.694C35.7642 81.4873 35.6507 82.2814 35.5366 83.0747C36.2418 83.2127 36.7068 83.317 36.9309 83.3853C37.3613 83.5199 37.7058 83.6742 37.9623 83.851C38.4336 84.1737 38.7281 84.6352 38.6485 85.196C38.5654 85.7681 38.1807 86.2302 37.4966 86.5825C36.8118 86.9341 35.9657 87.1003 34.961 87.0799C34.9208 87.3575 34.8814 87.6365 34.8405 87.9141C34.5601 87.9014 34.279 87.888 33.9993 87.8739C34.0387 87.5991 34.0775 87.3237 34.1177 87.0489C33.4096 86.9622 32.8418 86.8418 32.4134 86.6875C31.9851 86.5325 31.6293 86.2993 31.3453 85.9872C31.0628 85.6744 30.9262 85.3031 30.9339 84.8726C31.4207 84.8444 31.9068 84.8148 32.3951 84.7866C32.4423 85.234 32.591 85.5694 32.8418 85.7906C33.1976 86.1055 33.6576 86.2915 34.217 86.3507C34.3431 85.475 34.4692 84.5985 34.5953 83.7221C34.0162 83.6305 33.4336 83.4706 32.8481 83.2409C32.1253 82.9598 31.5313 82.4406 31.6405 81.6783C31.7251 81.0907 32.1542 80.632 32.9256 80.3023C33.4448 80.0825 34.1811 79.9663 35.1364 79.9564C35.1554 79.8254 35.1738 79.6936 35.1928 79.5619C35.4739 79.5753 35.7543 79.5886 36.0347 79.602C36.0157 79.7345 35.9974 79.8655 35.9783 79.9973C36.8033 80.0825 37.443 80.2544 37.896 80.513C38.4759 80.8441 38.7936 81.2732 38.8472 81.8016Z" fill="#FFD77E"/>
<path d="M36.8878 84.4398C37.1196 84.6343 37.2119 84.8816 37.1696 85.181C37.1196 85.5326 36.8956 85.8193 36.4982 86.0405C36.1016 86.261 35.6218 86.3787 35.0596 86.3921C35.18 85.5537 35.3005 84.7167 35.421 83.8783C36.1685 84.058 36.6567 84.2468 36.8878 84.4398Z" fill="#FF9F1B"/>
<path d="M20.9152 82.8414C20.9152 81.8811 20.9152 80.9195 20.9152 79.9578L20.9307 79.9451C21.0138 80.9589 21.433 81.9572 22.1699 82.8851C26.1688 87.9281 37.6505 89.1075 44.4478 85.1966C45.4941 84.5943 46.4727 83.851 47.223 82.9006C48.0734 81.8248 48.4855 80.6905 48.4855 79.5682C48.4855 80.5855 48.4855 81.6817 48.4855 82.8414C48.4855 85.4841 46.2754 87.5385 43.9265 88.7559C41.2979 90.1206 38.329 90.6835 35.3932 90.7885C32.4983 90.866 29.7063 90.3989 27.7237 89.7056C25.6137 89.0138 23.1894 87.6667 21.9353 85.8448C21.3083 84.9571 20.9152 83.9503 20.9152 82.8414Z" fill="#FF9F1B"/>
<path d="M45.0095 82.3117C46.4221 80.525 46.3657 78.5389 45.0158 76.8375C41.7341 72.6991 32.2949 71.7099 26.684 74.931C25.8195 75.427 25.0121 76.0414 24.3915 76.8255C22.9796 78.6129 23.0359 80.5969 24.3851 82.2983C27.671 86.4409 37.1117 87.4244 42.7184 84.2047C43.58 83.7087 44.3881 83.0972 45.0095 82.3117ZM47.2323 76.2513C48.8618 78.305 48.9492 80.7166 47.2231 82.9C46.4728 83.8504 45.4942 84.5936 44.448 85.196C37.6507 89.1069 26.169 87.9275 22.1701 82.8844C20.9181 81.307 20.5179 79.4407 21.3584 77.5667C22.0679 75.9906 23.4502 74.8028 24.9614 73.9348C29.5909 71.2773 36.5594 70.9173 41.8264 72.7554C43.8301 73.4543 45.9176 74.595 47.2323 76.2513Z" fill="#FFD77E"/>
<path d="M37.3505 77.8447C37.8501 77.8256 38.3488 77.8052 38.847 77.7869C38.7934 77.2585 38.4757 76.8294 37.8958 76.4983C37.4428 76.2397 36.8031 76.0678 35.9781 75.9826C35.9971 75.8508 36.0155 75.7198 36.0345 75.588C35.7541 75.574 35.4737 75.5606 35.1926 75.5472C35.1736 75.6789 35.1552 75.81 35.1362 75.9417C34.1809 75.9516 33.4446 76.0678 32.9254 76.2876C32.1539 76.6181 31.7249 77.0753 31.6403 77.6629C31.5311 78.4252 32.125 78.9451 32.8479 79.2269C33.4334 79.4552 34.016 79.6158 34.5951 79.7081C34.469 80.5846 34.3429 81.461 34.2168 82.336C33.6574 82.2768 33.1973 82.0908 32.8416 81.7759C32.5907 81.5554 32.4421 81.2193 32.3949 80.7713C31.9066 80.7994 31.4205 80.829 30.9337 80.8586C30.9259 81.2891 31.0626 81.6604 31.3451 81.9725C31.6291 82.2846 31.9848 82.5178 32.4132 82.6728C32.8416 82.8271 33.4094 82.9476 34.1175 83.0342C34.0773 83.309 34.0385 83.5844 33.9991 83.8592C34.2788 83.8733 34.5599 83.886 34.8403 83.9001C34.8812 83.6211 34.9206 83.3435 34.9608 83.0645C35.9654 83.0856 36.8116 82.9187 37.4964 82.5671C38.1805 82.2155 38.5652 81.7534 38.6483 81.1813C38.7279 80.6205 38.4334 80.159 37.9621 79.8357C37.7056 79.6595 37.3611 79.5052 36.9307 79.3714C36.7066 79.3023 36.2416 79.1981 35.5364 79.06C35.6505 78.2667 35.764 77.4727 35.8781 76.6794C36.3353 76.7569 36.6862 76.8886 36.9299 77.0732C37.1723 77.2599 37.3118 77.5163 37.3505 77.8447ZM45.0158 76.8379C46.3657 78.5393 46.4221 80.5254 45.0095 82.3121C44.3881 83.0976 43.58 83.7091 42.7184 84.2051C37.1117 87.4248 27.671 86.4413 24.3851 82.2987C23.0359 80.5972 22.9796 78.6133 24.3914 76.8259C25.0121 76.0418 25.8195 75.4274 26.684 74.9314C32.2949 71.7103 41.7341 72.6995 45.0158 76.8379Z" fill="#FF9F1B"/>
<path d="M34.7088 78.9137C34.8187 78.1521 34.9279 77.3905 35.0378 76.6289C34.4749 76.6507 34.0176 76.7578 33.6668 76.9509C33.3159 77.1439 33.1214 77.3827 33.0806 77.666C32.9693 78.4388 33.9458 78.739 34.7088 78.9137ZM37.1697 81.1646C37.2119 80.8659 37.1197 80.6186 36.8879 80.4242C36.6568 80.2304 36.1686 80.0416 35.421 79.862C35.3006 80.7004 35.1801 81.5373 35.0596 82.3757C35.6218 82.3623 36.1016 82.2447 36.4983 82.0242C36.8956 81.8022 37.1197 81.5162 37.1697 81.1646ZM38.8472 77.7857C38.3491 77.804 37.8503 77.8245 37.3508 77.8435C37.312 77.5152 37.1725 77.2587 36.9301 77.072C36.6864 76.8874 36.3355 76.7557 35.8783 76.6782C35.7642 77.4715 35.6507 78.2655 35.5366 79.0588C36.2418 79.1969 36.7068 79.3012 36.9309 79.3702C37.3613 79.5041 37.7058 79.6584 37.9623 79.8345C38.4336 80.1579 38.7281 80.6193 38.6485 81.1801C38.5654 81.7522 38.1807 82.2144 37.4966 82.5659C36.8118 82.9175 35.9657 83.0845 34.961 83.0633C34.9208 83.3423 34.8814 83.6199 34.8405 83.8989C34.5601 83.8848 34.279 83.8721 33.9993 83.8581C34.0387 83.5833 34.0775 83.3078 34.1177 83.0331C33.4096 82.9464 32.8418 82.8259 32.4134 82.6716C31.9851 82.5166 31.6293 82.2834 31.3453 81.9713C31.0628 81.6592 30.9262 81.2879 30.9339 80.8575C31.4207 80.8279 31.9068 80.7983 32.3951 80.7701C32.4423 81.2182 32.591 81.5542 32.8418 81.7748C33.1976 82.0897 33.6576 82.2757 34.217 82.3349C34.3431 81.4598 34.4692 80.5834 34.5953 79.707C34.0162 79.6147 33.4336 79.454 32.8481 79.2258C32.1253 78.944 31.5313 78.424 31.6405 77.6617C31.7251 77.0742 32.1542 76.6169 32.9256 76.2865C33.4448 76.0667 34.1811 75.9504 35.1364 75.9406C35.1554 75.8088 35.1738 75.6778 35.1928 75.546C35.4739 75.5594 35.7543 75.5728 36.0347 75.5869C36.0157 75.7186 35.9974 75.8497 35.9783 75.9814C36.8033 76.0667 37.443 76.2386 37.896 76.4971C38.4759 76.8283 38.7936 77.2573 38.8472 77.7857Z" fill="#FFD77E"/>
<path d="M36.8878 80.4244C37.1196 80.6189 37.2119 80.8662 37.1696 81.1649C37.1196 81.5165 36.8956 81.8025 36.4982 82.0244C36.1016 82.2449 35.6218 82.3626 35.0596 82.376C35.18 81.5376 35.3005 80.7006 35.421 79.8622C36.1685 80.0419 36.6567 80.2307 36.8878 80.4244Z" fill="#FF9F1B"/>
</svg>
