<svg width="184" height="117" viewBox="0 0 184 117" fill="none" xmlns="http://www.w3.org/2000/svg">
<mask id="mask0" mask-type="alpha" maskUnits="userSpaceOnUse" x="0" y="0" width="184" height="117">
<path d="M0.907227 111.429C0.907227 114.506 3.40164 117 6.47865 117H177.521C180.598 117 183.093 114.506 183.093 111.429V5.57153C183.093 2.49452 180.598 0.000114441 177.521 0.000114441H6.47865C3.40164 0.000114441 0.907227 2.49452 0.907227 5.57153V111.429Z" fill="#FFDCD6"/>
</mask>
<g mask="url(#mask0)">
</g>
<path d="M106.986 46.0633C106.862 48.7085 104.958 52.3305 101.276 56.9276C97.4692 61.7296 94.2483 64.1304 91.6135 64.1304C89.982 64.1304 88.6001 62.6686 87.4723 59.7438C86.7185 57.0629 85.9656 54.3822 85.2121 51.7013C84.3741 48.7782 83.4755 47.3147 82.5149 47.3147C82.3054 47.3147 81.5724 47.7424 80.3174 48.5946L79 46.9475C80.3818 45.7691 81.7451 44.5909 83.0863 43.4111C84.9293 41.8655 86.3128 41.0527 87.2349 40.9705C89.4141 40.7674 90.7553 42.2129 91.2588 45.3075C91.8028 48.6461 92.1791 50.7228 92.3908 51.5356C93.0189 54.3055 93.7099 55.6887 94.4651 55.6887C95.0511 55.6887 95.9314 54.7904 97.1052 52.9939C98.2778 51.1968 98.9059 49.8297 98.9907 48.8904C99.1576 47.3397 98.5293 46.5624 97.1052 46.5624C96.4349 46.5624 95.7438 46.7121 95.0329 47.008C96.4088 42.6336 99.038 40.5092 102.919 40.6304C105.796 40.7123 107.152 42.5232 106.986 46.0633Z" fill="#32B8E8"/>
<path d="M37.6413 62.817V61.8149C37.2934 61.7598 36.9421 61.7297 36.5899 61.7246C33.1805 61.7173 30.1621 63.9267 29.1383 67.1788C28.1144 70.4308 29.323 73.9708 32.1214 75.918C31.0952 74.8197 30.4088 73.4479 30.1451 71.9681C29.8814 70.4883 30.0516 68.9638 30.6352 67.5786C31.2188 66.1934 32.1908 65.0068 33.434 64.1619C34.6772 63.317 36.1383 62.8499 37.641 62.8172L37.6413 62.817Z" fill="#25F4EE"/>
<path d="M37.8305 74.1684C39.7367 74.1658 41.3035 72.6641 41.387 70.7597V53.7655H44.4916C44.4282 53.4104 44.398 53.0502 44.4013 52.6895H40.1548V69.6673C40.0842 71.5813 38.5136 73.0975 36.5983 73.1005C36.0259 73.0957 35.4629 72.9549 34.9556 72.6899C35.2844 73.1454 35.7162 73.5168 36.2158 73.7737C36.7154 74.0307 37.2687 74.1659 37.8305 74.1684ZM50.2905 59.5314V58.5869C49.1479 58.5873 48.0306 58.2501 47.079 57.6177C47.9132 58.5875 49.0405 59.2593 50.2905 59.5314Z" fill="#25F4EE"/>
<path d="M47.0789 57.6183C46.1414 56.5508 45.6246 55.1785 45.625 53.7578H44.4915C44.6379 54.5433 44.9428 55.2907 45.3877 55.9545C45.8325 56.6182 46.408 57.1844 47.0789 57.6183ZM36.5899 65.9717C35.7949 65.9757 35.024 66.2454 34.3999 66.7379C33.7758 67.2304 33.3342 67.9174 33.1453 68.6897C32.9565 69.462 33.0313 70.2752 33.3577 71.0001C33.6842 71.7251 34.2436 72.32 34.9471 72.6905C34.5625 72.1594 34.3322 71.5324 34.2816 70.8787C34.231 70.2249 34.3621 69.5699 34.6605 68.986C34.9588 68.4021 35.4127 67.912 35.9721 67.57C36.5315 67.2279 37.1746 67.0471 37.8303 67.0476C38.1868 67.0523 38.5408 67.1078 38.8816 67.2124V62.8915C38.5335 62.8393 38.1822 62.8119 37.8303 62.8094H37.6413V66.0948C37.2987 66.0029 36.9445 65.9615 36.5899 65.9717Z" fill="#FE2C55"/>
<path d="M50.2907 59.5312V62.8168C48.1754 62.8127 46.115 62.1431 44.4014 60.903V69.5356C44.3923 73.8432 40.8978 77.3305 36.5902 77.3305C34.9904 77.3334 33.4291 76.8398 32.1217 75.9177C33.1878 77.0644 34.5745 77.8635 36.1012 78.2108C37.6279 78.5581 39.2238 78.4377 40.6811 77.8651C42.1383 77.2925 43.3894 76.2944 44.2712 75.0006C45.1531 73.7069 45.625 72.1776 45.6253 70.6119V62.0037C47.3447 63.2357 49.4076 63.8965 51.5227 63.8928V59.6624C51.1086 59.6611 50.6958 59.6172 50.2907 59.5312Z" fill="#FE2C55"/>
<path d="M44.4012 69.5364V60.9038C46.12 62.1369 48.1833 62.7978 50.2986 62.7929V59.5075C49.0489 59.2436 47.9189 58.5805 47.0789 57.6183C46.408 57.1844 45.8326 56.6182 45.3877 55.9545C44.9429 55.2907 44.6379 54.5433 44.4915 53.7578H41.3869V70.7605C41.3567 71.5006 41.0967 72.2129 40.643 72.7984C40.1893 73.3839 39.5645 73.8136 38.8554 74.0277C38.1463 74.2417 37.3881 74.2296 36.6862 73.9929C35.9843 73.7563 35.3736 73.3068 34.9389 72.7071C34.2353 72.3367 33.6757 71.7417 33.3492 71.0168C33.0226 70.2918 32.9478 69.4785 33.1367 68.7061C33.3255 67.9337 33.7672 67.2467 34.3914 66.7542C35.0156 66.2617 35.7866 65.992 36.5817 65.9881C36.9383 65.9912 37.2925 66.0466 37.633 66.1524V62.8668C36.1222 62.8925 34.6515 63.3571 33.4002 64.2041C32.1489 65.0512 31.171 66.244 30.5859 67.6371C30.0008 69.0303 29.8336 70.5636 30.1049 72.0501C30.3761 73.5366 31.074 74.9121 32.1134 76.0088C33.4337 76.9004 34.9972 77.3623 36.59 77.3313C40.8976 77.3313 44.3921 73.844 44.4012 69.5364Z" fill="black"/>
<path d="M157.436 55.9729C157.125 54.8027 156.21 53.8811 155.049 53.5683C152.943 53 144.5 53 144.5 53C144.5 53 136.057 53 133.951 53.5683C132.79 53.8811 131.875 54.8027 131.564 55.9729C131 58.0939 131 62.5192 131 62.5192C131 62.5192 131 66.9445 131.564 69.0655C131.875 70.2357 132.79 71.1189 133.951 71.4317C136.057 72 144.5 72 144.5 72C144.5 72 152.943 72 155.049 71.4317C156.21 71.1189 157.125 70.2357 157.436 69.0655C158 66.9445 158 62.5192 158 62.5192C158 62.5192 158 58.0939 157.436 55.9729ZM141.739 66.5371V58.5013L148.795 62.5193L141.739 66.5371Z" fill="#E23D3D"/>
</svg>
